<?xml version="1.0" standalone="no"?><!DOCTYPE svg PUBLIC "-//W3C//DTD SVG 1.1//EN" "http://www.w3.org/Graphics/SVG/1.1/DTD/svg11.dtd" ><svg xmlns="http://www.w3.org/2000/svg"><metadata></metadata><defs><font id="1.004;ADBE;TrajanPro-Regular" horiz-adv-x="1216"><font-face font-family="Trajan Pro" font-weight="400" font-stretch="normal" units-per-em="1000" panose-1="2 2 5 2 5 5 6 2 3 1" ascent="750" descent="-250" x-height="1" bbox="-254 -256 1517 998" underline-thickness="50" underline-position="-75" unicode-range="U+0000-fb02" /><missing-glyph horiz-adv-x="500" d="M0 0 l500 0 l0 700 l-500 0 l0 -700 ZM250 395 l-170 255 l340 0 l-170 -255 ZM280 350 l170 255 l0 -510 l-170 255 ZM80 50 l170 255 l170 -255 l-340 0 ZM50 605 l170 -255 l-170 -255 l0 510 Z" /><glyph glyph-name=".null" unicode="" d="" /><glyph glyph-name="nonmarkingreturn" unicode="" d="" /><glyph glyph-name="space" unicode=" " d="" /><glyph glyph-name="numbersign" unicode="#" d="M539 460 l0 56 l-112 0 l32 238 l-35 0 l-32 -238 l-160 0 l33 238 l-36 0 l-33 -238 l-132 0 l0 -56 l124 0 l-25 -164 l-131 0 l0 -56 l122 0 l-38 -240 l35 0 l38 240 l163 0 l-37 -240 l35 0 l36 240 l123 0 l0 56 l-114 0 l24 164 l120 0 ZM384 460 l-24 -164 l-161 0 l25 164 l160 0 Z" /><glyph glyph-name="dollar" unicode="$" d="M280 0 q26 0 62.5 10 q36.5 10 69.5 33.5 q33 23.5 56.5 61.5 q23.5 38 23.5 94 q0 42 -14 74.5 q-14 32.5 -38 59 q-24 26.5 -55.5 49.5 q-31.5 23 -67.5 46 l29 298 q18 0 40 -8.5 q22 -8.5 35 -20.5 q20 -18 24.5 -39 q4.5 -21 4.5 -40 q0 -9 2 -12 q2 -3 6 -3 q7 0 8 10 q1 6 1.5 22.5 q0.5 16.5 1 35 q0.5 18.5 1 35 q0.5 16.5 0.5 24.5 q0 11 -8 15 q-14 5 -44.5 9.5 q-30.5 4.5 -67.5 4.5 l9 91 q0 7 -8 5 l-23 -7 q-6 -2 -6 -9 l-7 -80 q-32 0 -68.5 -11 q-36.5 -11 -67.5 -33 q-31 -22 -51 -56 q-20 -34 -20 -80 q0 -34 11 -61.5 q11 -27.5 32 -53.5 q21 -26 52.5 -51.5 q31.5 -25.5 73.5 -54.5 l-29 -320 q-30 0 -59.5 10.5 q-29.5 10.5 -49.5 33.5 q-19 22 -23 44.5 q-4 22.5 -3 48.5 q1 13 0 17.5 q-1 4.5 -5 4.5 q-8 0 -11 -19 q-1 -5 -3 -16 q-2 -11 -3.5 -27 q-1.5 -16 -3 -35.5 q-1.5 -19.5 -1.5 -39.5 q0 -16 4.5 -22 q4.5 -6 23.5 -14 q15 -6 33.5 -10.5 q18.5 -4.5 37 -7.5 q18.5 -3 34.5 -4.5 q16 -1.5 26 -1.5 l-8 -85 q-1 -11 7 -10 l19 6 q9 2 10 8 l7 81 ZM285 453 q-54 38 -82 72.5 q-28 34.5 -28 79.5 q0 38 16.5 61.5 q16.5 23.5 38.5 37 q22 13.5 45 18 q23 4.5 36 4.5 l-26 -273 ZM310 335 q51 -33 80.5 -70 q29.5 -37 29.5 -88 q0 -61 -36 -98.5 q-36 -37.5 -100 -40.5 l26 297 Z" /><glyph glyph-name="percent" unicode="%" d="M647 0 q45 0 77.5 17 q32.5 17 54 44.5 q21.5 27.5 31.5 61.5 q10 34 10 68 q0 30 -10 61 q-10 31 -30.5 56.5 q-20.5 25.5 -51.5 42 q-31 16.5 -74 16.5 q-46 0 -78.5 -17 q-32.5 -17 -53.5 -44 q-21 -27 -31 -61.5 q-10 -34.5 -10 -68.5 q0 -29 9.5 -60.5 q9.5 -31.5 30 -57 q20.5 -25.5 51.5 -42 q31 -16.5 75 -16.5 ZM651 28 q-27 0 -47.5 14.5 q-20.5 14.5 -34 37.5 q-13.5 23 -20 52 q-6.5 29 -6.5 58 q0 30 6 57.5 q6 27.5 18.5 47.5 q12.5 20 32.5 32 q20 12 49 12 q27 0 47 -14.5 q20 -14.5 34 -37.5 q14 -23 21 -52 q7 -29 7 -58 q0 -30 -6 -57 q-6 -27 -18.5 -47.5 q-12.5 -20.5 -33 -32.5 q-20.5 -12 -49.5 -12 ZM300 -4 q5 1 10 12 l294 732 q5 11 8 18 q3 7 3 11 q0 4 -7 4 q-10 0 -46.5 -3.5 q-36.5 -3.5 -89.5 -8 q-53 -4.5 -116.5 -8 q-63.5 -3.5 -127.5 -3.5 q-45 0 -78.5 -17 q-33.5 -17 -55.5 -44 q-22 -27 -33 -61.5 q-11 -34.5 -11 -69.5 q0 -29 9.5 -60.5 q9.5 -31.5 30 -57 q20.5 -25.5 51.5 -42 q31 -16.5 75 -16.5 q44 0 76.5 17 q32.5 17 53.5 44.5 q21 27.5 31.5 61.5 q10.5 34 10.5 68 q0 48 -19 86 q-19 38 -46 57 l0 2 q6 0 35 2 q29 2 65.5 4.5 q36.5 2.5 74 5.5 q37.5 3 61.5 4 q-2 -5 -19.5 -46 q-17.5 -41 -44 -104 q-26.5 -63 -60 -141.5 q-33.5 -78.5 -68 -158 q-34.5 -79.5 -67 -154.5 q-32.5 -75 -57.5 -131 q-2 -5 0.5 -9 q2.5 -4 10.5 -2 l46 8 ZM220 410 q-27 0 -47.5 14.5 q-20.5 14.5 -34 37.5 q-13.5 23 -20 52 q-6.5 29 -6.5 58 q0 30 6 57.5 q6 27.5 18.5 48 q12.5 20.5 32.5 32.5 q20 12 49 12 q27 0 47 -14.5 q20 -14.5 33.5 -38 q13.5 -23.5 20.5 -52.5 q7 -29 7 -58 q0 -30 -5.5 -57 q-5.5 -27 -18.5 -47.5 q-13 -20.5 -33 -32.5 q-20 -12 -49 -12 Z" /><glyph glyph-name="ampersand" unicode="&amp;" d="M293 -17 q55 0 98 13.5 q43 13.5 74 31.5 q31 18 50 36 q19 18 28 27 q41 -33 68.5 -51.5 q27.5 -18.5 49 -28 q21.5 -9.5 42 -12 q20.5 -2.5 48.5 -2.5 l98 0 q7 0 12 2 q5 2 5 5 q0 7 -14 7 q-27 0 -61 12.5 q-34 12.5 -58 26.5 q-21 12 -54.5 34.5 q-33.5 22.5 -83.5 64.5 q16 20 34 48 q18 28 32 59.5 q14 31.5 23.5 65 q9.5 33.5 9.5 63.5 q0 8 -3.5 13 q-3.5 5 -14.5 7 q-42 5 -72 6 q-30 1 -48 1 q-6 0 -11 -1.5 q-5 -1.5 -5 -5.5 q0 -4 3.5 -5.5 q3.5 -1.5 8.5 -1.5 q11 0 25 -3 q14 -3 24 -13 q11 -11 15 -24.5 q4 -13.5 4 -24.5 q0 -46 -15 -91.5 q-15 -45.5 -36 -74.5 q-12 10 -38.5 34 q-26.5 24 -55.5 51.5 q-29 27.5 -55.5 53.5 q-26.5 26 -39.5 40 q-39 42 -68.5 76.5 q-29.5 34.5 -49.5 64.5 q-20 30 -30 58 q-10 28 -10 57 q0 35 11.5 60 q11.5 25 29.5 40.5 q18 15.5 40.5 23 q22.5 7.5 45.5 7.5 q33 0 58 -13.5 q25 -13.5 42 -30.5 q19 -20 25 -42.5 q6 -22.5 6 -42.5 q0 -11 1 -15 q1 -4 5 -4 q3 0 5.5 3 q2.5 3 4.5 14 q1 6 2.5 20.5 q1.5 14.5 2.5 31.5 q1 17 1.5 34.5 q0.5 17.5 0.5 28.5 q0 9 -2 14.5 q-2 5.5 -11 10.5 q-20 11 -51.5 18 q-31.5 7 -69.5 7 q-50 0 -90 -17.5 q-40 -17.5 -68 -44.5 q-28 -27 -42.5 -59.5 q-14.5 -32.5 -14.5 -62.5 q0 -34 10.5 -66.5 q10.5 -32.5 38.5 -71.5 q-29 -17 -56.5 -40.5 q-27.5 -23.5 -49 -53.5 q-21.5 -30 -34.5 -66.5 q-13 -36.5 -13 -80.5 q0 -33 13.5 -71.5 q13.5 -38.5 42.5 -71.5 q29 -33 75 -55.5 q46 -22.5 112 -22.5 ZM328 36 q-42 0 -78.5 16 q-36.5 16 -63.5 44.5 q-27 28.5 -42.5 68 q-15.5 39.5 -15.5 86.5 q0 60 25.5 101 q25.5 41 64.5 67 q10 -15 26.5 -35 q16.5 -20 33.5 -40 q17 -20 32.5 -37.5 q15.5 -17.5 25.5 -27.5 q10 -11 31.5 -32 q21.5 -21 47.5 -46 q26 -25 53.5 -49.5 q27.5 -24.5 48.5 -41.5 q-13 -13 -31 -26.5 q-18 -13.5 -41.5 -24 q-23.5 -10.5 -52.5 -17 q-29 -6.5 -64 -6.5 Z" /><glyph glyph-name="quoteright" unicode="&#x2019;" d="M85 732 q0 -43 -11 -81 q-11 -38 -22 -62 q-4 -9 -4 -13 q0 -5 5 -5 q8 0 13 8 q13 16 28 38.5 q15 22.5 28 49 q13 26.5 21.5 54.5 q8.5 28 8.5 55 q0 11 -4 16 q-4 5 -13 10 q-6 2 -15.5 5 q-9.5 3 -19.5 6 q-10 3 -19.5 5 q-9.5 2 -15.5 2 q-3 0 -6 -2 q-3 -2 -3 -4 q0 -4 1.5 -7 q1.5 -3 7.5 -10 q5 -6 12.5 -24 q7.5 -18 7.5 -41 Z" /><glyph glyph-name="parenleft" unicode="(" d="M137 319 q0 76 15.5 142.5 q15.5 66.5 38 119 q22.5 52.5 47 89.5 q24.5 37 42.5 55 q7 7 7 11 q0 8 -7 8 q-3 0 -11 -6 q-23 -17 -58.5 -56.5 q-35.5 -39.5 -68.5 -96.5 q-33 -57 -56.5 -128 q-23.5 -71 -23.5 -151 q0 -80 21.5 -148 q21.5 -68 53 -122.5 q31.5 -54.5 68 -93.5 q36.5 -39 65.5 -61 q7 -5 9 -5 q7 0 7 7 q0 3 -2 5.5 q-2 2.5 -5 6.5 q-31 37 -57 79 q-26 42 -45 93 q-19 51 -29.5 113 q-10.5 62 -10.5 139 Z" /><glyph glyph-name="parenright" unicode=")" d="M223 301 q0 -76 -15.5 -142.5 q-15.5 -66.5 -38 -119 q-22.5 -52.5 -47 -89.5 q-24.5 -37 -42.5 -55 q-7 -7 -7 -11 q0 -8 7 -8 q3 0 11 6 q23 16 58.5 56 q35.5 40 68.5 97 q33 57 56.5 128.5 q23.5 71.5 23.5 152.5 q0 79 -21.5 146.5 q-21.5 67.5 -53 122 q-31.5 54.5 -68 93.5 q-36.5 39 -65.5 61 q-7 5 -9 5 q-7 0 -7 -7 q0 -3 2 -5.5 q2 -2.5 5 -6.5 q31 -37 57 -79 q26 -42 45 -93 q19 -51 29.5 -113 q10.5 -62 10.5 -139 Z" /><glyph glyph-name="asterisk" unicode="*" d="M207 797 q0 11 -8 11 q-7 0 -17.5 -3 q-10.5 -3 -21 -7.5 q-10.5 -4.5 -18 -9.5 q-7.5 -5 -7.5 -9 q0 -3 4 -11 q2 -4 6.5 -18 q4.5 -14 9 -30 q4.5 -16 7.5 -30.5 q3 -14.5 3 -19.5 q0 -5 -1 -7 q-4 -1 -8 1 q-4 3 -18 13.5 q-14 10.5 -31.5 22 q-17.5 11.5 -35 20 q-17.5 8.5 -28.5 8.5 q-10 0 -10 -8 q0 -6 0.5 -17 q0.5 -11 2 -22.5 q1.5 -11.5 3.5 -19.5 q2 -8 5 -8 q2 0 4.5 1.5 q2.5 1.5 7.5 1.5 q5 0 17 -0.5 q12 -0.5 26.5 -1 q14.5 -0.5 28.5 -2 q14 -1.5 23 -3.5 q4 0 4 -3 q0 -3 -3 -6 q-5 -4 -19.5 -16.5 q-14.5 -12.5 -31 -27.5 q-16.5 -15 -31 -28 q-14.5 -13 -18.5 -19 q-5 -6 -6 -9.5 q-1 -3.5 -1 -6.5 q0 -5 20 -9 q20 -4 43 -4 q12 0 12 5 q0 6 2 12 q2 6 4 11 q2 5 7.5 17.5 q5.5 12.5 11.5 26 q6 13.5 11.5 25 q5.5 11.5 7.5 14.5 q1 3 4 3 q2 0 2.5 -2 q0.5 -2 1.5 -4 q3 -9 8.5 -23.5 q5.5 -14.5 12 -29.5 q6.5 -15 12.5 -29 q6 -14 10 -21 q8 -14 14 -14 q6 0 14.5 5.5 q8.5 5.5 16.5 13.5 q8 8 14 16.5 q6 8.5 6 14.5 q0 5 -11 9 q-5 1 -17 9.5 q-12 8.5 -25.5 19.5 q-13.5 11 -25.5 22 q-12 11 -16 19 q-3 5 -1 7 q4 2 6 2 q11 0 30 0.5 q19 0.5 37.5 1.5 q18.5 1 32 1.5 q13.5 0.5 15.5 0.5 q12 3 12 9 q0 7 -3.5 18 q-3.5 11 -8 21 q-4.5 10 -9 17 q-4.5 7 -7.5 7 q-2 0 -4 -2 q-2 -2 -6 -5 q-3 -3 -11.5 -10.5 q-8.5 -7.5 -21.5 -16 q-13 -8.5 -28.5 -16.5 q-15.5 -8 -32.5 -12 q-4 -1 -5 0 q-2 3 0 7 q4 14 9 32 q5 18 9 36 q4 18 6.5 34 q2.5 16 2.5 25 Z" /><glyph glyph-name="plus" unicode="+" d="M468 243 l0 51 l-187 0 l0 187 l-52 0 l0 -187 l-187 0 l0 -51 l188 0 l0 -187 l52 0 l0 187 l186 0 Z" /><glyph glyph-name="comma" unicode="," d="M111 -2 q0 -14 -5.5 -31.5 q-5.5 -17.5 -18.5 -39.5 q-2 -3 -4.5 -7 q-2.5 -4 -2.5 -7 q0 -7 7 -7 q6 0 13 9 q10 12 20 26.5 q10 14.5 18.5 29.5 q8.5 15 15 28.5 q6.5 13.5 10.5 22.5 q4 10 7 21.5 q3 11.5 3 17.5 q0 7 -3.5 17.5 q-3.5 10.5 -13.5 25.5 q-8 12 -11 15.5 q-3 3.5 -7 3.5 q-10 0 -21 -4.5 q-11 -4.5 -20 -12 q-9 -7.5 -15 -17.5 q-6 -10 -6 -20 q0 -5 5.5 -10 q5.5 -5 11.5 -13 q6 -8 11.5 -19.5 q5.5 -11.5 5.5 -28.5 Z" /><glyph glyph-name="hyphen" unicode="-" d="M73 310 q-12 0 -16 -1.5 q-4 -1.5 -6 -6.5 l-15 -56 q-3 -15 5 -15 q4 0 15.5 5.5 q11.5 5.5 25.5 9.5 q8 2 27.5 5.5 q19.5 3.5 43.5 7 q24 3.5 50.5 7.5 q26.5 4 50 7.5 q23.5 3.5 41.5 6 q18 2.5 25 3.5 q12 2 23.5 5 q11.5 3 11.5 12 q0 6 -8.5 8 q-8.5 2 -21.5 2 l-252 0 Z" /><glyph glyph-name="period" unicode="." d="M124 0 q26 0 41 17 q15 17 15 41 q0 24 -16 38 q-16 14 -39 14 q-15 0 -25 -5.5 q-10 -5.5 -17 -13.5 q-7 -8 -10 -17.5 q-3 -9.5 -3 -18.5 q0 -19 12.5 -37 q12.5 -18 41.5 -18 Z" /><glyph glyph-name="slash" unicode="/" d="M55 -15 q7 -4 12 5 l464 746 q4 6 -2 10 l-30 18 q-8 5 -14 -4 l-461 -739 q-7 -12 -1 -15 l32 -21 Z" /><glyph glyph-name="zero" unicode="0" d="M42 352 q0 -67 15 -133 q15 -66 44 -118.5 q29 -52.5 73 -85 q44 -32.5 103 -32.5 q61 0 108 32.5 q47 32.5 79 88.5 q32 56 48.5 132 q16.5 76 16.5 162 q0 33 -5 73 q-5 40 -15.5 81 q-10.5 41 -28.5 79.5 q-18 38.5 -44.5 69 q-26.5 30.5 -61.5 48.5 q-35 18 -81 18 q-60 0 -106.5 -31.5 q-46.5 -31.5 -79 -87.5 q-32.5 -56 -49 -132 q-16.5 -76 -16.5 -164 ZM123 393 q0 76 10.5 138 q10.5 62 30 106.5 q19.5 44.5 47 68.5 q27.5 24 62.5 24 q42 0 75 -32 q33 -32 55 -84.5 q22 -52.5 33.5 -120 q11.5 -67.5 11.5 -138.5 q0 -74 -11 -135.5 q-11 -61.5 -31 -106 q-20 -44.5 -47.5 -69 q-27.5 -24.5 -61.5 -24.5 q-46 0 -79 33.5 q-33 33.5 -54 87 q-21 53.5 -31 120 q-10 66.5 -10 132.5 Z" /><glyph glyph-name="one" unicode="1" d="M341 486 q1 115 3 184.5 q2 69.5 2 75.5 q0 8 -2.5 14.5 q-2.5 6.5 -8.5 6.5 q-5 0 -11 -3.5 q-6 -3.5 -13 -8.5 l-193 -129 q-7 -5 -7 -10 q0 -3 2.5 -6 q2.5 -3 4.5 -3 q5 0 12 4 q9 4 25.5 12.5 q16.5 8.5 33.5 16 q17 7.5 32.5 13.5 q15.5 6 22.5 6 q12 0 15 -8 q3 -8 3 -23 l0 -152 l0 -175 q0 -75 -0.5 -136 q-0.5 -61 -2.5 -94 q-2 -23 -9.5 -35 q-7.5 -12 -32.5 -17 q-7 -2 -19 -3 q-12 -1 -24 -2 q-12 -1 -22.5 -1.5 q-10.5 -0.5 -14.5 -0.5 q-8 0 -8 -8 q0 -7 17 -7 q24 0 50 0.5 q26 0.5 48.5 1 q22.5 0.5 37.5 1 q15 0.5 17 0.5 q2 0 14 -0.5 q12 -0.5 31.5 -1 q19.5 -0.5 45 -1 q25.5 -0.5 53.5 -0.5 q17 0 17 7 q0 3 -3 5.5 q-3 2.5 -6 2.5 q-3 0 -12 0.5 q-9 0.5 -19 1.5 q-10 1 -19.5 2 q-9.5 1 -15.5 2 q-24 5 -30.5 17.5 q-6.5 12.5 -9.5 35.5 q-4 33 -5 94 q-1 61 0 136 l1 185 Z" /><glyph glyph-name="two" unicode="2" d="M428 0 q32 0 45.5 5 q13.5 5 19.5 25 q4 13 9 32.5 q5 19.5 9.5 39 q4.5 19.5 8 36 q3.5 16.5 3.5 23.5 q0 5 -1 10 q-1 5 -5 5 q-8 0 -12 -15 q-9 -40 -35.5 -65.5 q-26.5 -25.5 -81.5 -30.5 q-14 -2 -40 -2.5 q-26 -0.5 -53 -1.5 q-27 -1 -50 -1 q-22 0 -28 0 l-73 0 q-4 0 -5 2 q-1 2 3 5 q31 26 69 59 q38 33 76.5 71 q38.5 38 75 81 q36.5 43 65 89.5 q28.5 46.5 45.5 96 q17 49.5 17 101.5 q0 40 -14 76.5 q-14 36.5 -42.5 64.5 q-28.5 28 -70.5 44.5 q-42 16.5 -99 16.5 q-61 0 -104.5 -11 q-43.5 -11 -71.5 -24 q-7 -5 -8.5 -7.5 q-1.5 -2.5 -1.5 -7.5 q0 -12 1 -31 q1 -19 2 -38.5 q1 -19.5 2 -35 q1 -15.5 1 -18.5 q1 -13 8 -13 q9 0 9 15 q0 29 8.5 54.5 q8.5 25.5 26.5 42.5 q22 20 46.5 29 q24.5 9 60.5 9 q25 0 53 -9 q28 -9 51.5 -30 q23.5 -21 39 -56.5 q15.5 -35.5 15.5 -89.5 q0 -72 -26.5 -135.5 q-26.5 -63.5 -73 -124 q-46.5 -60.5 -110.5 -121 q-64 -60.5 -139 -127.5 q-6 -5 -12 -11.5 q-6 -6.5 -6 -12.5 q0 -6 4.5 -10 q4.5 -4 9.5 -4 l379 0 Z" /><glyph glyph-name="three" unicode="3" d="M420 203 q0 -45 -14 -78 q-14 -33 -38.5 -55 q-24.5 -22 -57.5 -33 q-33 -11 -71 -11 q-39 0 -66.5 10.5 q-27.5 10.5 -45 28.5 q-17.5 18 -26.5 42.5 q-9 24.5 -12 53.5 q-1 14 -7 14 q-7 0 -8 -15 q-1 -8 -2.5 -22 q-1.5 -14 -2.5 -31 q-1 -17 -1.5 -35.5 q-0.5 -18.5 -0.5 -36.5 q0 -9 2.5 -15 q2.5 -6 13.5 -13 q8 -5 22 -9 q14 -4 31.5 -7.5 q17.5 -3.5 35.5 -5.5 q18 -2 33 -2 q67 0 122 20.5 q55 20.5 94.5 55.5 q39.5 35 61 81.5 q21.5 46.5 21.5 99.5 q0 43 -17 76.5 q-17 33.5 -42 57.5 q-25 24 -53.5 38 q-28.5 14 -52.5 20 l0 5 q12 5 34 20 q22 15 44.5 38 q22.5 23 39 53.5 q16.5 30.5 16.5 68.5 q0 19 -8 44.5 q-8 25.5 -30 49 q-22 23.5 -60.5 40 q-38.5 16.5 -99.5 16.5 q-57 0 -98 -11.5 q-41 -11.5 -64 -22.5 q-9 -6 -11 -10 q-2 -4 -2 -11 q0 -17 2 -46.5 q2 -29.5 5 -53.5 q1 -11 7 -11 q2 0 4.5 2 q2.5 2 2.5 10 q0 58 35.5 88 q35.5 30 90.5 30 q44 0 72 -15 q28 -15 44 -36.5 q16 -21.5 22 -44.5 q6 -23 6 -39 q0 -44 -18 -75.5 q-18 -31.5 -43 -52 q-25 -20.5 -52.5 -32 q-27.5 -11.5 -45.5 -14.5 q-10 -2 -16.5 -4.5 q-6.5 -2.5 -6.5 -7.5 q0 -8 26 -13 q24 -5 56 -17 q32 -12 60.5 -34.5 q28.5 -22.5 48.5 -57.5 q20 -35 20 -85 Z" /><glyph glyph-name="four" unicode="4" d="M416 600 q0 21 0 44 q0 24 0.5 46 q0.5 22 0.5 38 q0 16 0 22 q0 17 -10 17 q-8 0 -21 -18 q-8 -11 -37.5 -51 q-29.5 -40 -69.5 -94 q-40 -54 -84.5 -114 q-44.5 -60 -82 -111 q-37.5 -51 -63 -85 q-25.5 -34 -26.5 -36 q-3 -4 -6 -9.5 q-3 -5.5 -3 -11.5 q0 -7 6 -9.5 q6 -2.5 15 -2.5 l305 0 q0 -12 0 -32 q0 -19 0 -41 q0 -22 -0.5 -43.5 q-0.5 -21.5 -1.5 -37.5 q-2 -23 -10 -37.5 q-8 -14.5 -33 -18.5 q-12 -2 -26 -2.5 q-14 -0.5 -21 -0.5 q-8 0 -8 -8 q0 -7 16 -7 q21 0 40.5 0.5 q19.5 0.5 35.5 1 q16 0.5 26.5 1 q10.5 0.5 13.5 0.5 q3 0 15 -0.5 q12 -0.5 30 -1 q18 -0.5 39 -1 q21 -0.5 42 -0.5 q16 0 16 7 q0 8 -9 8 q-8 0 -20.5 1 q-12.5 1 -23.5 3 q-24 6 -32.5 19 q-8.5 13 -10.5 36 q-2 16 -2.5 37.5 q-0.5 21.5 -0.5 43.5 q0 22 0.5 41.5 q0.5 19.5 0.5 31.5 l92 0 q9 0 13 2.5 q4 2.5 8 10.5 q3 9 6 22.5 q3 13.5 3 17.5 q0 4 -0.5 8 q-0.5 4 -4.5 4 q-3 0 -12 -5.5 q-9 -5.5 -29 -5.5 l-76 0 l0 321 ZM340 279 l-256 0 q5 6 24.5 33 q19.5 27 46.5 64 q27 37 57.5 79.5 q30.5 42.5 57 79.5 q26.5 37 45.5 64.5 q19 27.5 23 33.5 l2 0 l0 -354 Z" /><glyph glyph-name="five" unicode="5" d="M190 687 l189 0 q30 0 47.5 -4.5 q17.5 -4.5 26.5 -13 q9 -8.5 11.5 -20.5 q2.5 -12 2.5 -26 q0 -13 6 -13 q3 0 5 3.5 q2 3.5 3 7.5 q8 55 10.5 87 q2.5 32 2.5 39 q0 10 -7 10 q-2 0 -7 -1 q-5 -1 -14 -2 q-9 -2 -23 -3 q-14 -1 -35 -1 l-235 0 q-18 0 -19 -13 l-23 -255 q-2 -17 26 -18 q29 -2 72 -17.5 q43 -15.5 83.5 -45.5 q40.5 -30 69.5 -75 q29 -45 29 -105 q0 -52 -15.5 -88.5 q-15.5 -36.5 -41 -60 q-25.5 -23.5 -57 -34.5 q-31.5 -11 -62.5 -11 q-27 0 -52 5 q-25 5 -44 19.5 q-19 14.5 -30 39.5 q-11 25 -11 65 q0 17 -8 17 q-3 0 -5 -5 q-2 -5 -4 -13 q-2 -12 -3 -28.5 q-1 -16.5 -1 -34.5 q0 -17 0 -34 q0 -16 0 -29 q0 -8 3 -14.5 q3 -6.5 16 -13.5 q19 -11 44 -14.5 q25 -3.5 48 -3.5 q76 0 132 25 q56 25 93.5 64.5 q37.5 39.5 56 89 q18.5 49.5 18.5 97.5 q0 67 -31 115.5 q-31 48.5 -77.5 81.5 q-46.5 33 -101 51.5 q-54.5 18.5 -102.5 25.5 l14 154 Z" /><glyph glyph-name="six" unicode="6" d="M446 195 q0 -41 -11 -73.5 q-11 -32.5 -30.5 -55 q-19.5 -22.5 -45.5 -34 q-26 -11.5 -56 -11.5 q-43 0 -74.5 22.5 q-31.5 22.5 -52 58.5 q-20.5 36 -30.5 80.5 q-10 44.5 -10 88.5 q0 89 24 163.5 q24 74.5 62.5 133.5 q38.5 59 86.5 102 q48 43 96 70 q8 5 13.5 8.5 q5.5 3.5 5.5 9.5 q0 9 -8 9 q-5 0 -21 -7 q-73 -32 -136 -85 q-63 -53 -109.5 -118.5 q-46.5 -65.5 -73.5 -139 q-27 -73.5 -27 -146.5 q0 -68 17 -121.5 q17 -53.5 48 -90.5 q31 -37 74 -56.5 q43 -19.5 96 -19.5 q56 0 97 16.5 q41 16.5 76 50.5 q33 32 52.5 81 q19.5 49 19.5 109 q0 33 -12 69 q-12 36 -36.5 66 q-24.5 30 -62.5 49 q-38 19 -90 19 q-42 0 -71.5 -12 q-29.5 -12 -44.5 -23 q-9 -6 -9 -12 q0 -8 4 -8 q2 0 6.5 1.5 q4.5 1.5 6.5 2.5 q17 8 36 10.5 q19 2.5 39 2.5 q23 0 49.5 -13.5 q26.5 -13.5 49 -39.5 q22.5 -26 37.5 -65.5 q15 -39.5 15 -91.5 Z" /><glyph glyph-name="seven" unicode="7" d="M202 750 q-49 0 -69.5 5 q-20.5 5 -25.5 5 q-10 0 -10 -14 q0 -4 -2.5 -24.5 q-2.5 -20.5 -5 -46.5 q-2.5 -26 -5 -51 q-2.5 -25 -2.5 -37 q0 -16 6 -16 q7 0 9 14 q2 21 12 42.5 q10 21.5 26 34.5 q18 15 44.5 20 q26.5 5 48.5 5 l246 0 q-57 -98 -105 -195 q-48 -97 -86 -184 q-38 -87 -65 -159.5 q-27 -72.5 -42 -121.5 q-2 -7 -4 -16.5 q-2 -9.5 -2 -17.5 q0 -10 9 -10 q7 0 23.5 6.5 q16.5 6.5 33 16.5 q16.5 10 29 20 q12.5 10 12.5 18 q0 8 -1 15 q-1 7 1 20 q4 32 19 84 q15 52 37.5 113.5 q22.5 61.5 49.5 127.5 q27 66 54.5 126.5 q27.5 60.5 54 110.5 q26.5 50 46.5 80 q4 6 5 11 q1 5 1 8 q0 10 -18 10 l-324 0 Z" /><glyph glyph-name="eight" unicode="8" d="M53 177 q0 -45 18 -81 q18 -36 48.5 -61 q30.5 -25 72 -38.5 q41.5 -13.5 88.5 -13.5 q54 0 97.5 18 q43.5 18 75 48.5 q31.5 30.5 48.5 70 q17 39.5 17 83.5 q0 46 -18 81 q-18 35 -44.5 61.5 q-26.5 26.5 -56.5 44.5 q-30 18 -55 31 q21 10 46 27 q25 17 46.5 40.5 q21.5 23.5 36 55 q14.5 31.5 14.5 70.5 q0 37 -14 65.5 q-14 28.5 -38.5 48 q-24.5 19.5 -58 29.5 q-33.5 10 -72.5 10 q-55 0 -95 -17.5 q-40 -17.5 -66.5 -43.5 q-26.5 -26 -39 -58 q-12.5 -32 -12.5 -60 q0 -33 11 -60.5 q11 -27.5 30 -50 q19 -22.5 44.5 -41.5 q25.5 -19 54.5 -36 q-34 -14 -66 -34.5 q-32 -20.5 -57 -48.5 q-25 -28 -40 -63 q-15 -35 -15 -77 ZM288 21 q-35 0 -64 13.5 q-29 13.5 -50 36 q-21 22.5 -32.5 53 q-11.5 30.5 -11.5 63.5 q0 37 10.5 67.5 q10.5 30.5 29 55 q18.5 24.5 43 42.5 q24.5 18 52.5 32 q34 -18 65.5 -36.5 q31.5 -18.5 56 -42 q24.5 -23.5 39.5 -54 q15 -30.5 15 -71.5 q0 -33 -11 -62 q-11 -29 -31 -50.5 q-20 -21.5 -48.5 -34 q-28.5 -12.5 -62.5 -12.5 ZM292 733 q58 0 91.5 -37 q33.5 -37 33.5 -94 q0 -38 -11 -65.5 q-11 -27.5 -27.5 -46.5 q-16.5 -19 -35 -31.5 q-18.5 -12.5 -33.5 -21.5 q-31 16 -58 33 q-27 17 -47 37 q-20 20 -31.5 44 q-11.5 24 -11.5 56 q0 21 7.5 43 q7.5 22 23.5 40.5 q16 18.5 40.5 30.5 q24.5 12 58.5 12 Z" /><glyph glyph-name="nine" unicode="9" d="M288 767 q-52 0 -95.5 -17 q-43.5 -17 -75.5 -48 q-32 -31 -50 -73.5 q-18 -42.5 -18 -94.5 q0 -32 11.5 -66 q11.5 -34 36 -62 q24.5 -28 63 -46.5 q38.5 -18.5 91.5 -18.5 q30 0 64 11.5 q34 11.5 56 34.5 q4 4 4 8 q0 7 -5 7 q-4 0 -13 -6 q-10 -6 -27.5 -12 q-17.5 -6 -52.5 -6 q-10 0 -35 7.5 q-25 7.5 -50.5 29.5 q-25.5 22 -45 61 q-19.5 39 -19.5 101 q0 30 8.5 57.5 q8.5 27.5 26 48.5 q17.5 21 43 34 q25.5 13 59.5 13 q33 0 63 -16.5 q30 -16.5 52.5 -49.5 q22.5 -33 36 -82.5 q13.5 -49.5 13.5 -115.5 q0 -88 -26 -163 q-26 -75 -66 -134 q-40 -59 -88 -102 q-48 -43 -92 -67 q-10 -5 -10 -14 q0 -10 8 -10 q8 0 16 4 q30 15 67.5 39.5 q37.5 24.5 76 58.5 q38.5 34 75 77 q36.5 43 65 95 q28.5 52 45.5 113.5 q17 61.5 17 131.5 q0 57 -16 106.5 q-16 49.5 -45.5 86.5 q-29.5 37 -72 58 q-42.5 21 -95.5 21 Z" /><glyph glyph-name="colon" unicode=":" d="M124 30 q26 0 41 17 q15 17 15 41 q0 24 -16 38 q-16 14 -39 14 q-15 0 -25 -5.5 q-10 -5.5 -17 -13.5 q-7 -8 -10 -17.5 q-3 -9.5 -3 -18.5 q0 -19 12.5 -37 q12.5 -18 41.5 -18 ZM124 368 q26 0 41 17 q15 17 15 41 q0 24 -16 38 q-16 14 -39 14 q-15 0 -25 -5.5 q-10 -5.5 -17 -13.5 q-7 -8 -10 -17.5 q-3 -9.5 -3 -18.5 q0 -19 12.5 -37 q12.5 -18 41.5 -18 Z" /><glyph glyph-name="semicolon" unicode=";" d="M116 -2 q0 -14 -5.5 -31.5 q-5.5 -17.5 -18.5 -39.5 q-2 -3 -4.5 -7 q-2.5 -4 -2.5 -7 q0 -7 7 -7 q6 0 13 9 q10 12 20 26.5 q10 14.5 18.5 29.5 q8.5 15 15 28.5 q6.5 13.5 10.5 22.5 q4 10 7 21.5 q3 11.5 3 17.5 q0 7 -3.5 17.5 q-3.5 10.5 -13.5 25.5 q-8 12 -11 15.5 q-3 3.5 -7 3.5 q-10 0 -21 -4.5 q-11 -4.5 -20 -12 q-9 -7.5 -15 -17.5 q-6 -10 -6 -20 q0 -5 5.5 -10 q5.5 -5 11.5 -13 q6 -8 11.5 -19.5 q5.5 -11.5 5.5 -28.5 ZM124 368 q26 0 41 17 q15 17 15 41 q0 24 -16 38 q-16 14 -39 14 q-15 0 -25 -5.5 q-10 -5.5 -17 -13.5 q-7 -8 -10 -17.5 q-3 -9.5 -3 -18.5 q0 -19 12.5 -37 q12.5 -18 41.5 -18 Z" /><glyph glyph-name="less" unicode="&lt;" d="M25 237 l426 -198 l0 53 l-371 171 l371 170 l0 53 l-426 -196 l0 -53 Z" /><glyph glyph-name="equal" unicode="=" d="M468 329 l0 51 l-426 0 l0 -51 l426 0 ZM468 153 l0 51 l-426 0 l0 -51 l426 0 Z" /><glyph glyph-name="greater" unicode="&gt;" d="M468 237 l0 53 l-426 196 l0 -53 l372 -170 l-372 -171 l0 -53 l426 198 Z" /><glyph glyph-name="question" unicode="?" d="M223 733 q34 0 56.5 -13.5 q22.5 -13.5 36 -33 q13.5 -19.5 19 -42 q5.5 -22.5 5.5 -40.5 q0 -25 -4 -48.5 q-4 -23.5 -14 -48 q-10 -24.5 -27 -52.5 q-17 -28 -43 -61 q-17 -21 -34.5 -40.5 q-17.5 -19.5 -34.5 -42.5 q-22 -28 -22 -50 q0 -14 7 -27 q7 -13 22 -32 q9 -11 22 -23 q13 -12 20 -12 q3 0 7 3 q4 3 4 6 q0 5 -9 17 q-11 14 -15 27 q-4 13 -4 24 q0 6 1 13 q1 7 5.5 16 q4.5 9 12.5 21 q8 12 22 30 q36 45 67.5 79 q31.5 34 54.5 65.5 q23 31.5 36.5 65 q13.5 33.5 13.5 77.5 q0 27 -9.5 54.5 q-9.5 27.5 -31.5 50 q-22 22.5 -56.5 37 q-34.5 14.5 -83.5 14.5 q-58 0 -100.5 -13 q-42.5 -13 -65.5 -27 q-8 -5 -9.5 -8 q-1.5 -3 -1.5 -8 q0 -15 0 -33 q0 -18 0.5 -35 q0.5 -17 1.5 -30.5 q1 -13.5 2 -18.5 q1 -10 8 -10 q6 0 8 17 q2 26 9.5 48.5 q7.5 22.5 25.5 44.5 q12 15 36.5 27 q24.5 12 61.5 12 ZM224 -17 q23 0 37.5 15.5 q14.5 15.5 14.5 38.5 q0 22 -14.5 35 q-14.5 13 -36.5 13 q-27 0 -39 -17.5 q-12 -17.5 -12 -33.5 q0 -17 12 -34 q12 -17 38 -17 Z" /><glyph glyph-name="at" unicode="@" d="M840 391 q0 62 -20 114 q-20 52 -60 89.5 q-40 37.5 -101 58.5 q-61 21 -143 21 q-61 0 -117.5 -17 q-56.5 -17 -106.5 -47.5 q-50 -30.5 -91.5 -72.5 q-41.5 -42 -71.5 -92.5 q-30 -50.5 -46.5 -108 q-16.5 -57.5 -16.5 -117.5 q0 -84 26.5 -145.5 q26.5 -61.5 72 -102 q45.5 -40.5 105.5 -60 q60 -19.5 127 -19.5 q50 0 95.5 9.5 q45.5 9.5 83.5 25 q38 15.5 67.5 35 q29.5 19.5 49.5 38.5 q11 11 14.5 17.5 q3.5 6.5 1.5 9.5 q-2 4 -8.5 3.5 q-6.5 -0.5 -18.5 -10.5 q-25 -20 -50.5 -37 q-25.5 -17 -56 -29 q-30.5 -12 -68.5 -18.5 q-38 -6.5 -88 -6.5 q-63 0 -115.5 20 q-52.5 20 -90.5 58.5 q-38 38.5 -59 93.5 q-21 55 -21 126 q0 89 26 166 q26 77 74.5 134 q48.5 57 118 89.5 q69.5 32.5 157.5 32.5 q70 0 123.5 -20.5 q53.5 -20.5 89.5 -55.5 q36 -35 54 -83 q18 -48 18 -102 q0 -57 -13.5 -103.5 q-13.5 -46.5 -35 -78.5 q-21.5 -32 -50 -49.5 q-28.5 -17.5 -58.5 -17.5 q-26 0 -39.5 11.5 q-13.5 11.5 -19.5 31 q-6 19.5 -6 43.5 q0 25 2 52 q1 15 3.5 35.5 q2.5 20.5 6.5 42 q4 21.5 8 41.5 q4 20 8 34 q9 32 21 53 q12 21 16 27 q2 5 -0.5 9 q-2.5 4 -7.5 2 q-7 -2 -16 -7.5 q-9 -5.5 -17 -12 q-8 -6.5 -15 -13 q-7 -6.5 -10 -10.5 q-7 3 -20 7.5 q-13 4.5 -36 4.5 q-24 0 -60 -15.5 q-36 -15.5 -69 -40.5 q-11 -8 -31 -26.5 q-20 -18.5 -39.5 -47.5 q-19.5 -29 -34 -70 q-14.5 -41 -14.5 -94 q0 -39 15.5 -67 q15.5 -28 37.5 -28 q32 0 82 36.5 q50 36.5 100 111.5 l3 -1 q-1 -20 -1.5 -33.5 q-0.5 -13.5 0.5 -25 q1 -11.5 2.5 -21 q1.5 -9.5 4.5 -20.5 q7 -24 27 -37.5 q20 -13.5 43 -13.5 q62 0 125 42 q63 42 98.5 108 q35.5 66 35.5 144 ZM545 437 q-7 -21 -12 -37 q-5 -16 -8.5 -31 q-3.5 -15 -7.5 -31.5 q-4 -16.5 -8 -38.5 q-13 -22 -32.5 -46.5 q-19.5 -24.5 -40 -45.5 q-20.5 -21 -40 -35 q-19.5 -14 -32.5 -14 q-6 0 -10.5 6 q-4.5 6 -7.5 15 q-3 9 -4.5 20 q-1.5 11 -1.5 20 q0 33 8 71.5 q8 38.5 22 72.5 q21 48 49 70 q28 22 65 22 q16 0 34.5 -6.5 q18.5 -6.5 26.5 -11.5 Z" /><glyph glyph-name="A" unicode="a" d="M95 107 q-14 -38 -31.5 -63.5 q-17.5 -25.5 -52.5 -30.5 q-6 -1 -15 -1.5 q-9 -0.5 -14 -0.5 q-9 0 -9 -6 q0 -8 19 -8 q18 0 36 0.5 q18 0.5 34 1 q16 0.5 27.5 1 q11.5 0.5 15.5 0.5 q4 0 13.5 -0.5 q9.5 -0.5 20.5 -1 q11 -0.5 23 -1 q12 -0.5 21 -0.5 q15 0 15 8 q0 6 -10 6 l-10 0 q-13 0 -25.5 7 q-12.5 7 -12.5 22 q0 28 14 67 l60 177 q3 8 10 8 l215 0 q6 0 9 -6 l93 -246 q5 -12 2 -18.5 q-3 -6.5 -8 -8.5 q-7 -2 -7 -7 q0 -5 8 -5.5 q8 -0.5 22 -1.5 q26 -1 51.5 -1.5 q25.5 -0.5 46.5 -0.5 q22 0 37 0 q16 0 22 0 q8 0 14 1.5 q6 1.5 6 6.5 q0 6 -10 6 q-8 0 -18.5 1 q-10.5 1 -21.5 5 q-8 2 -17.5 7 q-9.5 5 -20 17 q-10.5 12 -23 33 q-12.5 21 -25.5 54 q-15 38 -37.5 95 q-22.5 57 -47 120.5 q-24.5 63.5 -49.5 128.5 q-25 65 -45.5 119.5 q-20.5 54.5 -35 92.5 q-14.5 38 -18.5 47 q-9 23 -13 29.5 q-4 6.5 -9 6.5 q-5 0 -9 -7 q-4 -7 -13 -32 l-227 -621 ZM235 328 q-6 0 -3 7 l88 270 q7 22 15 0 l95 -270 q2 -7 -4 -7 l-191 0 Z" /><glyph glyph-name="B" unicode="b" d="M178 287 q0 -72 -0.5 -128.5 q-0.5 -56.5 -4.5 -88.5 q-3 -22 -8.5 -37 q-5.5 -15 -20.5 -18 q-7 -2 -15 -3 q-8 -1 -15 -1 q-8 0 -8 -6 q0 -8 16 -8 q11 0 27 1 q16 1 31 1 q16 1 27 1 q11 0 13 0 q3 0 21 -0.5 q18 -0.5 40 -2.5 q22 -1 43 -2 q21 -1 29 -1 q64 0 112 19 q48 19 79.5 50 q31.5 31 47.5 70 q16 39 16 79 q0 44 -16.5 79 q-16.5 35 -42 61.5 q-25.5 26.5 -56 44 q-30.5 17.5 -58.5 26.5 q18 18 34.5 37 q16.5 19 30 40.5 q13.5 21.5 21.5 46.5 q8 25 8 56 q0 19 -8 44.5 q-8 25.5 -30.5 49 q-22.5 23.5 -61.5 40 q-39 16.5 -100 16.5 q-35 0 -63 -1.5 q-28 -1.5 -46 -1.5 q-2 0 -13.5 0.5 q-11.5 0.5 -28 1 q-16.5 0.5 -35.5 1 q-19 0.5 -36 0.5 q-16 0 -16 -8 q0 -6 8 -6 q7 0 17.5 -0.5 q10.5 -0.5 16.5 -2.5 q25 -5 33 -18 q8 -13 10 -39 q1 -12 1.5 -25.5 q0.5 -13.5 0.5 -36.5 q0 -22 0 -59 q0 -37 0 -95 l0 -176 ZM258 709 q0 8 12 11 q12 3 26 4 q14 1 22 1 q37 0 62.5 -15 q25.5 -15 41.5 -39.5 q16 -24.5 23.5 -55.5 q7.5 -31 7.5 -62 q0 -31 -10 -57 q-10 -26 -26 -44 q-8 -9 -15.5 -14 q-7.5 -5 -17 -8 q-9.5 -3 -23.5 -3.5 q-14 -0.5 -35 -0.5 q-28 0 -42 1.5 q-14 1.5 -19 2.5 q-7 3 -7 11 l0 268 ZM258 392 q0 7 6 7 q6 0 17 0 q11 0 23 0 q12 0 22.5 -0.5 q10.5 -0.5 15.5 -1.5 q18 -2 37.5 -7 q19.5 -5 45.5 -22 q29 -20 47.5 -45 q18.5 -25 29.5 -52 q11 -27 15.5 -54 q4.5 -27 4.5 -49 q0 -42 -14.5 -69.5 q-14.5 -27.5 -36 -43.5 q-21.5 -16 -46 -22.5 q-24.5 -6.5 -44.5 -6.5 q-7 0 -17.5 0.5 q-10.5 0.5 -23 2 q-12.5 1.5 -25 4.5 q-12.5 3 -22.5 8 q-12 6 -18 12 q-6 6 -9.5 14.5 q-3.5 8.5 -4.5 21 q-1 12.5 -2 30.5 q0 6 -0.5 29.5 q-0.5 23.5 -0.5 55.5 q0 32 0 67 q0 35 0 64 l0 57 Z" /><glyph glyph-name="C" unicode="c" d="M515 -17 q24 0 49.5 1.5 q25.5 1.5 49.5 4 q24 2.5 45 7 q21 4.5 36 10.5 q14 6 17.5 10.5 q3.5 4.5 8.5 18.5 q4 13 8 33.5 q4 20.5 7 40.5 q3 20 5 35.5 q2 15.5 2 18.5 q0 6 -1.5 10.5 q-1.5 4.5 -5.5 4.5 q-7 0 -10 -15 q-2 -14 -11.5 -40.5 q-9.5 -26.5 -25.5 -43.5 q-30 -31 -73.5 -40.5 q-43.5 -9.5 -100.5 -9.5 q-80 0 -146.5 30.5 q-66.5 30.5 -114 81 q-47.5 50.5 -74 116.5 q-26.5 66 -26.5 138 q0 77 17.5 142.5 q17.5 65.5 72.5 118.5 q13 13 32 26 q19 13 46.5 23.5 q27.5 10.5 64.5 17 q37 6.5 87 6.5 q66 0 120 -17 q54 -17 80 -40 q20 -17 31 -45 q11 -28 11 -57 q0 -21 8 -21 q8 0 9 21 q0 6 0.5 18 q0.5 12 0.5 27 q0 15 0.5 30.5 q0.5 15.5 1.5 27.5 q2 27 3.5 38.5 q1.5 11.5 1.5 17.5 q0 5 -2.5 7.5 q-2.5 2.5 -10.5 3.5 q-24 2 -48.5 6 q-24.5 4 -53.5 9 q-37 7 -76 9.5 q-39 2.5 -69 2.5 q-58 0 -104.5 -8.5 q-46.5 -8.5 -83.5 -22.5 q-37 -14 -66 -34 q-29 -20 -51 -42 q-33 -33 -55 -70.5 q-22 -37.5 -34.5 -74 q-12.5 -36.5 -17.5 -70 q-5 -33.5 -5 -58.5 q0 -36 5.5 -74.5 q5.5 -38.5 19 -76.5 q13.5 -38 37 -75 q23.5 -37 59.5 -70 q60 -54 138.5 -81 q78.5 -27 191.5 -27 Z" /><glyph glyph-name="D" unicode="d" d="M178 287 q0 -72 -0.5 -128.5 q-0.5 -56.5 -4.5 -88.5 q-3 -22 -8.5 -37 q-5.5 -15 -20.5 -18 q-7 -2 -15 -3 q-8 -1 -15 -1 q-8 0 -8 -6 q0 -8 16 -8 q11 0 27 1 q16 1 31 1 q16 1 27 1 q11 0 13 0 q4 0 27 -2 q23 -2 56 -4 q32 -2 69.5 -4 q37.5 -2 69.5 -2 q64 0 113 11.5 q49 11.5 86 29 q37 17.5 62.5 37.5 q25.5 20 41.5 37 q21 22 40.5 51 q19.5 29 34.5 64.5 q15 35.5 24 77.5 q9 42 9 89 q0 45 -8 83 q-8 38 -21.5 69.5 q-13.5 31.5 -31 56.5 q-17.5 25 -36.5 45 q-45 46 -99 69.5 q-54 23.5 -109 33.5 q-55 10 -105.5 10.5 q-50.5 0.5 -87.5 0.5 q-23 0 -45 -0.5 q-22 -0.5 -40.5 -1 q-18.5 -0.5 -32 -1 q-13.5 -0.5 -17.5 -0.5 q-2 0 -13.5 0.5 q-11.5 0.5 -28 1 q-16.5 0.5 -35.5 1 q-19 0.5 -36 0.5 q-16 0 -16 -8 q0 -6 8 -6 q7 0 17.5 -0.5 q10.5 -0.5 16.5 -2.5 q25 -5 33 -18 q8 -13 10 -39 q1 -12 1.5 -25.5 q0.5 -13.5 0.5 -36.5 q0 -22 0 -59 q0 -37 0 -95 l0 -176 ZM262 479 q0 29 0 61 q0 32 0 61 q0 30 0.5 54 q0.5 24 0.5 37 q0 15 12 20 q3 1 10.5 2.5 q7.5 1.5 17.5 2.5 q10 1 19.5 1.5 q9.5 0.5 17.5 0.5 q45 0 88.5 -3.5 q43.5 -3.5 84.5 -15.5 q41 -12 80 -34.5 q39 -22.5 74 -59.5 q15 -16 32 -39.5 q17 -23.5 31.5 -55 q14.5 -31.5 23.5 -70.5 q9 -39 9 -87 q0 -35 -5 -69 q-5 -34 -15.5 -65.5 q-10.5 -31.5 -25.5 -58.5 q-15 -27 -34 -46 q-45 -45 -106.5 -69 q-61.5 -24 -131.5 -24 q-44 0 -74.5 3.5 q-30.5 3.5 -50 9.5 q-19.5 6 -30 13 q-10.5 7 -15.5 14 q-3 4 -5 13 q-2 9 -3 20 q-1 11 -2 22.5 q-1 11.5 -1 20.5 q0 7 -0.5 27 q-0.5 20 -1 49 q-0.5 29 -0.5 65 q0 36 0 76 l0 124 Z" /><glyph glyph-name="E" unicode="e" d="M178 287 q0 -72 -0.5 -128.5 q-0.5 -56.5 -4.5 -88.5 q-3 -22 -8.5 -37 q-5.5 -15 -20.5 -18 q-7 -2 -15 -3 q-8 -1 -15 -1 q-8 0 -8 -6 q0 -8 16 -8 q11 0 27 1 q16 1 31 1 q16 1 27 1 q11 0 13 0 q11 0 30 -0.5 q19 -0.5 48 -2.5 q29 -1 70.5 -2 q41.5 -1 98.5 -1 q15 0 24 0.5 q9 0.5 15 3 q6 2.5 9 7.5 q3 5 6 15 q2 8 4 23 q2 15 4 30.5 q2 15.5 3.5 28 q1.5 12.5 1.5 15.5 q0 5 -0.5 10 q-0.5 5 -5.5 5 q-6 0 -9 -15 q-5 -31 -15 -47.5 q-10 -16.5 -30 -24.5 q-20 -8 -48 -9.5 q-28 -1.5 -48 -1.5 q-37 0 -59 3 q-22 3 -34.5 12 q-12.5 9 -17 25 q-4.5 16 -5.5 42 q0 8 0 31 q0 23 0 50 q0 27 0 52 q0 25 0 38 l0 88 q0 7 7 7 q6 0 25.5 -0.5 q19.5 -0.5 42 -1 q22.5 -0.5 44 -1.5 q21.5 -1 31.5 -2 q29 -3 39 -13.5 q10 -10.5 13 -21.5 q3 -10 3.5 -17.5 q0.5 -7.5 0.5 -15.5 q0 -9 7 -9 q5 0 6 6.5 q1 6.5 1 12.5 q0 3 0.5 10.5 q0.5 7.5 1 17 q0.5 9.5 1 19 q0.5 9.5 1.5 17.5 q2 25 5 38 q3 13 3 18 q0 8 -5 8 q-4 0 -15 -13 q-7 -8 -18 -10 q-11 -2 -29 -4 q-9 -1 -33 -1.5 q-24 -0.5 -51 -0.5 q-26 0 -48 0 q-22 0 -27 0 q-6 0 -6 10 l0 276 q0 10 6 10 q4 0 23 0 q20 0 43 -0.5 q23 -0.5 44 -1 q21 -0.5 27 -1.5 q40 -5 53 -13.5 q13 -8.5 18 -20.5 q4 -9 5 -20 q1 -11 1 -16 q0 -13 8 -13 q3 0 4.5 3.5 q1.5 3.5 2.5 7.5 q1 4 1.5 13.5 q0.5 9.5 1.5 20 q1 10.5 1.5 19.5 q0.5 9 0.5 13 q2 21 5 31.5 q3 10.5 3 15.5 q0 9 -4 9 q-4 0 -7 -2 q-3 -2 -7 -3 q-14 -3 -43 -5 q-9 0 -44.5 -0.5 q-35.5 -0.5 -76.5 -0.5 q-40 0 -73 0 q-32 0 -35 0 l-41 2 q-17 1 -36 1 q-19 0 -36 0 q-16 0 -16 -8 q0 -6 8 -6 q7 0 17.5 -0.5 q10.5 -0.5 16.5 -2.5 q25 -5 33 -18 q8 -13 10 -39 q1 -12 1.5 -25.5 q0.5 -13.5 0.5 -36.5 q0 -22 0 -59 q0 -37 0 -95 l0 -176 Z" /><glyph glyph-name="F" unicode="f" d="M178 287 q0 -72 -0.5 -128.5 q-0.5 -56.5 -4.5 -88.5 q-3 -22 -8.5 -37 q-5.5 -15 -20.5 -18 q-7 -2 -15 -3 q-8 -1 -15 -1 q-8 0 -8 -6 q0 -8 16 -8 q11 0 27 0.5 q16 0.5 31 1 q15 0.5 26.5 1 q11.5 0.5 13.5 0.5 q2 0 13.5 -0.5 q11.5 -0.5 29 -1 q17.5 -0.5 38.5 -1 q21 -0.5 42 -0.5 q16 0 16 8 q0 6 -8 6 q-7 0 -20.5 1 q-13.5 1 -24.5 3 q-23 3 -30 18 q-7 15 -9 37 q-4 32 -4.5 88.5 q-0.5 56.5 -0.5 128.5 l0 85 q0 9 7 9 q6 0 27 0 q21 0 45.5 -0.5 q24.5 -0.5 47 -1 q22.5 -0.5 31.5 -1.5 q23 -3 35.5 -14 q12.5 -11 16.5 -22 q3 -9 4 -18.5 q1 -9.5 2 -17.5 q0 -9 7 -9 q5 0 6 6 q1 6 1 13 q0 3 0.5 11 q0.5 8 1 18 q0.5 10 1 20 q0.5 10 1.5 18 q2 25 5 38 q3 13 3 18 q0 8 -5 8 q-3 0 -5.5 -3 q-2.5 -3 -5.5 -7 q-7 -10 -17.5 -13 q-10.5 -3 -28.5 -5 q-11 -1 -22 -1 q-10 0 -23 0 l-128 -1 q-7 0 -7 9 l0 276 q0 11 9 11 l154 -3 q29 -1 46 -11.5 q17 -10.5 22 -20.5 q5 -10 7 -21 q2 -11 2 -17 q0 -12 7 -12 q4 0 5.5 3.5 q1.5 3.5 2.5 7.5 q1 4 1.5 13.5 q0.5 9.5 1.5 20 q1 10.5 1.5 19.5 q0.5 9 0.5 13 q2 21 5 31.5 q3 10.5 3 15.5 q0 9 -6 9 q-3 0 -6 -2 q-3 -2 -8 -4 q-7 -2 -18.5 -2.5 q-11.5 -0.5 -25.5 -1.5 q-6 0 -25 -0.5 q-19 -0.5 -45 -0.5 q-25 0 -54 0 q-29 0 -55 0 q-25 0 -44 0 q-18 0 -23 0 l-41 2 q-17 1 -36 1 q-19 0 -36 0 q-16 0 -16 -8 q0 -6 8 -6 q7 0 17.5 -0.5 q10.5 -0.5 16.5 -2.5 q25 -5 33 -18 q8 -13 10 -39 q1 -12 1.5 -25.5 q0.5 -13.5 0.5 -36.5 q0 -22 0 -59 q0 -37 0 -95 l0 -176 Z" /><glyph glyph-name="G" unicode="g" d="M653 82 q0 -24 -20 -35 q-10 -6 -24 -10 q-14 -4 -29.5 -6.5 q-15.5 -2.5 -31.5 -3.5 q-16 -1 -29 -1 q-69 0 -135.5 24.5 q-66.5 24.5 -126.5 82.5 q-13 13 -31.5 38 q-18.5 25 -35 60.5 q-16.5 35.5 -28 80.5 q-11.5 45 -11.5 98 q0 88 27.5 153.5 q27.5 65.5 71.5 100.5 q28 22 56.5 35.5 q28.5 13.5 55.5 20 q27 6.5 52.5 8.5 q25.5 2 49.5 2 q48 0 87.5 -7.5 q39.5 -7.5 69 -19 q29.5 -11.5 49.5 -26 q20 -14.5 29 -28.5 q11 -18 15.5 -36.5 q4.5 -18.5 5.5 -29.5 q2 -15 7 -15 q5 0 7 4.5 q2 4.5 2 16.5 q0 37 1 62 q1 25 2.5 41 q1.5 16 2.5 25 q1 9 1 14 q0 3 -2 5.5 q-2 2.5 -10 3.5 q-19 1 -42 3.5 q-23 2.5 -39 6.5 q-7 1 -23 4 q-16 3 -37 6 q-21 3 -45 5 q-24 2 -48 2 q-29 0 -61.5 -2 q-32.5 -2 -66.5 -8.5 q-34 -6.5 -69 -19 q-35 -12.5 -69 -33.5 q-33 -21 -63.5 -52.5 q-30.5 -31.5 -53.5 -73 q-23 -41.5 -36.5 -92.5 q-13.5 -51 -13.5 -111 q0 -47 10 -90 q10 -43 26.5 -79.5 q16.5 -36.5 38 -66 q21.5 -29.5 44.5 -49.5 q42 -36 87.5 -57.5 q45.5 -21.5 90 -32.5 q44.5 -11 83.5 -14 q39 -3 68 -3 q22 0 48.5 2 q26.5 2 55 7.5 q28.5 5.5 56.5 14 q28 8.5 52 21.5 q4 3 7 5 q3 2 4 7.5 q1 5.5 1.5 15 q0.5 9.5 0.5 26.5 l0 112 q0 32 0 56 q0 24 2 48 q2 26 9.5 39.5 q7.5 13.5 27.5 17.5 q9 2 14.5 2.5 q5.5 0.5 10.5 0.5 q8 0 8 6 q0 8 -16 8 q-11 0 -27 -0.5 q-16 -0.5 -31 -1 q-15 -0.5 -26.5 -1 q-11.5 -0.5 -13.5 -0.5 q-2 0 -13.5 0.5 q-11.5 0.5 -28 1 q-16.5 0.5 -35.5 1 q-19 0.5 -36 0.5 q-16 0 -16 -8 q0 -6 8 -6 q7 0 17.5 -0.5 q10.5 -0.5 16.5 -2.5 q15 -4 24 -9.5 q9 -5.5 13.5 -16 q4.5 -10.5 6 -29 q1.5 -18.5 1.5 -48.5 l0 -170 Z" /><glyph glyph-name="H" unicode="h" d="M782 463 q0 58 0 95 q0 37 0 59 q0 23 0.5 36.5 q0.5 13.5 1.5 25.5 q2 26 9.5 39.5 q7.5 13.5 27.5 17.5 q9 2 14.5 2.5 q5.5 0.5 10.5 0.5 q8 0 8 6 q0 8 -16 8 q-11 0 -27 -0.5 q-16 -0.5 -31 -1 q-15 -0.5 -26.5 -1 q-11.5 -0.5 -13.5 -0.5 q-2 0 -13.5 0.5 q-11.5 0.5 -28 1 q-16.5 0.5 -35.5 1 q-19 0.5 -36 0.5 q-16 0 -16 -8 q0 -6 8 -6 q7 0 17.5 -0.5 q10.5 -0.5 16.5 -2.5 q25 -5 33 -18 q8 -13 10 -39 q1 -12 1.5 -25.5 q0.5 -13.5 0.5 -36.5 q0 -22 0 -59 q0 -37 0 -95 l0 -21 q0 -6 -6 -6 l-424 0 q-6 0 -6 6 l0 21 q0 58 0 95 q0 37 0 59 q0 23 0.5 36.5 q0.5 13.5 1.5 25.5 q2 26 9.5 39.5 q7.5 13.5 27.5 17.5 q9 2 14.5 2.5 q5.5 0.5 10.5 0.5 q8 0 8 6 q0 8 -16 8 q-11 0 -27 -0.5 q-16 -0.5 -31 -1 q-15 -0.5 -26.5 -1 q-11.5 -0.5 -13.5 -0.5 q-2 0 -13.5 0.5 q-11.5 0.5 -28 1 q-16.5 0.5 -35.5 1 q-19 0.5 -36 0.5 q-16 0 -16 -8 q0 -6 8 -6 q7 0 17.5 -0.5 q10.5 -0.5 16.5 -2.5 q25 -5 33 -18 q8 -13 10 -39 q1 -12 1.5 -25.5 q0.5 -13.5 0.5 -36.5 q0 -22 0 -59 q0 -37 0 -95 l0 -176 q0 -72 -0.5 -128.5 q-0.5 -56.5 -4.5 -88.5 q-3 -22 -8.5 -37 q-5.5 -15 -20.5 -18 q-7 -2 -15 -3 q-8 -1 -15 -1 q-8 0 -8 -6 q0 -8 16 -8 q11 0 27 0.5 q16 0.5 31 1 q15 0.5 26.5 1 q11.5 0.5 13.5 0.5 q2 0 13.5 -0.5 q11.5 -0.5 29 -1 q17.5 -0.5 38.5 -1 q21 -0.5 42 -0.5 q16 0 16 8 q0 6 -8 6 q-7 0 -20.5 1 q-13.5 1 -24.5 3 q-23 3 -30 18 q-7 15 -9 37 q-4 32 -4.5 88.5 q-0.5 56.5 -0.5 128.5 l0 105 q0 6 6 6 l424 0 q6 0 6 -6 l0 -105 q0 -72 -0.5 -128.5 q-0.5 -56.5 -4.5 -88.5 q-3 -22 -8.5 -37 q-5.5 -15 -20.5 -18 q-7 -2 -15 -3 q-8 -1 -15 -1 q-8 0 -8 -6 q0 -8 16 -8 q11 0 27 0.5 q16 0.5 31 1 q15 0.5 26.5 1 q11.5 0.5 13.5 0.5 q2 0 13.5 -0.5 q11.5 -0.5 29 -1 q17.5 -0.5 38.5 -1 q21 -0.5 42 -0.5 q16 0 16 8 q0 6 -8 6 q-7 0 -20.5 1 q-13.5 1 -24.5 3 q-23 3 -30 18 q-7 15 -9 37 q-4 32 -4.5 88.5 q-0.5 56.5 -0.5 128.5 l0 176 Z" /><glyph glyph-name="I" unicode="i" d="M262 463 q0 58 0 95 q0 37 0 59 q0 23 0.5 36.5 q0.5 13.5 1.5 25.5 q2 26 9.5 39.5 q7.5 13.5 27.5 17.5 q9 2 14.5 2.5 q5.5 0.5 10.5 0.5 q8 0 8 6 q0 8 -16 8 q-11 0 -27 -0.5 q-16 -0.5 -31 -1 q-15 -0.5 -26.5 -1 q-11.5 -0.5 -13.5 -0.5 q-2 0 -13.5 0.5 q-11.5 0.5 -26.5 1 q-15 0.5 -32 1 q-17 0.5 -29 0.5 q-16 0 -16 -8 q0 -6 8 -6 q5 0 14 -1 q9 -1 17 -3 q31 -7 34 -56 q1 -12 1.5 -25.5 q0.5 -13.5 0.5 -36.5 q0 -22 0 -59 q0 -37 0 -95 l0 -176 q0 -72 -0.5 -128.5 q-0.5 -56.5 -4.5 -88.5 q-3 -22 -8.5 -37 q-5.5 -15 -20.5 -18 q-7 -2 -15 -3 q-8 -1 -15 -1 q-8 0 -8 -6 q0 -8 16 -8 q11 0 27 0.5 q16 0.5 31 1 q15 0.5 26.5 1 q11.5 0.5 13.5 0.5 q2 0 13.5 -0.5 q11.5 -0.5 29 -1 q17.5 -0.5 38.5 -1 q21 -0.5 42 -0.5 q16 0 16 8 q0 6 -8 6 q-7 0 -20.5 1 q-13.5 1 -24.5 3 q-23 3 -30 18 q-7 15 -9 37 q-4 32 -4.5 88.5 q-0.5 56.5 -0.5 128.5 l0 176 Z" /><glyph glyph-name="J" unicode="j" d="M262 463 q0 58 0 95 q0 37 0 59 q0 23 0.5 36.5 q0.5 13.5 1.5 25.5 q2 26 9.5 39.5 q7.5 13.5 27.5 17.5 q9 2 14.5 2.5 q5.5 0.5 10.5 0.5 q8 0 8 6 q0 8 -16 8 q-11 0 -27 -0.5 q-16 -0.5 -31 -1 q-15 -0.5 -26.5 -1 q-11.5 -0.5 -13.5 -0.5 q-2 0 -13.5 0.5 q-11.5 0.5 -28 1 q-16.5 0.5 -35.5 1 q-19 0.5 -36 0.5 q-16 0 -16 -8 q0 -6 8 -6 q7 0 17.5 -0.5 q10.5 -0.5 16.5 -2.5 q25 -5 33 -18 q8 -13 10 -39 q1 -12 1.5 -25.5 q0.5 -13.5 0.5 -36.5 q0 -22 0 -59 q0 -37 0 -95 l0 -289 q0 -97 -6 -158.5 q-6 -61.5 -18 -102 q-12 -40.5 -30 -66 q-18 -25.5 -42 -50.5 q-7 -7 -16.5 -15 q-9.5 -8 -18.5 -13 q-7 -5 -10.5 -7.5 q-3.5 -2.5 -3.5 -7.5 q0 -6 7 -6 q3 0 7 2 q8 4 18.5 11 q10.5 7 20.5 14 q61 42 95.5 78.5 q34.5 36.5 50.5 74.5 q11 27 17 53.5 q6 26.5 9 60 q3 33.5 3.5 77 q0.5 43.5 0.5 104.5 l0 240 Z" /><glyph glyph-name="K" unicode="k" d="M178 287 q0 -72 -0.5 -128.5 q-0.5 -56.5 -4.5 -88.5 q-3 -22 -8.5 -37 q-5.5 -15 -20.5 -18 q-7 -2 -15 -3 q-8 -1 -15 -1 q-8 0 -8 -6 q0 -8 16 -8 q11 0 26.5 0.5 q15.5 0.5 30 1 q14.5 0.5 25.5 1 q11 0.5 14 0.5 q3 0 14.5 -0.5 q11.5 -0.5 27.5 -1 q16 -0.5 35.5 -1 q19.5 -0.5 37.5 -0.5 q16 0 16 8 q0 6 -8 6 q-7 0 -17.5 1 q-10.5 1 -21.5 3 q-23 3 -30 18 q-7 15 -9 37 q-4 32 -4.5 88.5 q-0.5 56.5 -0.5 128.5 l0 98 l5 0 q12 -15 36 -42 q24 -27 54.5 -60 q30.5 -33 63.5 -68.5 q33 -35.5 62.5 -67 q29.5 -31.5 53.5 -55 q24 -23.5 35 -32.5 q16 -13 29.5 -23.5 q13.5 -10.5 27 -18 q13.5 -7.5 29 -12.5 q15.5 -5 35.5 -7 q17 -2 32 -2 q16 0 37 0 l51 0 q13 0 17.5 2 q4.5 2 4.5 6 q0 6 -13 6 q-5 0 -23.5 2.5 q-18.5 2.5 -38.5 10.5 q-18 7 -31.5 15 q-13.5 8 -29.5 20 q-16 12 -36.5 31 q-20.5 19 -51.5 48 q-10 9 -32.5 32 q-22.5 23 -51 51.5 q-28.5 28.5 -59.5 60.5 q-31 32 -58 60.5 q-27 28.5 -47.5 49.5 q-20.5 21 -26.5 28 q5 6 21.5 23 q16.5 17 39 39.5 q22.5 22.5 48 47.5 q25.5 25 48 47 q22.5 22 40 39 q17.5 17 23.5 23 q17 16 30 29 q13 13 25.5 23.5 q12.5 10.5 25 18.5 q12.5 8 27.5 15 q31 14 56 14 q10 0 10 7 q0 7 -15 7 q-9 0 -24.5 -0.5 q-15.5 -0.5 -31 -1 q-15.5 -0.5 -27 -1 q-11.5 -0.5 -13.5 -0.5 q-18 0 -39 1.5 q-21 1.5 -36 1.5 q-12 0 -12 -7 q0 -4 9 -8 q13 -5 13 -21 q0 -13 -16.5 -31.5 q-16.5 -18.5 -37.5 -40.5 q-9 -10 -28.5 -30.5 q-19.5 -20.5 -44 -45.5 q-24.5 -25 -51.5 -52.5 q-27 -27.5 -50 -51 q-23 -23.5 -39.5 -40.5 q-16.5 -17 -20.5 -22 l-4 0 l0 60 q0 58 0 95 q0 37 0 59 q0 23 0.5 36.5 q0.5 13.5 1.5 25.5 q2 26 9.5 39.5 q7.5 13.5 27.5 17.5 q9 2 14.5 2.5 q5.5 0.5 10.5 0.5 q8 0 8 6 q0 8 -16 8 q-11 0 -26.5 -0.5 q-15.5 -0.5 -30 -1 q-14.5 -0.5 -26 -1 q-11.5 -0.5 -14.5 -0.5 q-2 0 -13.5 0.5 q-11.5 0.5 -27 1 q-15.5 0.5 -34 1 q-18.5 0.5 -35.5 0.5 q-16 0 -16 -8 q0 -6 8 -6 q7 0 17.5 -0.5 q10.5 -0.5 16.5 -2.5 q25 -5 33 -18 q8 -13 10 -39 q1 -12 1.5 -25.5 q0.5 -13.5 0.5 -36.5 q0 -22 0 -59 q0 -37 0 -95 l0 -176 Z" /><glyph glyph-name="L" unicode="l" d="M262 463 q0 58 0 95 q0 37 0 59 q0 23 0.5 36.5 q0.5 13.5 1.5 25.5 q2 26 9.5 39.5 q7.5 13.5 29.5 17.5 q9 2 18.5 2.5 q9.5 0.5 14.5 0.5 q8 0 8 6 q0 8 -16 8 q-11 0 -28.5 -0.5 q-17.5 -0.5 -34.5 -1 q-17 -0.5 -30 -1 q-13 -0.5 -15 -0.5 q-2 0 -13.5 0.5 q-11.5 0.5 -28 1 q-16.5 0.5 -35.5 1 q-19 0.5 -36 0.5 q-16 0 -16 -8 q0 -6 8 -6 q7 0 17.5 -0.5 q10.5 -0.5 16.5 -2.5 q25 -5 33 -18 q8 -13 10 -39 q1 -12 1.5 -25.5 q0.5 -13.5 0.5 -36.5 q0 -22 0 -59 q0 -37 0 -95 l0 -176 q0 -72 -0.5 -128.5 q-0.5 -56.5 -4.5 -88.5 q-3 -22 -8.5 -37 q-5.5 -15 -20.5 -18 q-7 -2 -15 -3 q-8 -1 -15 -1 q-8 0 -8 -6 q0 -8 16 -8 q11 0 26.5 0.5 q15.5 0.5 30.5 1.5 q15 0 26.5 0.5 q11.5 0.5 14.5 0.5 q22 0 46 -0.5 q24 -0.5 56 -2.5 q32 -1 72 -2 q40 -1 94 -1 q20 0 31.5 1 q11.5 1 17.5 4 q6 3 8.5 8 q2.5 5 5.5 14 q3 11 5.5 26.5 q2.5 15.5 5 30.5 q2.5 15 3.5 27 q1 12 1 16 q0 15 -6 15 q-7 0 -9 -13 q-2 -14 -9 -31 q-7 -17 -17 -29 q-18 -22 -49.5 -26 q-31.5 -4 -71.5 -4 q-29 0 -49.5 1.5 q-20.5 1.5 -34 4 q-13.5 2.5 -22 7 q-8.5 4.5 -14.5 10.5 q-14 13 -18 66 q-4 53 -4 163 l0 178 Z" /><glyph glyph-name="M" unicode="m" d="M855 740 q-3 27 -12 27 q-8 0 -15 -16 l-294 -628 l-306 629 q-7 15 -15 15 q-9 0 -11 -18 l-72 -652 q-3 -29 -9 -53.5 q-6 -24.5 -31 -29.5 q-11 -2 -17.5 -2.5 q-6.5 -0.5 -12.5 -0.5 q-10 0 -10 -5 q0 -9 17 -9 q10 0 23 0.5 q13 0.5 25.5 1 q12.5 0.5 22.5 1 q10 0.5 13 0.5 q3 0 12.5 -0.5 q9.5 -0.5 23 -1 q13.5 -0.5 28.5 -1 q15 -0.5 29 -0.5 q18 0 18 9 q0 5 -8 5 q-5 0 -15 1 q-10 1 -23 4 q-11 2 -18.5 11 q-7.5 9 -7.5 20 q0 13 0 26 q0 13 1 25 l40 464 l4 0 q3 -7 13 -29.5 q10 -22.5 24 -52.5 q14 -30 29.5 -64 q15.5 -34 29.5 -63.5 q14 -29.5 24 -50.5 q10 -21 12 -25 q2 -4 17 -33.5 q15 -29.5 34 -67.5 q19 -38 37.5 -75.5 q18.5 -37.5 28.5 -55.5 q14 -27 20 -36.5 q6 -9.5 11 -9.5 q7 0 12 10 q5 10 21 43 l245 520 l3 0 l48 -516 q2 -14 1 -24.5 q-1 -10.5 -5 -11.5 q-7 -1 -7 -7 q0 -4 5.5 -6 q5.5 -2 22.5 -4 q14 -1 38.5 -2 q24.5 -1 50.5 -2 q26 -1 48 -1.5 q22 -0.5 30 -0.5 q9 0 15 2 q6 2 6 7 q0 5 -8 5 q-8 0 -25.5 1 q-17.5 1 -39.5 8 q-16 5 -26 17.5 q-10 12.5 -15.5 27.5 q-5.5 15 -8.5 31 q-3 16 -4 30 l-67 614 Z" /><glyph glyph-name="N" unicode="n" d="M192 612 q12 -14 38 -42.5 q26 -28.5 61 -67.5 q35 -39 76.5 -84.5 q41.5 -45.5 85.5 -92.5 q40 -43 84 -89 q44 -46 82 -85.5 q38 -39.5 64.5 -66 q26.5 -26.5 30.5 -30.5 q20 -20 32.5 -32.5 q12.5 -12.5 20.5 -19.5 q8 -7 12.5 -9.5 q4.5 -2.5 7.5 -2.5 q3 0 4.5 2 q1.5 2 2.5 9 q1 7 1.5 21 q0.5 14 0.5 39 l2 586 q0 45 6 64.5 q6 19.5 31 24.5 q9 2 14.5 2.5 q5.5 0.5 9.5 0.5 q11 0 11 7 q0 7 -18 7 q-31 0 -54 -1.5 q-23 -1.5 -31 -1.5 q-4 0 -14.5 0.5 q-10.5 0.5 -25 1 q-14.5 0.5 -31 1 q-16.5 0.5 -33.5 0.5 q-20 0 -20 -7 q0 -7 8 -7 q6 0 20.5 -1 q14.5 -1 28.5 -4 q23 -6 30.5 -26 q7.5 -20 8.5 -69 l11 -508 q-12 12 -37 39.5 q-25 27.5 -58 63.5 q-33 36 -70.5 77 q-37.5 41 -74.5 81 q-58 62 -112.5 121 q-54.5 59 -98.5 106 q-44 47 -72.5 78.5 q-28.5 31.5 -34.5 37.5 q-8 8 -18.5 20 q-10.5 12 -16.5 12 q-6 0 -8.5 -10.5 q-2.5 -10.5 -2.5 -39.5 l-1 -573 q0 -68 -5.5 -95 q-5.5 -27 -24.5 -32 q-11 -4 -23 -5 q-12 -1 -18 -1 q-8 0 -8 -6 q0 -8 16 -8 q34 0 61.5 1.5 q27.5 1.5 34.5 1.5 q7 0 35 -1.5 q28 -1.5 71 -1.5 q18 0 18 8 q0 6 -8 6 q-7 0 -21.5 1 q-14.5 1 -28.5 5 q-10 3 -17 10 q-7 7 -11.5 20.5 q-4.5 13.5 -7 34 q-2.5 20.5 -3.5 51.5 l-13 479 Z" /><glyph glyph-name="O" unicode="o" d="M64 376 q0 -68 22 -137.5 q22 -69.5 69 -126.5 q47 -57 120.5 -93 q73.5 -36 176.5 -36 q90 0 164 32.5 q74 32.5 126 88 q52 55.5 80.5 130 q28.5 74.5 28.5 158.5 q0 87 -30 156.5 q-30 69.5 -82.5 118 q-52.5 48.5 -124.5 74.5 q-72 26 -156 26 q-69 0 -125 -17.5 q-56 -17.5 -100 -47.5 q-44 -30 -75.5 -69.5 q-31.5 -39.5 -52.5 -83 q-21 -43.5 -31 -88.5 q-10 -45 -10 -85 ZM159 404 q0 82 22 143.5 q22 61.5 61 103 q39 41.5 92.5 62 q53.5 20.5 116.5 20.5 q59 0 114 -24 q55 -24 97 -70.5 q42 -46.5 67.5 -115.5 q25.5 -69 25.5 -159 q0 -109 -30.5 -176.5 q-30.5 -67.5 -74 -104.5 q-43.5 -37 -90.5 -49.5 q-47 -12.5 -81 -12.5 q-68 0 -126 27 q-58 27 -101.5 77 q-43.5 50 -68 121 q-24.5 71 -24.5 158 Z" /><glyph glyph-name="P" unicode="p" d="M178 287 q0 -72 -0.5 -128.5 q-0.5 -56.5 -4.5 -88.5 q-3 -22 -8.5 -37 q-5.5 -15 -20.5 -18 q-7 -2 -15 -3 q-8 -1 -15 -1 q-8 0 -8 -6 q0 -8 16 -8 q11 0 27 0.5 q16 0.5 31 1 q15 0.5 26 1 q11 0.5 12 0.5 q2 0 13.5 -0.5 q11.5 -0.5 29 -1 q17.5 -0.5 38.5 -1 q21 -0.5 42 -0.5 q16 0 16 8 q0 6 -8 6 q-7 0 -20.5 1 q-13.5 1 -24.5 3 q-23 3 -30 18 q-7 15 -9 37 q-4 32 -4.5 88.5 q-0.5 56.5 -0.5 128.5 l0 411 q0 16 8 19 q7 3 18.5 4.5 q11.5 1.5 24.5 1.5 q9 0 24 0 q15 0 33.5 -4.5 q18.5 -4.5 39 -15 q20.5 -10.5 40.5 -30.5 q20 -20 31 -42 q11 -22 16.5 -43 q5.5 -21 7 -39 q1.5 -18 1.5 -30 q0 -35 -13.5 -64.5 q-13.5 -29.5 -36.5 -51.5 q-23 -22 -55 -34.5 q-32 -12.5 -68 -12.5 q-16 0 -21.5 -1.5 q-5.5 -1.5 -5.5 -7.5 q0 -4 3.5 -5.5 q3.5 -1.5 7.5 -1.5 q4 -1 10 -1 q7 0 11 0 q53 0 98 17 q45 17 78 48.5 q33 31.5 51.5 75.5 q18.5 44 18.5 97 q0 40 -16.5 71.5 q-16.5 31.5 -33.5 47.5 q-6 6 -18 15.5 q-12 9.5 -34 18.5 q-22 9 -54.5 16 q-32.5 7 -79.5 7 q-35 0 -72 -1.5 q-37 -1.5 -54 -1.5 q-3 0 -14.5 0.5 q-11.5 0.5 -28 1 q-16.5 0.5 -35 1 q-18.5 0.5 -35.5 0.5 q-16 0 -16 -8 q0 -6 8 -6 q7 0 17.5 -0.5 q10.5 -0.5 16.5 -2.5 q25 -5 33 -18 q8 -13 10 -39 q1 -12 1.5 -25.5 q0.5 -13.5 0.5 -36.5 q0 -22 0 -59 q0 -37 0 -95 l0 -176 Z" /><glyph glyph-name="Q" unicode="q" d="M780 -76 q122 -68 221.5 -101 q99.5 -33 190.5 -33 q55 0 103.5 7 q48.5 7 89 17.5 q40.5 10.5 72 22.5 q31.5 12 52.5 22 q8 4 8 10 q0 6 -6 6 q-2 0 -5.5 -1 q-3.5 -1 -8.5 -3 q-52 -21 -105.5 -30 q-53.5 -9 -91.5 -9 q-19 0 -56 2.5 q-37 2.5 -91 14 q-54 11.5 -123 35.5 q-69 24 -151 66 l-205 106 q25 16 55.5 46 q30.5 30 57.5 72.5 q27 42.5 45.5 97 q18.5 54.5 18.5 120.5 q0 87 -30 156.5 q-30 69.5 -82.5 118 q-52.5 48.5 -124.5 74.5 q-72 26 -156 26 q-69 0 -125 -17.5 q-56 -17.5 -100 -47.5 q-44 -30 -75.5 -69.5 q-31.5 -39.5 -52.5 -83 q-21 -43.5 -31 -88.5 q-10 -45 -10 -85 q0 -68 22 -137.5 q22 -69.5 69.5 -126.5 q47.5 -57 121.5 -93 q74 -36 178 -36 q20 0 42 2.5 q22 2.5 43 7 q21 4.5 39.5 11 q18.5 6.5 32.5 13.5 l168 -93 ZM159 404 q0 82 22 143.5 q22 61.5 61 103 q39 41.5 92.5 62 q53.5 20.5 116.5 20.5 q59 0 114 -24 q55 -24 97 -70.5 q42 -46.5 67.5 -115.5 q25.5 -69 25.5 -159 q0 -109 -30.5 -176.5 q-30.5 -67.5 -74 -104.5 q-43.5 -37 -90.5 -49.5 q-47 -12.5 -81 -12.5 q-68 0 -126 27 q-58 27 -101.5 77 q-43.5 50 -68 121 q-24.5 71 -24.5 158 Z" /><glyph glyph-name="R" unicode="r" d="M178 287 q0 -72 -0.5 -128.5 q-0.5 -56.5 -4.5 -88.5 q-3 -22 -8.5 -37 q-5.5 -15 -20.5 -18 q-7 -2 -15 -3 q-8 -1 -15 -1 q-8 0 -8 -6 q0 -8 16 -8 q11 0 27 0.5 q16 0.5 31 1 q15 0.5 25.5 1 q10.5 0.5 10.5 0.5 q2 0 13.5 -0.5 q11.5 -0.5 29 -1 q17.5 -0.5 38.5 -1 q21 -0.5 42 -0.5 q16 0 16 8 q0 6 -8 6 q-7 0 -20.5 1 q-13.5 1 -24.5 3 q-23 3 -30 18 q-7 15 -9 37 q-4 32 -4.5 88.5 q-0.5 56.5 -0.5 128.5 l0 24 q0 8 7 8 l123 -2 q7 0 13 -6 q7 -10 19.5 -26.5 q12.5 -16.5 27 -36.5 q14.5 -20 30.5 -42 q16 -22 32 -43 q43 -57 73 -93.5 q30 -36.5 62 -53.5 q19 -11 42 -15 q23 -4 65 -4 l71 0 q14 0 19 1.5 q5 1.5 5 6.5 q0 6 -9 6 q-5 0 -15 0.5 q-10 0.5 -24 2.5 q-19 3 -50 16 q-31 13 -72 56 q-44 47 -95 112 q-51 65 -113 144 q67 62 94 118.5 q27 56.5 27 112.5 q0 26 -7.5 48 q-7.5 22 -18 39 q-10.5 17 -22.5 29.5 q-12 12.5 -21 19.5 q-40 29 -87.5 36.5 q-47.5 7.5 -95.5 7.5 q-12 0 -30 -0.5 q-18 -0.5 -36.5 -1 q-18.5 -0.5 -33 -1 q-14.5 -0.5 -18.5 -0.5 q-2 0 -13.5 0.5 q-11.5 0.5 -28 1 q-16.5 0.5 -35.5 1 q-19 0.5 -36 0.5 q-16 0 -16 -8 q0 -6 8 -6 q7 0 17.5 -0.5 q10.5 -0.5 16.5 -2.5 q25 -5 33 -18 q8 -13 10 -39 q1 -12 1.5 -25.5 q0.5 -13.5 0.5 -36.5 q0 -22 0 -59 q0 -37 0 -95 l0 -176 ZM258 703 q0 9 8 12 q8 2 26 4 q18 2 41 2 q81 0 127 -53 q46 -53 46 -147 q0 -57 -17.5 -96.5 q-17.5 -39.5 -43.5 -57.5 q-17 -12 -37 -15.5 q-20 -3.5 -38 -3.5 q-33 0 -63.5 4.5 q-30.5 4.5 -41.5 11.5 q-7 4 -7 12 l0 327 Z" /><glyph glyph-name="S" unicode="s" d="M248 -17 q41 0 80 9.5 q39 9.5 71 32.5 q26 18 42.5 40.5 q16.5 22.5 26 45.5 q9.5 23 13 44 q3.5 21 3.5 36 q0 30 -6 57.5 q-6 27.5 -22.5 55 q-16.5 27.5 -45 57.5 q-28.5 30 -72.5 65 l-28 22 q-36 28 -59.5 50 q-23.5 22 -37.5 41 q-14 19 -19.5 37.5 q-5.5 18.5 -5.5 39.5 q0 55 35.5 85.5 q35.5 30.5 87.5 30.5 q34 0 57 -6.5 q23 -6.5 37.5 -15.5 q14.5 -9 21.5 -18 q7 -9 9 -13 q5 -8 8.5 -24.5 q3.5 -16.5 4.5 -25.5 q1 -6 2 -9.5 q1 -3.5 6 -3.5 q7 0 7 23 q0 51 2 76.5 q2 25.5 2 29.5 q0 7 -10 7 q-6 0 -13.5 1 q-7.5 1 -21.5 4 q-19 5 -41.5 7.5 q-22.5 2.5 -51.5 2.5 q-48 0 -86 -13 q-38 -13 -65 -37 q-27 -24 -41.5 -57 q-14.5 -33 -14.5 -73 q0 -26 5.5 -50.5 q5.5 -24.5 20 -51 q14.5 -26.5 39.5 -54.5 q25 -28 65 -61 l45 -37 q32 -27 54 -48.5 q22 -21.5 35.5 -42 q13.5 -20.5 19.5 -42 q6 -21.5 6 -47.5 q0 -24 -9 -48 q-9 -24 -26.5 -42.5 q-17.5 -18.5 -44.5 -30.5 q-27 -12 -63 -12 q-25 0 -49 5.5 q-24 5.5 -44.5 17.5 q-20.5 12 -34.5 31.5 q-14 19.5 -20 47.5 q-2 11 -2.5 20.5 q-0.5 9.5 -0.5 16.5 q0 11 -7 11 q-7 0 -8 -16 q-1 -12 -3 -40 q-2 -28 -2 -66 q0 -20 2 -26.5 q2 -6.5 13 -11.5 q31 -15 65 -21 q34 -6 69 -6 Z" /><glyph glyph-name="T" unicode="t" d="M391 710 l126 -2 q36 -1 59.5 -5.5 q23.5 -4.5 37 -11.5 q13.5 -7 19.5 -17 q6 -10 7 -21 l1 -11 q1 -11 2.5 -14 q1.5 -3 5.5 -3 q7 0 7 13 q0 4 0.5 17.5 q0.5 13.5 1 30.5 q0.5 17 1 34 q0.5 17 0.5 28 q0 5 -0.5 8.5 q-0.5 3.5 -4.5 3.5 q-3 0 -10 -1.5 q-7 -1.5 -18 -3.5 q-12 -2 -29.5 -3.5 q-17.5 -1.5 -41.5 -1.5 l-375 0 q-9 0 -33 1.5 q-24 1.5 -46 3.5 q-20 2 -29.5 7 q-9.5 5 -14.5 5 q-3 0 -5.5 -7 q-2.5 -7 -4.5 -12 q-1 -3 -4.5 -18 q-3.5 -15 -7.5 -33 q-4 -18 -7 -33.5 q-3 -15.5 -3 -19.5 q0 -9 5 -9 q6 0 10 10 q2 5 5.5 11.5 q3.5 6.5 11.5 19.5 q6 9 14 15 q8 6 20 9.5 q12 3.5 28.5 5.5 q16.5 2 39.5 2 l148 2 l0 -423 q0 -72 -0.5 -128.5 q-0.5 -56.5 -4.5 -88.5 q-3 -22 -8.5 -37 q-5.5 -15 -20.5 -18 q-7 -2 -15 -3 q-8 -1 -15 -1 q-8 0 -8 -6 q0 -8 16 -8 q11 0 27 0.5 q16 0.5 31 1 q15 0.5 26.5 1 q11.5 0.5 13.5 0.5 q2 0 13.5 -0.5 q11.5 -0.5 29 -1 q17.5 -0.5 38.5 -1 q21 -0.5 42 -0.5 q16 0 16 8 q0 6 -8 6 q-7 0 -20.5 1 q-13.5 1 -24.5 3 q-23 3 -30 18 q-7 15 -9 37 q-4 32 -4.5 88.5 q-0.5 56.5 -0.5 128.5 l0 423 Z" /><glyph glyph-name="U" unicode="u" d="M120 317 q0 -55 6.5 -96 q6.5 -41 18.5 -72.5 q12 -31.5 28 -54 q16 -22.5 34 -40.5 q27 -25 57.5 -39.5 q30.5 -14.5 59.5 -21.5 q29 -7 52.5 -8.5 q23.5 -1.5 36.5 -1.5 q22 0 47 2.5 q25 2.5 51 10.5 q26 8 53.5 22.5 q27.5 14.5 54.5 38.5 q30 27 48 61.5 q18 34.5 28 74 q10 39.5 13 81 q3 41.5 3 82.5 l0 107 q0 58 0 95 q0 37 0 59 q0 23 0.5 36.5 q0.5 13.5 1.5 25.5 q2 26 9.5 39 q7.5 13 27.5 18 q9 2 14.5 2.5 q5.5 0.5 10.5 0.5 q8 0 8 6 q0 8 -16 8 q-11 0 -24.5 -0.5 q-13.5 -0.5 -26 -1 q-12.5 -0.5 -21.5 -1 q-9 -0.5 -12 -0.5 q-2 0 -12.5 0.5 q-10.5 0.5 -25.5 1 q-15 0.5 -33 1 q-18 0.5 -35 0.5 q-16 0 -16 -8 q0 -6 8 -6 q7 0 17.5 -0.5 q10.5 -0.5 16.5 -2.5 q25 -5 33 -18 q8 -13 10 -39 q1 -12 1.5 -25.5 q0.5 -13.5 0.5 -36.5 q0 -22 0 -59 q0 -37 0 -95 l0 -125 q0 -78 -11.5 -140 q-11.5 -62 -46.5 -105 q-27 -32 -69 -52 q-42 -20 -88 -20 q-43 0 -78.5 10 q-35.5 10 -72.5 45 q-16 15 -30 35.5 q-14 20.5 -24 49.5 q-10 29 -15.5 68.5 q-5.5 39.5 -5.5 93.5 l0 140 q0 58 0 95 q0 37 0 59 q0 23 0.5 36.5 q0.5 13.5 1.5 25.5 q2 26 9.5 40 q7.5 14 27.5 17 q9 2 14.5 2.5 q5.5 0.5 10.5 0.5 q8 0 8 6 q0 8 -16 8 q-11 0 -26.5 -0.5 q-15.5 -0.5 -30.5 -1 q-15 -0.5 -27 -1 q-12 -0.5 -15 -0.5 q-3 0 -15.5 0.5 q-12.5 0.5 -29 1 q-16.5 0.5 -35 1 q-18.5 0.5 -35.5 0.5 q-16 0 -16 -8 q0 -6 8 -6 q7 0 17.5 -0.5 q10.5 -0.5 16.5 -2.5 q25 -5 33 -18 q8 -13 10 -39 q1 -12 1.5 -25.5 q0.5 -13.5 0.5 -36.5 q0 -22 0 -59 q0 -37 0 -95 l0 -146 Z" /><glyph glyph-name="V" unicode="v" d="M203 631 q-11 29 -19 51 q-8 22 -8 32 q0 5 2.5 10.5 q2.5 5.5 10.5 9.5 q7 3 18.5 4 q11.5 1 19.5 1 q10 0 10 7 q0 7 -27 7 q-29 0 -57 -1.5 q-28 -1.5 -36 -1.5 q-5 0 -17 0.5 q-12 0.5 -28 1 q-16 0.5 -35 1 q-19 0.5 -37 0.5 q-26 0 -26 -7 q0 -7 8 -7 q5 0 16 -0.5 q11 -0.5 22 -3.5 q13 -4 23 -8.5 q10 -4.5 18 -13 q8 -8.5 15.5 -21.5 q7.5 -13 15.5 -34 l245 -613 q14 -36 20.5 -49 q6.5 -13 15.5 -13 q7 0 14 15.5 q7 15.5 28 60.5 q17 37 50 115 q33 78 79 188 q19 46 37.5 90 q18.5 44 33.5 81 q15 37 26 63 q11 26 15 37 q10 25 18 42 q8 17 14.5 27.5 q6.5 10.5 12 16 q5.5 5.5 10.5 8.5 q14 9 28.5 10.5 q14.5 1.5 19.5 1.5 q12 0 12 7 q0 7 -17 7 q-11 0 -23.5 -0.5 q-12.5 -0.5 -24 -1 q-11.5 -0.5 -20 -1 q-8.5 -0.5 -10.5 -0.5 q-9 0 -38.5 1.5 q-29.5 1.5 -59.5 1.5 q-22 0 -22 -8 q0 -6 11 -6 q8 0 18.5 -0.5 q10.5 -0.5 19.5 -3.5 q8 -4 10.5 -10.5 q2.5 -6.5 2.5 -12.5 q0 -7 -2.5 -17 q-2.5 -10 -6.5 -21 q-6 -18 -19.5 -57 q-13.5 -39 -32.5 -89.5 q-19 -50.5 -41.5 -108 q-22.5 -57.5 -44.5 -113 q-22 -55.5 -42 -104.5 q-20 -49 -34 -83 l-192 512 Z" /><glyph glyph-name="W" unicode="w" d="M599 702 q-9 26 -14.5 36.5 q-5.5 10.5 -10.5 10.5 q-5 0 -9.5 -7.5 q-4.5 -7.5 -15.5 -38.5 l-212 -570 l-2 0 q-4 13 -14 49.5 q-10 36.5 -24 85 q-14 48.5 -29 103 q-15 54.5 -29 104 q-14 49.5 -24 88 q-10 38.5 -14 54.5 q-8 33 -13.5 57.5 q-5.5 24.5 -5.5 34.5 q0 10 4 16 q4 6 9 8 q9 5 21 5.5 q12 0.5 18 0.5 q10 0 10 7 q0 3 -3.5 5 q-3.5 2 -14.5 2 q-38 0 -67 -1.5 q-29 -1.5 -36 -1.5 q-4 0 -15.5 0.5 q-11.5 0.5 -28 1 q-16.5 0.5 -36 1 q-19.5 0.5 -38.5 0.5 q-16 0 -16 -7 q0 -7 9 -7 q5 0 20 -1 q15 -1 25 -5 q19 -8 31 -23 q12 -15 24 -55 l178 -593 q7 -26 12 -41.5 q5 -15.5 9 -23.5 q4 -8 7 -11 q3 -3 7 -3 q9 0 15 10.5 q6 10.5 18 42.5 q9 23 25.5 66.5 q16.5 43.5 36.5 97.5 q20 54 42.5 112.5 q22.5 58.5 42.5 112.5 q20 54 36.5 98 q16.5 44 25.5 68 l2 0 l196 -556 q11 -29 16.5 -40.5 q5.5 -11.5 13.5 -11.5 q4 0 7.5 3 q3.5 3 8 12 q4.5 9 10.5 26 q6 17 16 45 q10 28 24 71.5 q14 43.5 31 94.5 q17 51 35 106.5 q18 55.5 35.5 108.5 q17.5 53 32.5 98.5 q15 45.5 26 77.5 q14 42 28 71 q14 29 37 37 q8 3 19.5 4 q11.5 1 14.5 1 q9 0 9 8 q0 6 -14 6 q-12 0 -25 -0.5 q-13 -0.5 -24.5 -1 q-11.5 -0.5 -20 -1 q-8.5 -0.5 -11.5 -0.5 q-7 0 -35.5 1.5 q-28.5 1.5 -66.5 1.5 q-17 0 -17 -7 q0 -7 9 -7 q35 0 46 -8 q11 -8 11 -22 q0 -10 -1.5 -23 q-1.5 -13 -9.5 -41 q-9 -32 -22 -76 q-13 -44 -27.5 -93 q-14.5 -49 -30.5 -99.5 q-16 -50.5 -30 -96.5 q-14 -46 -25.5 -84 q-11.5 -38 -18.5 -61 l-4 0 l-199 567 Z" /><glyph glyph-name="X" unicode="x" d="M124 97 q-24 -38 -42 -56.5 q-18 -18.5 -41 -24.5 q-11 -3 -21.5 -4 q-10.5 -1 -16.5 -1 q-8 0 -8 -7 q0 -7 10 -7 q12 0 26.5 0.5 q14.5 0.5 28 1 q13.5 0.5 23.5 1 q10 0.5 13 0.5 q3 0 15 -0.5 q12 -0.5 27 -1 q15 -0.5 30 -1 q15 -0.5 24 -0.5 q12 0 12 7 q0 7 -8 7 q-4 0 -9 0.5 q-5 0.5 -10 1.5 q-16 4 -16 19 q0 8 3 20 q3 12 10 24 l156 265 q45 -76 88 -150 q43 -74 84 -148 q7 -12 3 -19 q-4 -7 -8 -9 q-6 -2 -6 -8 q0 -4 5.5 -5.5 q5.5 -1.5 25.5 -2.5 q38 -2 76 -2 q38 0 84 0 q14 0 14 8 q0 6 -8 6 q-5 0 -14.5 1.5 q-9.5 1.5 -20.5 4.5 q-22 7 -34.5 18 q-12.5 11 -24.5 27 q-5 7 -21.5 33 q-16.5 26 -38.5 62.5 q-22 36.5 -46.5 77.5 q-24.5 41 -46 77.5 q-21.5 36.5 -37.5 63.5 q-16 27 -21 35 l161 242 q22 32 38.5 53 q16.5 21 38.5 28 q8 3 18 4 q10 1 15 1 q11 0 11 7 q0 7 -16 7 q-26 0 -51.5 -1.5 q-25.5 -1.5 -32.5 -1.5 q-7 0 -33.5 1.5 q-26.5 1.5 -55.5 1.5 q-17 0 -17 -7 q0 -7 9 -7 q5 0 13.5 -0.5 q8.5 -0.5 16.5 -2.5 q17 -5 17 -18 q0 -9 -2.5 -17 q-2.5 -8 -7.5 -19 q-3 -5 -12.5 -21.5 q-9.5 -16.5 -23.5 -39 q-14 -22.5 -30 -48.5 q-16 -26 -31.5 -50.5 q-15.5 -24.5 -29 -44.5 q-13.5 -20 -20.5 -31 q-39 65 -71 122 q-32 57 -64 117 q-10 18 -10 33 q0 13 12 17 q6 2 14 2.5 q8 0.5 13 0.5 q9 0 9 7 q0 4 -3 5.5 q-3 1.5 -14 1.5 q-13 0 -28 -0.5 q-15 -0.5 -28.5 -1 q-13.5 -0.5 -24 -1 q-10.5 -0.5 -13.5 -0.5 q-3 0 -17.5 0.5 q-14.5 0.5 -33.5 1 q-19 0.5 -37.5 1 q-18.5 0.5 -28.5 0.5 q-17 0 -17 -7 q0 -7 9 -7 q5 0 17.5 -1.5 q12.5 -1.5 24.5 -5.5 q26 -9 43.5 -30 q17.5 -21 34.5 -50 l160 -269 l-181 -286 Z" /><glyph glyph-name="Y" unicode="y" d="M289 170 q0 -12 -0.5 -40 q-0.5 -28 -2.5 -60 q-2 -22 -9 -37 q-7 -15 -22 -18 q-7 -2 -15 -3 q-8 -1 -15 -1 q-8 0 -8 -6 q0 -8 16 -8 q11 0 27 0.5 q16 0.5 31 1 q15 0.5 26.5 1 q11.5 0.5 13.5 0.5 q2 0 13.5 -0.5 q11.5 -0.5 29 -1 q17.5 -0.5 38.5 -1 q21 -0.5 42 -0.5 q16 0 16 8 q0 6 -8 6 q-7 0 -20.5 1 q-13.5 1 -24.5 3 q-23 3 -31 18 q-8 15 -10 37 q-2 32 -2.5 60 q-0.5 28 -0.5 40 l0 86 q0 25 2 49 q2 24 13 51 q4 11 18 36 q14 25 32.5 57 q18.5 32 39.5 67.5 q21 35.5 41 67 q20 31.5 36 56 q16 24.5 24 34.5 q17 20 27.5 31 q10.5 11 25.5 20 q12 8 25 11 q13 3 21 3 q13 0 13 8 q0 6 -13 6 q-7 0 -22.5 -0.5 q-15.5 -0.5 -31 -1 q-15.5 -0.5 -28.5 -1 q-13 -0.5 -15 -0.5 q-6 0 -26 1.5 q-20 1.5 -40 1.5 q-16 0 -16 -6 q0 -5 15 -10 q9 -2 12.5 -9.5 q3.5 -7.5 3.5 -18.5 q0 -10 -3.5 -22.5 q-3.5 -12.5 -13.5 -28.5 q-5 -8 -18 -30 q-13 -22 -30 -51.5 q-17 -29.5 -35.5 -62.5 q-18.5 -33 -35.5 -62.5 q-17 -29.5 -29.5 -53 q-12.5 -23.5 -17.5 -34.5 q-5 7 -19 31.5 q-14 24.5 -33 57 q-19 32.5 -40.5 69.5 q-21.5 37 -40.5 69.5 q-19 32.5 -33 57 q-14 24.5 -18 31.5 q-6 11 -9.5 20.5 q-3.5 9.5 -3.5 18.5 q0 11 13 18 q7 3 11 4.5 q4 1.5 4 4.5 q0 3 -2.5 5 q-2.5 2 -10.5 2 q-29 0 -54 -1.5 q-25 -1.5 -30 -1.5 q-2 0 -15 0.5 q-13 0.5 -29.5 1 q-16.5 0.5 -32 1 q-15.5 0.5 -22.5 0.5 q-13 0 -13 -7 q0 -7 10 -7 q7 0 19.5 -4 q12.5 -4 23.5 -12 q14 -9 31.5 -27.5 q17.5 -18.5 36.5 -46.5 q9 -13 25 -38.5 q16 -25.5 35 -56 q19 -30.5 38.5 -63 q19.5 -32.5 36.5 -60 q17 -27.5 28 -47 q11 -19.5 13 -23.5 q5 -11 9 -21 q4 -10 7 -22 q3 -12 5 -27 q2 -15 2 -35 l0 -86 Z" /><glyph glyph-name="Z" unicode="z" d="M184 40 q115 174 227 345 q112 171 221 345 q3 5 3.5 7 q0.5 2 0.5 5 q0 8 -20 8 l-279 0 q-23 0 -63 0 q-40 0 -111 3 q-20 1 -27.5 4 q-7.5 3 -14.5 3 q-7 0 -10 -19 q-2 -11 -5.5 -31.5 q-3.5 -20.5 -6.5 -41.5 q-3 -21 -5.5 -38.5 q-2.5 -17.5 -2.5 -21.5 q0 -13 6 -13 q4 0 6.5 3.5 q2.5 3.5 4.5 14.5 q2 17 16 41 q14 24 41 38 q12 6 29 10 q17 4 36 6.5 q19 2.5 39.5 3 q20.5 0.5 39.5 0.5 l217 0 q-105 -171 -216 -338.5 q-111 -167.5 -223 -337.5 q-9 -14 -11.5 -19 q-2.5 -5 -2.5 -9 q0 -8 18 -8 q132 0 258 -2.5 q126 -2.5 252 -2.5 q9 0 13.5 0.5 q4.5 0.5 7.5 3.5 q3 3 5 8 q2 5 4 14 q2 9 5.5 24 q3.5 15 6.5 31.5 q3 16.5 5.5 32 q2.5 15.5 2.5 27.5 q0 14 -1.5 18.5 q-1.5 4.5 -6.5 4.5 q-6 0 -9 -16 q-2 -11 -7.5 -27.5 q-5.5 -16.5 -12.5 -26.5 q-8 -11 -19 -20 q-11 -9 -28.5 -15.5 q-17.5 -6.5 -44.5 -10 q-27 -3.5 -66 -3.5 l-272 0 Z" /><glyph glyph-name="bracketleft" unicode="[" d="M97 -108 q0 -11 2.5 -13.5 q2.5 -2.5 13.5 -2.5 l170 0 q12 0 12 7 q0 7 -17 8 q-23 2 -54 6 q-31 4 -54 15 q-7 29 -7 93 l0 610 q0 64 7 93 q23 10 54.5 14.5 q31.5 4.5 54.5 6.5 q17 1 17 8 q0 7 -12 7 l-170 0 q-11 0 -14 -2.5 q-3 -2.5 -3 -10.5 l0 -839 Z" /><glyph glyph-name="backslash" unicode="\" d="M503 6 q7 3 0 14 l-438 702 q-6 9 -14 4 l-28 -17 q-6 -4 -2 -10 l441 -709 q3 -5 5.5 -5.5 q2.5 -0.5 5.5 1.5 l30 20 Z" /><glyph glyph-name="bracketright" unicode="]" d="M263 728 q0 11 -2.5 13.5 q-2.5 2.5 -13.5 2.5 l-170 0 q-12 0 -12 -7 q0 -7 17 -8 q23 -2 54 -6 q31 -4 54 -15 q7 -29 7 -93 l0 -610 q0 -64 -7 -93 q-23 -11 -55 -15 q-32 -4 -54 -6 q-17 -1 -17 -8 q0 -7 12 -7 l170 0 q11 0 14 2.5 q3 2.5 3 10.5 l0 839 Z" /><glyph glyph-name="asciicircum" unicode="^" d="M229 751 l-199 -426 l54 0 l171 371 l171 -371 l54 0 l-199 426 l-52 0 Z" /><glyph glyph-name="underscore" unicode="_" d="M0 -75 l0 -50 l500 0 l0 50 l-500 0 Z" /><glyph glyph-name="quoteleft" unicode="&#x2018;" d="M115 659 q0 43 11 81 q11 38 22 62 q4 9 4 13 q0 5 -5 5 q-8 0 -13 -8 q-13 -16 -28 -38.5 q-15 -22.5 -28 -49 q-13 -26.5 -21.5 -54.5 q-8.5 -28 -8.5 -55 q0 -11 4 -16 q4 -5 13 -10 q6 -2 15.5 -5 q9.5 -3 19.5 -6 q10 -3 19.5 -5 q9.5 -2 15.5 -2 q3 0 6 2 q3 2 3 4 q0 4 -1.5 7 q-1.5 3 -7.5 10 q-5 6 -12.5 24 q-7.5 18 -7.5 41 Z" /><glyph glyph-name="a" unicode="a" d="M82 91 q-13 -32 -28.5 -53 q-15.5 -21 -45.5 -25 q-5 -1 -13 -1.5 q-8 -0.5 -13 -0.5 q-8 0 -8 -7 q0 -7 17 -7 q13 0 27.5 0.5 q14.5 0.5 27 1 q12.5 0.5 22 1 q9.5 0.5 12.5 0.5 q4 0 13.5 -0.5 q9.5 -0.5 21.5 -1 q12 -0.5 24 -1 q12 -0.5 20 -0.5 q13 0 13 7 q0 7 -9 7 l-8 0 q-11 0 -20.5 5 q-9.5 5 -9.5 18 q0 23 13 57 l50 136 q3 7 9 7 l203 0 q5 0 8 -5 l79 -195 q5 -11 0.5 -16 q-4.5 -5 -8.5 -7 q-3 -2 -4.5 -2.5 q-1.5 -0.5 -1.5 -3.5 q0 -4 9 -4.5 q9 -0.5 22 -1.5 q23 -1 45.5 -1.5 q22.5 -0.5 41.5 -0.5 q20 0 33 0 q14 0 19 0 q8 0 14 1.5 q6 1.5 6 5.5 q0 4 -3.5 5.5 q-3.5 1.5 -7.5 1.5 q-7 0 -16 1 q-9 1 -19 4 q-7 2 -15 6 q-8 4 -17.5 14 q-9.5 10 -20 27 q-10.5 17 -22.5 46 q-14 32 -33.5 80.5 q-19.5 48.5 -41.5 102.5 q-22 54 -44.5 109.5 q-22.5 55.5 -41.5 102 q-19 46.5 -32.5 79.5 q-13.5 33 -17.5 42 q-7 14 -10.5 22.5 q-3.5 8.5 -10.5 8.5 q-5 0 -9 -6 q-4 -6 -12 -27 l-207 -532 ZM209 269 q-5 0 -3 6 l82 233 q7 19 15 0 l87 -233 q1 -6 -3 -6 l-178 0 Z" /><glyph glyph-name="b" unicode="b" d="M155 244 q0 -62 -0.5 -110 q-0.5 -48 -4.5 -74 q-3 -19 -6.5 -32 q-3.5 -13 -16.5 -15 q-6 -1 -13.5 -2.5 q-7.5 -1.5 -13.5 -1.5 q-7 0 -7 -5 q0 -7 14 -7 q11 0 25 0.5 q14 0.5 28 1.5 q14 0 24 0.5 q10 0.5 12 0.5 q3 0 19.5 -0.5 q16.5 -0.5 37.5 -1.5 q21 -2 42.5 -2.5 q21.5 -0.5 33.5 -0.5 q56 0 97.5 16 q41.5 16 69 42.5 q27.5 26.5 41 60.5 q13.5 34 13.5 70 q0 36 -15 65.5 q-15 29.5 -37.5 51.5 q-22.5 22 -50 37 q-27.5 15 -52.5 23 q17 15 33 30.5 q16 15.5 28.5 33.5 q12.5 18 20 39 q7.5 21 7.5 46 q0 17 -8 39.5 q-8 22.5 -29 42.5 q-21 20 -57 34 q-36 14 -91 14 q-31 0 -59 -1 q-28 -1 -44 -1 q-2 0 -12.5 0.5 q-10.5 0.5 -25.5 0.5 q-15 0 -32 0.5 q-17 0.5 -32 0.5 q-14 0 -14 -7 q0 -5 7 -5 q6 0 15.5 -0.5 q9.5 -0.5 14.5 -1.5 q22 -3 28 -15 q6 -12 8 -34 q1 -10 1.5 -21.5 q0.5 -11.5 0.5 -31.5 q0 -19 0 -50 q0 -31 0 -80 l0 -150 ZM231 600 q0 6 11 9 q11 2 24 3 q13 1 21 1 q33 0 56.5 -12.5 q23.5 -12.5 38.5 -32 q15 -19.5 22 -44 q7 -24.5 7 -48.5 q0 -31 -10 -53 q-10 -22 -24 -38 q-14 -15 -31.5 -18.5 q-17.5 -3.5 -54.5 -3.5 q-25 0 -37.5 1.5 q-12.5 1.5 -16.5 2.5 q-6 1 -6 9 l0 224 ZM231 329 q0 6 5 6 q5 0 15 0 q10 0 20 0 q11 0 20.5 -0.5 q9.5 -0.5 13.5 -1.5 q16 -3 36 -5.5 q20 -2.5 43 -16.5 q26 -17 42.5 -37.5 q16.5 -20.5 25.5 -42 q9 -21.5 12.5 -41.5 q3.5 -20 3.5 -34 q0 -41 -12 -66.5 q-12 -25.5 -31 -40 q-19 -14.5 -41.5 -19.5 q-22.5 -5 -44.5 -5 q-12 0 -35.5 2 q-23.5 2 -41.5 10 q-10 5 -15.5 10 q-5.5 5 -8.5 11.5 q-3 6.5 -4 17 q-1 10.5 -2 25.5 q0 5 -0.5 24.5 q-0.5 19.5 -0.5 45.5 q0 27 0 56 q0 30 0 55 l0 47 Z" /><glyph glyph-name="c" unicode="c" d="M452 -14 q43 0 87.5 4 q44.5 4 71.5 15 q11 5 14.5 9 q3.5 4 7.5 16 q3 11 7 28.5 q4 17.5 7 34.5 q3 17 5 30.5 q2 13.5 2 15.5 q0 5 -2.5 8.5 q-2.5 3.5 -5.5 3.5 q-5 0 -6 -2.5 q-1 -2.5 -3 -9.5 q-2 -12 -11 -34.5 q-9 -22.5 -23 -36.5 q-26 -26 -60.5 -33 q-34.5 -7 -84.5 -7 q-71 0 -129 25 q-58 25 -100 67.5 q-42 42.5 -65 98.5 q-23 56 -23 117 q0 65 15 121 q15 56 64 101 q12 11 28.5 21.5 q16.5 10.5 40 19 q23.5 8.5 55.5 13.5 q32 5 74 5 q59 0 104.5 -13.5 q45.5 -13.5 68.5 -33.5 q17 -14 27 -37 q10 -23 10 -48 q0 -18 7 -18 q9 0 10 18 q0 4 0.5 14.5 q0.5 10.5 0.5 22.5 q0 13 0.5 26 q0.5 13 0.5 24 q2 23 3 33 q1 10 1 15 q0 9 -11 9 q-22 1 -43.5 4.5 q-21.5 3.5 -46.5 8.5 q-32 5 -67 7.5 q-35 2.5 -61 2.5 q-51 0 -91.5 -7 q-40.5 -7 -73 -19.5 q-32.5 -12.5 -58 -29 q-25.5 -16.5 -45.5 -35.5 q-29 -29 -48.5 -60.5 q-19.5 -31.5 -30.5 -62.5 q-11 -31 -15.5 -59.5 q-4.5 -28.5 -4.5 -49.5 q0 -30 4.5 -63 q4.5 -33 16.5 -65.5 q12 -32.5 33 -64 q21 -31.5 53 -59.5 q52 -45 121 -68 q69 -23 169 -23 Z" /><glyph glyph-name="d" unicode="d" d="M155 244 q0 -62 -0.5 -110 q-0.5 -48 -4.5 -74 q-3 -19 -6.5 -30.5 q-3.5 -11.5 -16.5 -14.5 q-6 -2 -13.5 -3 q-7.5 -1 -13.5 -1 q-7 0 -7 -7 q0 -7 14 -7 q11 0 25 0.5 q14 0.5 28 1.5 q14 0 24 0.5 q10 0.5 12 0.5 q3 0 23 -1.5 q20 -1.5 49 -3.5 q29 -2 61.5 -3.5 q32.5 -1.5 61.5 -1.5 q56 0 99.5 10 q43.5 10 76 24.5 q32.5 14.5 55 31.5 q22.5 17 36.5 32 q18 19 35.5 43.5 q17.5 24.5 30.5 54.5 q13 30 21 65.5 q8 35.5 8 75.5 q0 76 -26.5 129.5 q-26.5 53.5 -59.5 86.5 q-39 39 -86.5 59.5 q-47.5 20.5 -96 28.5 q-48.5 8 -93 8.5 q-44.5 0.5 -77.5 0.5 q-20 0 -39 -0.5 q-19 -0.5 -36 -0.5 q-16 0 -27.5 -0.5 q-11.5 -0.5 -15.5 -0.5 q-2 0 -12.5 0.5 q-10.5 0.5 -25.5 0.5 q-15 0 -32 0.5 q-17 0.5 -32 0.5 q-14 0 -14 -7 q0 -7 7 -7 q6 0 15.5 -0.5 q9.5 -0.5 14.5 -1.5 q22 -3 28 -14 q6 -11 8 -33 q1 -10 1.5 -21.5 q0.5 -11.5 0.5 -31.5 q0 -19 0 -50 q0 -31 0 -80 l0 -150 ZM235 586 q0 13 11 17 q6 2 23 4 q17 2 30 2 q39 0 77 -3 q38 -3 74 -13 q36 -10 69.5 -29 q33.5 -19 64.5 -50 q13 -14 28 -33.5 q15 -19.5 27 -46 q12 -26.5 20 -60 q8 -33.5 8 -73.5 q0 -29 -4.5 -58.5 q-4.5 -29.5 -13 -56 q-8.5 -26.5 -21.5 -49 q-13 -22.5 -30 -38.5 q-40 -38 -92.5 -57.5 q-52.5 -19.5 -113.5 -19.5 q-39 0 -65 3 q-26 3 -42.5 8 q-16.5 5 -25.5 11 q-9 6 -13 12 q-5 7 -7 26 q-2 19 -3 35 q0 6 -0.5 23 q-0.5 17 -0.5 41 q0 25 0 56 q0 31 0 65 l0 284 Z" /><glyph glyph-name="e" unicode="e" d="M155 244 q0 -62 -0.5 -110 q-0.5 -48 -4.5 -74 q-3 -19 -6.5 -31 q-3.5 -12 -16.5 -14 q-6 -1 -13.5 -2.5 q-7.5 -1.5 -13.5 -1.5 q-7 0 -7 -7 q0 -7 14 -7 q11 0 24.5 0.5 q13.5 0.5 26.5 1.5 q14 1 25 1 q11 0 13 0 q10 0 27 0 q18 0 46 -2 q27 -1 65 -2 q38 -1 88 -1 q13 0 21.5 0.5 q8.5 0.5 13.5 2.5 q5 2 8.5 6.5 q3.5 4.5 5.5 12.5 q2 7 4 19.5 q2 12.5 4 26 q2 13.5 3 24 q1 10.5 1 12.5 q0 5 -1 9 q-1 4 -5 4 q-6 0 -9 -13 q-4 -26 -13.5 -38.5 q-9.5 -12.5 -26.5 -20.5 q-17 -7 -44 -8 q-27 -1 -44 -1 q-33 0 -53 2.5 q-20 2.5 -31.5 10 q-11.5 7.5 -15.5 21 q-4 13.5 -5 34.5 q0 6 0 25 q0 20 0 43 q0 23 0 44 q0 22 0 33 l0 71 q0 6 6 6 q6 0 24 0 q18 0 39 -0.5 q21 -0.5 41 -1.5 q20 -1 29 -2 q26 -3 34.5 -10 q8.5 -7 10.5 -16 q3 -8 3.5 -15 q0.5 -7 0.5 -13 q0 -8 6 -8 q5 0 6.5 5.5 q1.5 5.5 1.5 10.5 q0 5 1 23.5 q1 18.5 3 31.5 q2 21 4.5 32 q2.5 11 2.5 15 q0 7 -5 7 q-2 0 -13 -11 q-7 -7 -17 -8.5 q-10 -1.5 -26 -3.5 q-8 -1 -30 -1.5 q-22 -0.5 -47 -0.5 q-25 0 -46 0 q-20 0 -24 0 q-5 0 -5 9 l0 231 q0 9 5 9 q4 0 22 0 q18 0 39.5 -0.5 q21.5 -0.5 40.5 -1 q19 -0.5 25 -1.5 q18 -2 29 -4.5 q11 -2.5 18 -5.5 q7 -3 10.5 -7 q3.5 -4 5.5 -9 q3 -8 4 -16.5 q1 -8.5 1 -13.5 q0 -11 7 -11 q3 0 5 3 q2 3 3 6 q1 4 1.5 12 q0.5 8 1.5 17 q1 9 1.5 16.5 q0.5 7.5 0.5 10.5 q2 18 4.5 26.5 q2.5 8.5 2.5 13.5 q0 8 -4 8 q-3 0 -6 -1.5 q-3 -1.5 -6 -2.5 q-5 -1 -16 -2.5 q-11 -1.5 -24 -2.5 q-5 0 -22 0 q-17 0 -40 0 q-23 0 -49 0 q-25 0 -47 0 q-21 0 -36 0 q-15 0 -16 0 q-2 0 -12.5 0.5 q-10.5 0.5 -25.5 0.5 q-15 0 -32 0.5 q-17 0.5 -32 0.5 q-14 0 -14 -7 q0 -7 7 -7 q6 0 15.5 -0.5 q9.5 -0.5 14.5 -1.5 q22 -3 28 -14 q6 -11 8 -33 q1 -10 1.5 -21.5 q0.5 -11.5 0.5 -31.5 q0 -19 0 -50 q0 -31 0 -80 l0 -150 Z" /><glyph glyph-name="f" unicode="f" d="M155 244 q0 -62 -0.5 -110 q-0.5 -48 -4.5 -74 q-3 -19 -6.5 -31 q-3.5 -12 -16.5 -14 q-6 -1 -13.5 -2.5 q-7.5 -1.5 -13.5 -1.5 q-7 0 -7 -7 q0 -7 14 -7 q10 0 24 0.5 q14 0.5 27.5 1 q13.5 0.5 23.5 1 q10 0.5 12 0.5 q1 0 11.5 -0.5 q10.5 -0.5 26.5 -1 q16 -0.5 35 -1 q19 -0.5 37 -0.5 q14 0 14 7 q0 7 -7 7 q-6 0 -18 1 q-12 1 -22 3 q-18 3 -24 14.5 q-6 11.5 -8 30.5 q-3 25 -3.5 73 q-0.5 48 -0.5 111 l0 68 q0 8 6 8 q6 0 25 0 q20 0 43 0 q23 0 44 -0.5 q21 -0.5 29 -1.5 q20 -3 31 -10.5 q11 -7.5 14 -16.5 q3 -8 4 -16 q1 -8 2 -15 q0 -8 6 -8 q5 0 6.5 5.5 q1.5 5.5 1.5 11.5 q0 5 0.5 24.5 q0.5 19.5 2.5 32.5 q2 21 5 32 q3 11 3 15 q0 7 -5 7 q-4 0 -11 -9 q-6 -8 -15.5 -10.5 q-9.5 -2.5 -25.5 -4.5 q-9 -1 -19 -1 q-10 0 -21 0 l-120 -1 q-5 0 -5.5 2 q-0.5 2 -0.5 6 l0 232 q0 9 7 9 l144 -2 q26 0 41 -8.5 q15 -8.5 19 -16.5 q4 -8 6 -17.5 q2 -9.5 2 -14.5 q0 -10 7 -10 q3 0 5 3 q2 3 3 6 q1 4 1.5 12 q0.5 8 1 17 q0.5 9 1 16.5 q0.5 7.5 0.5 10.5 q2 18 4.5 26.5 q2.5 8.5 2.5 13.5 q0 8 -6 8 q-2 0 -5 -2 q-3 -2 -7 -3 q-6 -2 -16.5 -2.5 q-10.5 -0.5 -23.5 -1.5 q-5 0 -23 0 q-17 0 -41 0 q-24 0 -51 0 q-27 0 -51 0 q-23 0 -41 0 q-17 0 -21 0 q-2 0 -12 0.5 q-10 0.5 -25 0.5 q-14 0 -31 0.5 q-17 0.5 -32 0.5 q-14 0 -14 -7 q0 -7 7 -7 q6 0 15.5 -0.5 q9.5 -0.5 14.5 -1.5 q22 -3 28 -14 q6 -11 8 -33 q1 -10 1.5 -21.5 q0.5 -11.5 0.5 -31.5 q0 -19 0 -50 q0 -31 0 -80 l0 -150 Z" /><glyph glyph-name="g" unicode="g" d="M569 67 q0 -12 -5 -16.5 q-5 -4.5 -13 -9.5 q-17 -10 -44.5 -13 q-27.5 -3 -50.5 -3 q-61 0 -116.5 20 q-55.5 20 -108.5 69 q-12 11 -28 32 q-16 21 -30.5 51 q-14.5 30 -24.5 68.5 q-10 38.5 -10 83.5 q0 75 24.5 130 q24.5 55 62.5 84 q50 38 97 46.5 q47 8.5 87 8.5 q86 0 136 -21 q50 -21 67 -45 q11 -15 15 -31.5 q4 -16.5 5 -24.5 q0 -13 6 -13 q5 0 7.5 3.5 q2.5 3.5 2.5 14.5 q0 32 1 53 q1 21 1.5 34.5 q0.5 13.5 1.5 20.5 q1 7 1 12 q0 8 -11 8 q-17 0 -37 3 q-20 3 -34 6 q-6 1 -20 3.5 q-14 2.5 -32.5 5 q-18.5 2.5 -40 4 q-21.5 1.5 -42.5 1.5 q-51 0 -112.5 -9 q-61.5 -9 -121.5 -45 q-29 -18 -56 -44.5 q-27 -26.5 -47 -61.5 q-20 -35 -32 -78.5 q-12 -43.5 -12 -94.5 q0 -40 9 -76.5 q9 -36.5 23.5 -67.5 q14.5 -31 33.5 -56 q19 -25 39 -42 q37 -31 77.5 -49 q40.5 -18 79.5 -27.5 q39 -9.5 73.5 -12 q34.5 -2.5 59.5 -2.5 q19 0 43 2 q24 2 49 6.5 q25 4.5 49.5 11.5 q24.5 7 45.5 18 q8 4 10 10.5 q2 6.5 2 35.5 l0 95 q0 27 0 47 q0 21 1 41 q2 23 8.5 33.5 q6.5 10.5 24.5 13.5 q8 2 12 2 q5 0 10 0 q7 0 7 7 q0 7 -14 7 q-10 0 -24 -0.5 q-14 -0.5 -28 -0.5 q-13 0 -23 -0.5 q-10 -0.5 -11 -0.5 q-2 0 -13 0.5 q-11 0.5 -26 0.5 q-15 0 -32.5 0.5 q-17.5 0.5 -32.5 0.5 q-14 0 -14 -7 q0 -7 7 -7 q6 0 15.5 -0.5 q9.5 -0.5 14.5 -1.5 q13 -3 21 -7 q8 -4 11.5 -13 q3.5 -9 4.5 -24.5 q1 -15.5 1 -41.5 l0 -147 Z" /><glyph glyph-name="h" unicode="h" d="M692 394 q0 49 0 80 q0 31 0 50 q0 20 0.5 31.5 q0.5 11.5 1.5 21.5 q2 23 7.5 33 q5.5 10 22.5 14 q8 2 12 2 q5 0 10 0 q8 0 8 7 q0 7 -15 7 q-10 0 -24 -0.5 q-14 -0.5 -28 -0.5 q-13 0 -23 -0.5 q-10 -0.5 -12 -0.5 q-2 0 -12 0.5 q-10 0.5 -25 0.5 q-15 0 -31.5 0.5 q-16.5 0.5 -31.5 0.5 q-14 0 -14 -7 q0 -7 7 -7 q6 0 15.5 -0.5 q9.5 -0.5 14.5 -1.5 q22 -3 27.5 -14 q5.5 -11 7.5 -33 q0 -10 0.5 -21.5 q0.5 -11.5 1 -31.5 q0.5 -20 0.5 -52 q0 -31 0 -80 l0 -18 q0 -5 -5 -5 l-367 0 q-5 0 -5 5 l0 18 q0 49 0 80 q0 32 0 52 q0 20 0.5 31.5 q0.5 11.5 0.5 21.5 q2 23 7.5 33 q5.5 10 23.5 14 q8 2 12 2 q5 0 10 0 q7 0 7 7 q0 7 -14 7 q-10 0 -24.5 -0.5 q-14.5 -0.5 -28.5 -0.5 q-13 0 -23 -0.5 q-10 -0.5 -11 -0.5 q-2 0 -12.5 0.5 q-10.5 0.5 -25.5 0.5 q-14 0 -31 0.5 q-17 0.5 -32 0.5 q-14 0 -14 -7 q0 -7 7 -7 q6 0 15.5 -0.5 q9.5 -0.5 14.5 -1.5 q22 -3 28 -14 q6 -11 8 -33 q1 -10 1.5 -21.5 q0.5 -11.5 0.5 -31.5 q0 -19 0 -50 q0 -31 0 -80 l0 -150 q0 -62 -0.5 -110 q-0.5 -48 -4.5 -74 q-3 -19 -6.5 -30.5 q-3.5 -11.5 -16.5 -14.5 q-6 -2 -13.5 -3 q-7.5 -1 -13.5 -1 q-7 0 -7 -7 q0 -7 14 -7 q10 0 24.5 0.5 q14.5 0.5 28 1 q13.5 0.5 23.5 1 q10 0.5 12 0.5 q1 0 11.5 -0.5 q10.5 -0.5 26 -1 q15.5 -0.5 34.5 -1 q19 -0.5 37 -0.5 q14 0 14 7 q0 7 -7 7 q-6 0 -18 1 q-12 1 -22 3 q-20 3 -25 14.5 q-5 11.5 -7 30.5 q-3 26 -3.5 73 q-0.5 47 -0.5 109 l0 85 q0 5 5 5 l367 0 q5 0 5 -5 l0 -85 q0 -62 -0.5 -108.5 q-0.5 -46.5 -3.5 -72.5 q-2 -19 -6 -31 q-4 -12 -18 -15 q-6 -2 -13 -3 q-7 -1 -13 -1 q-7 0 -7 -7 q0 -7 14 -7 q10 0 24 0.5 q14 0.5 27.5 1 q13.5 0.5 23.5 1 q10 0.5 12 0.5 q2 0 12.5 -0.5 q10.5 -0.5 26 -1 q15.5 -0.5 34 -1 q18.5 -0.5 36.5 -0.5 q15 0 15 7 q0 7 -8 7 q-5 0 -17.5 1 q-12.5 1 -21.5 3 q-20 3 -25 14.5 q-5 11.5 -7 30.5 q-3 26 -4 74 q-1 48 -1 110 l0 150 Z" /><glyph glyph-name="i" unicode="i" d="M235 394 q0 49 0 80 q0 31 0 50 q0 20 0.5 31.5 q0.5 11.5 0.5 21.5 q2 23 7.5 33 q5.5 10 23.5 14 q8 2 12 2 q5 0 10 0 q7 0 7 7 q0 7 -14 7 q-10 0 -24.5 -0.5 q-14.5 -0.5 -28.5 -0.5 q-13 0 -23.5 -0.5 q-10.5 -0.5 -11.5 -0.5 q-2 0 -12 0.5 q-10 0.5 -24 0.5 q-13 0 -27.5 0.5 q-14.5 0.5 -25.5 0.5 q-14 0 -14 -7 q0 -7 7 -7 q5 0 12 -0.5 q7 -0.5 15 -2.5 q14 -3 20 -13.5 q6 -10.5 8 -32.5 q1 -10 1.5 -21.5 q0.5 -11.5 0.5 -31.5 q0 -19 0 -50 q0 -31 0 -80 l0 -150 q0 -62 -1 -110 q-1 -48 -4 -74 q-2 -19 -6 -30.5 q-4 -11.5 -17 -14.5 q-6 -2 -13.5 -3 q-7.5 -1 -13.5 -1 q-7 0 -7 -7 q0 -7 14 -7 q10 0 24 0.5 q14 0.5 27.5 1 q13.5 0.5 23.5 1 q10 0.5 12 0.5 q1 0 11.5 -0.5 q10.5 -0.5 26.5 -1 q16 -0.5 35 -1 q19 -0.5 37 -0.5 q14 0 14 7 q0 7 -7 7 q-6 0 -18 1 q-12 1 -22 3 q-20 3 -25 14.5 q-5 11.5 -7 30.5 q-3 26 -3.5 74 q-0.5 48 -0.5 110 l0 150 Z" /><glyph glyph-name="j" unicode="j" d="M235 394 q0 49 0 80 q0 31 0 50 q0 20 0.5 31.5 q0.5 11.5 0.5 21.5 q2 23 7.5 33 q5.5 10 23.5 14 q8 2 12 2 q5 0 10 0 q7 0 7 7 q0 7 -14 7 q-10 0 -24 -0.5 q-14 -0.5 -28 -0.5 q-13 0 -23 -0.5 q-10 -0.5 -11 -0.5 q-2 0 -12.5 0.5 q-10.5 0.5 -25.5 0.5 q-15 0 -32 0.5 q-17 0.5 -32 0.5 q-14 0 -14 -7 q0 -7 7 -7 q6 0 15.5 -0.5 q9.5 -0.5 14.5 -1.5 q22 -3 28 -14 q6 -11 8 -33 q1 -10 1.5 -21.5 q0.5 -11.5 0.5 -31.5 q0 -19 0 -50 q0 -31 0 -80 l0 -246 q0 -82 -5 -134.5 q-5 -52.5 -15.5 -86.5 q-10.5 -34 -26.5 -56 q-16 -22 -37 -43 q-6 -5 -14.5 -11.5 q-8.5 -6.5 -16.5 -11.5 q-11 -7 -11 -14 q0 -3 2 -4 q2 -1 4 -1 q2 0 3.5 0.5 q1.5 0.5 2.5 0.5 q7 4 17 10 q10 6 19 12 q54 35 84.5 66.5 q30.5 31.5 44.5 63.5 q10 22 15.5 45 q5.5 23 8.5 51.5 q3 28.5 4 65.5 q1 37 1 89 l0 204 Z" /><glyph glyph-name="k" unicode="k" d="M155 244 q0 -62 -0.5 -110 q-0.5 -48 -4.5 -74 q-3 -19 -6.5 -30.5 q-3.5 -11.5 -16.5 -14.5 q-6 -2 -13.5 -3 q-7.5 -1 -13.5 -1 q-7 0 -7 -7 q0 -7 14 -7 q10 0 24 0.5 q14 0.5 27 1 q13 0.5 23 1 q10 0.5 13 0.5 q3 0 13 -0.5 q10 -0.5 25 -1 q15 -0.5 32 -1 q17 -0.5 33 -0.5 q14 0 14 7 q0 7 -7 7 q-6 0 -15.5 1 q-9.5 1 -18.5 3 q-20 3 -26 14.5 q-6 11.5 -8 30.5 q-3 26 -3.5 74 q-0.5 48 -0.5 110 l0 83 l4 0 q10 -13 31.5 -36 q21.5 -23 47.5 -51 q26 -28 55 -58 q29 -30 55.5 -56.5 q26.5 -26.5 47 -46.5 q20.5 -20 30.5 -28 q14 -11 26 -20 q12 -9 24.5 -15.5 q12.5 -6.5 26 -11 q13.5 -4.5 30.5 -5.5 q15 -2 28 -2 q14 0 33 0 l45 0 q11 0 15 2 q4 2 4 5 q0 7 -11 7 q-5 0 -21 2.5 q-16 2.5 -33 9.5 q-16 6 -27 12.5 q-11 6.5 -24 16 q-13 9.5 -30 25 q-17 15.5 -45 40.5 q-9 8 -29 27.5 q-20 19.5 -45 44 q-25 24.5 -52 52 q-27 27.5 -51 51.5 q-24 24 -41.5 42 q-17.5 18 -23.5 24 q5 5 19.5 19.5 q14.5 14.5 33.5 33.5 q19 19 41 40 q22 21 42 40 q20 19 34.5 33 q14.5 14 20.5 19 q29 28 47 44 q18 16 45 28 q13 5 26 8.5 q13 3.5 23 3.5 q9 0 9 7 q0 6 -13 6 q-8 0 -21.5 -0.5 q-13.5 -0.5 -27.5 -0.5 q-13 0 -23.5 -0.5 q-10.5 -0.5 -12.5 -0.5 q-16 0 -34 1 q-18 1 -32 1 q-10 0 -10 -6 q0 -6 8 -8 q11 -2 11 -17 q0 -11 -14.5 -26.5 q-14.5 -15.5 -33.5 -34.5 q-8 -9 -25.5 -26 q-17.5 -17 -39 -38.5 q-21.5 -21.5 -44.5 -44.5 q-23 -23 -43 -43 q-20 -20 -34.5 -34.5 q-14.5 -14.5 -17.5 -18.5 l-4 0 l0 51 q0 49 0 80 q0 31 0 50 q0 20 0.5 31.5 q0.5 11.5 1.5 21.5 q2 23 8 33 q6 10 23 14 q8 2 12 2 q5 0 10 0 q7 0 7 7 q0 7 -14 7 q-10 0 -23.5 -0.5 q-13.5 -0.5 -26.5 -0.5 q-13 0 -23.5 -0.5 q-10.5 -0.5 -13.5 -0.5 q-2 0 -12 0.5 q-10 0.5 -25 0.5 q-14 0 -30.5 0.5 q-16.5 0.5 -31.5 0.5 q-14 0 -14 -7 q0 -7 7 -7 q6 0 15.5 -0.5 q9.5 -0.5 14.5 -1.5 q22 -3 28 -14 q6 -11 8 -33 q1 -10 1.5 -21.5 q0.5 -11.5 0.5 -31.5 q0 -19 0 -50 q0 -31 0 -80 l0 -150 Z" /><glyph glyph-name="l" unicode="l" d="M235 394 q0 49 0 80 q0 31 0 50 q0 20 0.5 31.5 q0.5 11.5 0.5 21.5 q2 23 7.5 33.5 q5.5 10.5 25.5 14.5 q8 1 16 1.5 q8 0.5 13 0.5 q7 0 7 6 q0 7 -14 7 q-10 0 -26 -0.5 q-16 -0.5 -31 -0.5 q-15 0 -27 -0.5 q-12 -0.5 -13 -0.5 q-2 0 -12 0.5 q-10 0.5 -25 0.5 q-14 0 -31 0.5 q-17 0.5 -32 0.5 q-14 0 -14 -7 q0 -7 7 -7 q6 0 15.5 -0.5 q9.5 -0.5 14.5 -1.5 q22 -3 28 -14 q6 -11 8 -33 q1 -10 1.5 -21.5 q0.5 -11.5 0.5 -31.5 q0 -19 0 -50 q0 -31 0 -80 l0 -150 q0 -62 -0.5 -110 q-0.5 -48 -4.5 -74 q-3 -19 -6.5 -30.5 q-3.5 -11.5 -16.5 -14.5 q-6 -2 -13.5 -3 q-7.5 -1 -13.5 -1 q-7 0 -7 -7 q0 -7 14 -7 q11 0 24 0.5 q13 0.5 27 1.5 q13 1 23 1 q10 0 13 0 q20 0 43 -0.5 q23 -0.5 53 -1.5 q61 -3 153 -3 q18 0 28 1 q10 1 15.5 3 q5.5 2 8 6.5 q2.5 4.5 4.5 12.5 q3 9 5 22.5 q2 13.5 4 26 q2 12.5 3 23 q1 10.5 1 13.5 q0 13 -6 13 q-7 0 -9 -11 q-2 -13 -7.5 -25.5 q-5.5 -12.5 -13.5 -22.5 q-16 -19 -43.5 -22.5 q-27.5 -3.5 -62.5 -3.5 q-52 0 -79 4.5 q-27 4.5 -38 15.5 q-6 6 -9.5 19 q-3.5 13 -5.5 35.5 q-2 22.5 -2.5 56 q-0.5 33.5 -0.5 80.5 l0 152 Z" /><glyph glyph-name="m" unicode="m" d="M754 629 q-3 23 -13 23 q-7 0 -14 -14 l-256 -527 l-266 528 q-7 13 -18 13 q-8 0 -10 -15 l-64 -555 q-3 -24 -7.5 -44 q-4.5 -20 -26.5 -24 q-10 -2 -15.5 -2.5 q-5.5 -0.5 -10.5 -0.5 q-9 0 -9 -6 q0 -8 15 -8 q9 0 20.5 0.5 q11.5 0.5 22.5 1 q11 0.5 19.5 1 q8.5 0.5 11.5 0.5 q3 0 11.5 -0.5 q8.5 -0.5 20 -1 q11.5 -0.5 25 -1 q13.5 -0.5 25.5 -0.5 q16 0 16 8 q0 6 -7 6 q-5 0 -14 1 q-9 1 -20 4 q-21 5 -21 24 q0 11 0 22 q0 11 1 21 l34 384 l4 0 q6 -13 20.5 -43.5 q14.5 -30.5 31.5 -65.5 q17 -35 33.5 -69 q16.5 -34 26.5 -54 q8 -17 22 -44 q14 -27 29 -56 q15 -29 29 -55 q14 -26 23 -42 q13 -23 18.5 -31 q5.5 -8 11.5 -8 q6 0 11.5 8.5 q5.5 8.5 19.5 36.5 l212 434 l2 0 l42 -430 q2 -12 1 -20.5 q-1 -8.5 -5 -9.5 q-6 -2 -6 -7 q0 -3 4.5 -5 q4.5 -2 20.5 -4 q12 -1 34 -2 q22 -1 45.5 -1.5 q23.5 -0.5 43 -1 q19.5 -0.5 27.5 -0.5 q8 0 13 2 q5 2 5 6 q0 6 -7 6 q-7 0 -22.5 1 q-15.5 1 -34.5 7 q-14 4 -22 14.5 q-8 10.5 -13 23 q-5 12.5 -7 26 q-2 13.5 -3 24.5 l-60 522 Z" /><glyph glyph-name="n" unicode="n" d="M182 514 q10 -11 32.5 -35 q22.5 -24 53.5 -56.5 q31 -32.5 67.5 -71 q36.5 -38.5 74.5 -78.5 q35 -36 74 -75.5 q39 -39.5 72 -73 q33 -33.5 56.5 -56 q23.5 -22.5 26.5 -25.5 q18 -17 29.5 -27 q11.5 -10 19 -15.5 q7.5 -5.5 11.5 -7.5 q4 -2 7 -2 q2 0 3.5 1.5 q1.5 1.5 2 8 q0.5 6.5 1 18.5 q0.5 12 0.5 33 l2 498 q0 19 1 32 q1 13 4 21.5 q3 8.5 9 13.5 q6 5 17 7 q8 2 13 2 q5 0 8 0 q5 0 7.5 3 q2.5 3 2.5 5 q0 6 -16 6 q-27 0 -47 -1 q-20 -1 -28 -1 q-8 0 -35 1 q-27 1 -57 1 q-17 0 -17 -6 q0 -2 1 -5 q1 -3 6 -3 q5 0 18 -1 q13 -1 25 -3 q20 -4 26 -21 q6 -17 7 -58 l9 -426 q-10 10 -31.5 33 q-21.5 23 -50 53 q-28.5 30 -61 64.5 q-32.5 34.5 -65.5 68.5 q-51 52 -99 102 q-48 50 -86 90 q-38 40 -63 66.5 q-25 26.5 -30 31.5 q-7 7 -16.5 16.5 q-9.5 9.5 -17.5 9.5 q-5 0 -8.5 -8.5 q-3.5 -8.5 -3.5 -34.5 l0 -487 q0 -29 -1 -48.5 q-1 -19.5 -3.5 -31.5 q-2.5 -12 -7.5 -18 q-5 -6 -13 -8 q-10 -3 -20.5 -4 q-10.5 -1 -15.5 -1 q-7 0 -7 -7 q0 -7 14 -7 q30 0 54.5 1.5 q24.5 1.5 30.5 1.5 q6 0 30.5 -1.5 q24.5 -1.5 62.5 -1.5 q16 0 16 7 q0 7 -7 7 q-6 0 -19 1 q-13 1 -25 4 q-9 2 -15 7.5 q-6 5.5 -10 17 q-4 11.5 -6 29 q-2 17.5 -3 43.5 l-10 401 Z" /><glyph glyph-name="o" unicode="o" d="M55 320 q0 -57 20 -116.5 q20 -59.5 62 -108 q42 -48.5 107 -79 q65 -30.5 155 -30.5 q79 0 144.5 27.5 q65.5 27.5 111.5 74.5 q46 47 71.5 110.5 q25.5 63.5 25.5 134.5 q0 74 -26.5 133 q-26.5 59 -73 100.5 q-46.5 41.5 -110.5 63.5 q-64 22 -138 22 q-91 0 -157 -32.5 q-66 -32.5 -108.5 -82 q-42.5 -49.5 -63 -108 q-20.5 -58.5 -20.5 -109.5 ZM146 343 q0 69 19 121 q19 52 52.5 86.5 q33.5 34.5 80 52 q46.5 17.5 101.5 17.5 q52 0 99.5 -20 q47.5 -20 84 -59 q36.5 -39 58 -97.5 q21.5 -58.5 21.5 -134.5 q0 -92 -26 -148.5 q-26 -56.5 -63.5 -87.5 q-37.5 -31 -78 -41.5 q-40.5 -10.5 -70.5 -10.5 q-60 0 -110.5 22.5 q-50.5 22.5 -88 64.5 q-37.5 42 -58.5 101.5 q-21 59.5 -21 133.5 Z" /><glyph glyph-name="p" unicode="p" d="M155 244 q0 -62 -0.5 -110 q-0.5 -48 -4.5 -74 q-3 -19 -6.5 -30.5 q-3.5 -11.5 -16.5 -14.5 q-6 -2 -13.5 -3 q-7.5 -1 -13.5 -1 q-7 0 -7 -7 q0 -7 14 -7 q10 0 24.5 0.5 q14.5 0.5 28 1 q13.5 0.5 23.5 1 q10 0.5 11 0.5 q1 0 12 -0.5 q11 -0.5 26.5 -1 q15.5 -0.5 34.5 -1 q19 -0.5 37 -0.5 q14 0 14 7 q0 7 -7 7 q-6 0 -18 1 q-12 1 -21 3 q-20 3 -26.5 14.5 q-6.5 11.5 -8.5 30.5 q-3 26 -3.5 74 q-0.5 48 -0.5 110 l0 346 q0 15 7 16 q7 2 22.5 4 q15.5 2 26.5 2 q7 0 20 0 q14 0 30 -3.5 q16 -3.5 34 -12 q18 -8.5 35 -25.5 q18 -17 28 -35.5 q10 -18.5 15 -36 q5 -17.5 6 -32.5 q1 -15 1 -25 q0 -29 -12 -54 q-12 -25 -34 -43.5 q-22 -18.5 -51.5 -29 q-29.5 -10.5 -65.5 -10.5 q-14 0 -18.5 -2 q-4.5 -2 -4.5 -7 q0 -3 3 -5.5 q3 -2.5 6 -2.5 q4 -1 12 -1 q9 0 13 0 q51 0 92.5 14.5 q41.5 14.5 71.5 41 q30 26.5 46.5 64 q16.5 37.5 16.5 83.5 q0 35 -14.5 61.5 q-14.5 26.5 -29.5 40.5 q-6 5 -17 13 q-11 8 -30.5 16 q-19.5 8 -49 13.5 q-29.5 5.5 -71.5 5.5 q-15 0 -33.5 -0.5 q-18.5 -0.5 -36.5 -0.5 q-18 0 -33 -0.5 q-15 -0.5 -22 -0.5 q-3 0 -13.5 0.5 q-10.5 0.5 -25.5 0.5 q-14 0 -31 0.5 q-17 0.5 -32 0.5 q-14 0 -14 -7 q0 -7 7 -7 q6 0 15.5 -0.5 q9.5 -0.5 14.5 -1.5 q22 -3 28 -14 q6 -11 8 -33 q1 -10 1.5 -21.5 q0.5 -11.5 0.5 -31.5 q0 -19 0 -50 q0 -31 0 -80 l0 -150 Z" /><glyph glyph-name="q" unicode="q" d="M684 -67 q107 -58 195 -85 q88 -27 169 -27 q49 0 91.5 6 q42.5 6 78.5 15 q36 9 63.5 19.5 q27.5 10.5 46.5 18.5 q7 3 7 9 q0 2 -1.5 4 q-1.5 2 -3.5 2 q-4 0 -13 -3 q-46 -17 -92.5 -25 q-46.5 -8 -79.5 -8 q-17 0 -49.5 2.5 q-32.5 2.5 -79.5 12 q-47 9.5 -107.5 29.5 q-60.5 20 -132.5 56 l-180 89 q22 13 49 38.5 q27 25.5 50.5 61.5 q23.5 36 39.5 82.5 q16 46.5 16 102.5 q0 74 -26.5 133 q-26.5 59 -73 100.5 q-46.5 41.5 -110.5 63.5 q-64 22 -138 22 q-91 0 -157 -32.5 q-66 -32.5 -108.5 -82 q-42.5 -49.5 -63 -108 q-20.5 -58.5 -20.5 -109.5 q0 -57 19.5 -116.5 q19.5 -59.5 61.5 -108 q42 -48.5 107.5 -79 q65.5 -30.5 156.5 -30.5 q18 0 37 2 q19 2 38 5 q19 3 35.5 8 q16.5 5 28.5 11 l146 -79 ZM144 343 q0 70 19 122 q19 52 52.5 86.5 q33.5 34.5 80 51.5 q46.5 17 101.5 17 q52 0 100 -20 q48 -20 84.5 -59.5 q36.5 -39.5 58 -97.5 q21.5 -58 21.5 -134 q0 -61 -12 -106.5 q-12 -45.5 -32 -77.5 q-20 -32 -45.5 -52 q-25.5 -20 -52 -31.5 q-26.5 -11.5 -52 -16 q-25.5 -4.5 -45.5 -4.5 q-60 0 -110.5 22.5 q-50.5 22.5 -88 64.5 q-37.5 42 -58.5 101.5 q-21 59.5 -21 133.5 Z" /><glyph glyph-name="r" unicode="r" d="M155 244 q0 -62 -0.5 -110 q-0.5 -48 -4.5 -74 q-3 -19 -6.5 -30.5 q-3.5 -11.5 -16.5 -14.5 q-6 -2 -13.5 -3 q-7.5 -1 -13.5 -1 q-7 0 -7 -7 q0 -7 14 -7 q10 0 25 0.5 q15 0.5 28.5 1 q13.5 0.5 23.5 1 q10 0.5 10 0.5 q1 0 11.5 -0.5 q10.5 -0.5 26 -1 q15.5 -0.5 34 -1 q18.5 -0.5 36.5 -0.5 q14 0 14 7 q0 7 -7 7 q-6 0 -18 1 q-12 1 -21 3 q-20 3 -26.5 14.5 q-6.5 11.5 -8.5 30.5 q-3 26 -3.5 73.5 q-0.5 47.5 -0.5 109.5 l0 20 q0 7 6 7 l112 -2 q7 0 12 -5 q7 -9 17.5 -23 q10.5 -14 23 -30.5 q12.5 -16.5 26.5 -35 q14 -18.5 28 -35.5 q38 -48 64.5 -79 q26.5 -31 55.5 -46 q17 -9 36.5 -13 q19.5 -4 57.5 -4 l55 0 q12 0 16.5 1.5 q4.5 1.5 4.5 5.5 q0 7 -8 7 q-4 0 -11 0.5 q-7 0.5 -20 2.5 q-17 2 -40 12.5 q-23 10.5 -58 46.5 q-38 40 -84 96 q-46 56 -100 124 q61 52 84.5 99.5 q23.5 47.5 23.5 94.5 q0 22 -6.5 40.5 q-6.5 18.5 -16 33.5 q-9.5 15 -20 25.5 q-10.5 10.5 -18.5 16.5 q-35 24 -78.5 30.5 q-43.5 6.5 -85.5 6.5 q-10 0 -27.5 -0.5 q-17.5 -0.5 -34.5 -0.5 q-17 0 -31 -0.5 q-14 -0.5 -17 -0.5 q-2 0 -13 0.5 q-11 0.5 -26 0.5 q-15 0 -32.5 0.5 q-17.5 0.5 -32.5 0.5 q-14 0 -14 -7 q0 -7 7 -7 q6 0 15.5 -0.5 q9.5 -0.5 14.5 -1.5 q22 -3 28 -14 q6 -11 8 -33 q1 -10 1.5 -21.5 q0.5 -11.5 0.5 -31.5 q0 -19 0 -50 q0 -31 0 -80 l0 -150 ZM231 595 q0 6 7 10 q7 2 25 3.5 q18 1.5 38 1.5 q71 0 111.5 -43.5 q40.5 -43.5 40.5 -123.5 q0 -49 -15 -82 q-15 -33 -38 -48 q-16 -11 -33 -13 q-17 -2 -33 -2 q-15 0 -30 1 q-15 1 -28.5 3 q-13.5 2 -23.5 4 q-10 2 -15 5 q-6 4 -6 11 l0 273 Z" /><glyph glyph-name="s" unicode="s" d="M209 -14 q36 0 74 6 q38 6 66 24 q47 31 64.5 69 q17.5 38 17.5 76 q0 27 -7.5 52.5 q-7.5 25.5 -24.5 50 q-17 24.5 -44.5 50 q-27.5 25.5 -67.5 52.5 l-25 17 q-33 22 -54.5 39.5 q-21.5 17.5 -35 34 q-13.5 16.5 -19 33.5 q-5.5 17 -5.5 37 q0 45 34.5 68.5 q34.5 23.5 82.5 23.5 q30 0 50.5 -5 q20.5 -5 34 -12 q13.5 -7 20.5 -14 q7 -7 9 -11 q4 -7 8 -20.5 q4 -13.5 5 -21.5 q1 -5 2 -8 q1 -3 6 -3 q7 0 7 19 q0 44 2 65.5 q2 21.5 2 24.5 q0 6 -9 6 q-5 0 -11.5 0.5 q-6.5 0.5 -19.5 3.5 q-16 4 -40.5 7 q-24.5 3 -50.5 3 q-44 0 -79.5 -11 q-35.5 -11 -61.5 -31.5 q-26 -20.5 -40 -50.5 q-14 -30 -14 -67 q0 -44 27.5 -86.5 q27.5 -42.5 98.5 -95.5 l40 -30 q29 -22 50 -39 q21 -17 34.5 -33.5 q13.5 -16.5 20 -34.5 q6.5 -18 6.5 -41 q0 -48 -33 -80.5 q-33 -32.5 -99 -32.5 q-22 0 -44.5 4.5 q-22.5 4.5 -42 14.5 q-19.5 10 -33.5 26 q-14 16 -19 39 q-2 9 -2.5 17.5 q-0.5 8.5 -0.5 13.5 q0 10 -8 10 q-7 0 -7 -14 q-1 -11 -3 -34.5 q-2 -23.5 -2 -55.5 q0 -17 2 -22 q2 -5 11 -10 q27 -13 62 -18 q35 -5 66 -5 Z" /><glyph glyph-name="t" unicode="t" d="M347 601 l110 -2 q31 -1 51.5 -4.5 q20.5 -3.5 32 -10 q11.5 -6.5 16.5 -14.5 q5 -8 6 -18 l1 -9 q1 -9 2.5 -12 q1.5 -3 4.5 -3 q8 0 8 11 q0 4 0.5 16 q0.5 12 1 26.5 q0.5 14.5 1 29.5 q0.5 15 0.5 25 q0 10 -4 10 q-3 0 -9 -1 q-6 -1 -16 -3 q-11 -2 -26 -3 q-15 -1 -37 -1 l-332 0 q-8 0 -29 1 q-21 1 -40 3 q-18 2 -26 6 q-8 4 -13 4 q-2 0 -4.5 -6 q-2.5 -6 -4.5 -10 q0 -3 -3 -16.5 q-3 -13.5 -6.5 -29 q-3.5 -15.5 -6.5 -29.5 q-3 -14 -3 -17 q0 -4 2 -5.5 q2 -1.5 4 -1.5 q7 0 9 8 q2 5 4 10.5 q2 5.5 10 16.5 q10 15 28.5 20.5 q18.5 5.5 60.5 6.5 l127 2 l0 -357 q0 -62 -0.5 -110 q-0.5 -48 -3.5 -74 q-2 -19 -7 -31 q-5 -12 -19 -15 q-6 -2 -13 -3 q-7 -1 -13 -1 q-7 0 -7 -6 q0 -7 14 -7 q10 0 24.5 0.5 q14.5 0.5 29 1 q14.5 0.5 25 1 q10.5 0.5 12.5 0.5 q2 0 12.5 -0.5 q10.5 -0.5 26 -1 q15.5 -0.5 34 -1 q18.5 -0.5 36.5 -0.5 q14 0 14 7 q0 7 -7 7 q-6 0 -18.5 1 q-12.5 1 -21.5 3 q-20 3 -26 14.5 q-6 11.5 -8 30.5 q-3 26 -3.5 74 q-0.5 48 -0.5 110 l0 357 Z" /><glyph glyph-name="u" unicode="u" d="M110 269 q0 -47 6 -82 q6 -35 16.5 -61 q10.5 -26 24.5 -45.5 q14 -19.5 30 -34.5 q23 -22 50.5 -34 q27.5 -12 53.5 -18 q26 -6 47 -7 q21 -1 32 -1 q19 0 41.5 2 q22.5 2 46 8.5 q23.5 6.5 48 18.5 q24.5 12 48.5 33 q26 22 42 52 q16 30 25 63.5 q9 33.5 12 69 q3 35.5 3 70.5 l0 91 q0 49 0 80 q0 31 0 50 q0 20 0 31 q0 12 1 22 q2 21 7.5 32 q5.5 11 23.5 15 q8 2 12 2 q5 0 10 0 q7 0 7 7 q0 7 -14 7 q-20 0 -44.5 -1 q-24.5 -1 -29.5 -1 q-2 0 -11.5 0.5 q-9.5 0.5 -23.5 0.5 q-13 0 -29 0.5 q-16 0.5 -31 0.5 q-14 0 -14 -7 q0 -7 7 -7 q6 0 15.5 -0.5 q9.5 -0.5 14.5 -1.5 q22 -3 28 -15 q6 -12 7 -32 q0 -10 0.5 -21.5 q0.5 -11.5 1 -31 q0.5 -19.5 0.5 -50.5 q0 -31 0 -80 l0 -107 q0 -66 -9.5 -117.5 q-9.5 -51.5 -40.5 -88.5 q-23 -27 -59 -43.5 q-36 -16.5 -77 -16.5 q-38 0 -68.5 8.5 q-30.5 8.5 -62.5 37.5 q-14 13 -26 29.5 q-12 16.5 -20.5 41 q-8.5 24.5 -13.5 58 q-5 33.5 -5 79.5 l0 119 q0 49 0 80 q0 31 0 50 q0 20 0.5 31.5 q0.5 11.5 1.5 21.5 q2 21 7.5 32.5 q5.5 11.5 22.5 14.5 q8 2 12 2 q5 0 10 0 q8 0 8 7 q0 7 -15 7 q-10 0 -24 -0.5 q-14 -0.5 -28 -0.5 q-13 0 -23.5 -0.5 q-10.5 -0.5 -13.5 -0.5 q-3 0 -13.5 0.5 q-10.5 0.5 -25.5 0.5 q-14 0 -30.5 0.5 q-16.5 0.5 -31.5 0.5 q-14 0 -14 -7 q0 -7 7 -7 q6 0 15.5 -0.5 q9.5 -0.5 14.5 -1.5 q22 -3 28 -15 q6 -12 8 -32 q1 -10 1.5 -21.5 q0.5 -11.5 0.5 -31.5 q0 -19 0 -50 q0 -31 0 -80 l0 -125 Z" /><glyph glyph-name="v" unicode="v" d="M182 536 q-10 26 -17 44.5 q-7 18.5 -7 26.5 q0 5 1.5 8.5 q1.5 3.5 8.5 6.5 q6 2 15 3 q9 1 17 1 q9 0 9 8 q0 6 -24 6 q-26 0 -50.5 -1 q-24.5 -1 -31.5 -1 q-4 0 -15 0.5 q-11 0.5 -25 0.5 q-14 0 -30.5 0.5 q-16.5 0.5 -32.5 0.5 q-23 0 -23 -6 q0 -2 1.5 -5 q1.5 -3 5.5 -3 q4 0 13.5 -0.5 q9.5 -0.5 20.5 -2.5 q11 -3 19 -6.5 q8 -3.5 15 -10 q7 -6.5 13 -18 q6 -11.5 14 -29.5 l216 -521 q13 -31 19 -41.5 q6 -10.5 14 -10.5 q7 0 13.5 13 q6.5 13 24.5 51 q15 32 43.5 98 q28.5 66 69.5 160 q17 39 33 76.5 q16 37.5 29 68.5 q13 31 22.5 53.5 q9.5 22.5 13.5 31.5 q9 22 16 35.5 q7 13.5 13 22 q6 8.5 10.5 13 q4.5 4.5 9.5 7.5 q12 8 24.5 9 q12.5 1 17.5 1 q10 0 10 8 q0 6 -14 6 q-20 0 -42.5 -1 q-22.5 -1 -26.5 -1 q-8 0 -34 1 q-26 1 -52 1 q-20 0 -20 -7 q0 -7 10 -7 q8 0 15 -0.5 q7 -0.5 15 -2.5 q7 -2 9.5 -7.5 q2.5 -5.5 2.5 -10.5 q0 -5 -2.5 -13.5 q-2.5 -8.5 -5.5 -18.5 q-5 -15 -17 -47.5 q-12 -32.5 -28 -75 q-16 -42.5 -35.5 -90.5 q-19.5 -48 -38.5 -94.5 q-19 -46.5 -36 -88 q-17 -41.5 -30 -69.5 l-166 428 Z" /><glyph glyph-name="w" unicode="w" d="M530 597 q-8 22 -13.5 31 q-5.5 9 -10.5 9 q-4 0 -9 -6.5 q-5 -6.5 -15 -32.5 l-184 -475 l-2 0 q-3 9 -11.5 38 q-8.5 29 -20 69.5 q-11.5 40.5 -25 86 q-13.5 45.5 -25 87 q-11.5 41.5 -20.5 74.5 q-9 33 -13 46 q-8 29 -12.5 50 q-4.5 21 -4.5 29 q0 8 3.5 12 q3.5 4 8.5 6 q8 4 17 4.5 q9 0.5 14 0.5 q3 0 6 2 q3 2 3 6 q0 6 -16 6 q-33 0 -59.5 -1 q-26.5 -1 -32.5 -1 q-7 0 -38 1 q-31 1 -66 1 q-14 0 -14 -6 q0 -8 8 -8 q5 0 18 -1 q13 -1 22 -4 q9 -3 15 -7 q6 -4 11.5 -11 q5.5 -7 10 -18 q4.5 -11 9.5 -28 l156 -504 q7 -22 12 -35 q5 -13 8.5 -20 q3.5 -7 7 -9.5 q3.5 -2.5 6.5 -2.5 q8 0 14 9 q6 9 17 36 q8 20 22.5 57 q14.5 37 32 82 q17.5 45 36.5 94.5 q19 49.5 36.5 94.5 q17.5 45 31.5 81 q14 36 22 55 l172 -465 q9 -25 15.5 -34.5 q6.5 -9.5 13.5 -9.5 q4 0 7 2.5 q3 2.5 7 10.5 q4 8 9.5 22 q5.5 14 14.5 38 q9 24 21.5 60.5 q12.5 36.5 27 80 q14.5 43.5 30.5 91 q16 47.5 31 92 q15 44.5 28 83.5 q13 39 23 66 q13 35 25 59 q12 24 32 31 q8 2 18 3 q10 1 12 1 q5 0 6.5 3 q1.5 3 1.5 6 q0 5 -12 5 q-10 0 -21.5 -0.5 q-11.5 -0.5 -22.5 -0.5 q-10 0 -17.5 -0.5 q-7.5 -0.5 -9.5 -0.5 q-6 0 -31 1 q-25 1 -59 1 q-15 0 -15 -6 q0 -2 2 -5 q2 -3 6 -3 q30 0 38.5 -7 q8.5 -7 8.5 -18 q0 -8 -1.5 -18.5 q-1.5 -10.5 -8.5 -34.5 q-8 -27 -19 -64.5 q-11 -37.5 -24 -78.5 q-13 -41 -26.5 -84 q-13.5 -43 -25.5 -81 q-12 -38 -22 -69 q-10 -31 -15 -48 l-4 0 l-172 474 Z" /><glyph glyph-name="x" unicode="x" d="M108 82 q-21 -32 -36.5 -46.5 q-15.5 -14.5 -35.5 -19.5 q-22 -5 -33 -5 q-7 0 -7 -8 q0 -6 8 -6 q11 0 24 0.5 q13 0.5 24.5 1 q11.5 0.5 20 1 q8.5 0.5 11.5 0.5 q3 0 14 -0.5 q11 -0.5 24.5 -1 q13.5 -0.5 27 -1 q13.5 -0.5 21.5 -0.5 q11 0 11 6 q0 8 -8 8 q-6 0 -16 2 q-14 3 -14 14 q0 7 2.5 17 q2.5 10 8.5 21 l135 223 q40 -65 76.5 -126.5 q36.5 -61.5 72.5 -124.5 q6 -11 2.5 -17 q-3.5 -6 -7.5 -7 q-5 -2 -5 -7 q0 -3 5 -4.5 q5 -1.5 22 -2.5 q36 -2 69 -2 q34 0 75 0 q12 0 12 7 q0 7 -7 7 q-10 0 -30 5 q-20 5 -29.5 14 q-9.5 9 -20.5 23 q-5 6 -19.5 28 q-14.5 22 -33.5 53 q-19 31 -40.5 66 q-21.5 35 -41 66 q-19.5 31 -33.5 54 q-14 23 -18 29 l141 206 q19 28 33 44.5 q14 16.5 33 22.5 q8 2 16.5 3 q8.5 1 13.5 1 q5 0 7 3 q2 3 2 5 q0 6 -14 6 q-23 0 -45.5 -1 q-22.5 -1 -28.5 -1 q-6 0 -29.5 1 q-23.5 1 -48.5 1 q-15 0 -15 -6 q0 -8 8 -8 q4 0 10 0 q7 0 14 -2 q15 -5 15 -14 q0 -8 -2 -14.5 q-2 -6.5 -7 -15.5 q-3 -7 -19.5 -33.5 q-16.5 -26.5 -37 -58.5 q-20.5 -32 -40.5 -62 q-20 -30 -30 -44 q-35 55 -61.5 102.5 q-26.5 47.5 -54.5 98.5 q-4 7 -6.5 14.5 q-2.5 7.5 -2.5 13.5 q0 5 2.5 8.5 q2.5 3.5 8.5 4.5 q5 2 12 2 q7 0 12 0 q8 0 8 8 q0 3 -3 4.5 q-3 1.5 -12 1.5 q-11 0 -25 -0.5 q-14 -0.5 -27 -0.5 q-12 0 -21.5 -0.5 q-9.5 -0.5 -12.5 -0.5 q-3 0 -15.5 0.5 q-12.5 0.5 -29.5 0.5 q-16 0 -32.5 0.5 q-16.5 0.5 -25.5 0.5 q-15 0 -15 -6 q0 -2 2 -5 q2 -3 6 -3 q4 0 15 -1.5 q11 -1.5 22 -4.5 q23 -7 37.5 -24 q14.5 -17 29.5 -42 l140 -228 l-158 -244 Z" /><glyph glyph-name="y" unicode="y" d="M255 145 q0 -11 0 -35 q0 -24 -2 -50 q-2 -19 -7 -30.5 q-5 -11.5 -19 -14.5 q-6 -2 -13 -3 q-7 -1 -13 -1 q-7 0 -7 -7 q0 -7 14 -7 q10 0 24 0.5 q14 0.5 27.5 1 q13.5 0.5 23 1 q9.5 0.5 11.5 0.5 q2 0 12.5 -0.5 q10.5 -0.5 26.5 -1 q16 -0.5 35 -1 q19 -0.5 37 -0.5 q14 0 14 7 q0 7 -7 7 q-6 0 -18.5 1 q-12.5 1 -21.5 3 q-20 3 -26 14.5 q-6 11.5 -8 30.5 q-2 26 -2.5 50 q-0.5 24 -0.5 35 l0 73 q0 21 0 41 q0 21 11 44 q4 9 16.5 30 q12.5 21 29 48.5 q16.5 27.5 35.5 57.5 q19 30 36.5 57 q17.5 27 32 47.5 q14.5 20.5 21.5 29.5 q14 17 22.5 25.5 q8.5 8.5 21.5 16.5 q11 6 22 8.5 q11 2.5 19 2.5 q5 0 8 3 q3 3 3 6 q0 5 -11 5 q-6 0 -19.5 -0.5 q-13.5 -0.5 -27.5 -0.5 q-14 0 -25.5 -0.5 q-11.5 -0.5 -13.5 -0.5 q-5 0 -24.5 1 q-19.5 1 -36.5 1 q-14 0 -14 -5 q0 -7 13 -10 q14 -4 14 -22 q0 -8 -3.5 -19 q-3.5 -11 -11.5 -25 q-4 -7 -15 -25.5 q-11 -18.5 -25.5 -43 q-14.5 -24.5 -31 -51.5 q-16.5 -27 -31 -52 q-14.5 -25 -26 -45 q-11.5 -20 -15.5 -29 l-160 265 q-5 8 -8.5 16 q-3.5 8 -3.5 17 q0 9 11 14 q14 5 14 9 q0 3 -2 4.5 q-2 1.5 -10 1.5 q-26 0 -48.5 -1 q-22.5 -1 -27.5 -1 q-2 0 -13 0.5 q-11 0.5 -26 0.5 q-14 0 -28 0.5 q-14 0.5 -20 0.5 q-11 0 -11 -6 q0 -8 9 -8 q5 0 16 -3 q11 -3 21 -9 q12 -8 27 -23 q15 -15 31 -39 q7 -11 21 -33 q14 -22 31 -48.5 q17 -26.5 34.5 -54 q17.5 -27.5 32.5 -51.5 q15 -24 25 -40.5 q10 -16.5 12 -19.5 q10 -18 14.5 -35.5 q4.5 -17.5 4.5 -51.5 l0 -73 Z" /><glyph glyph-name="z" unicode="z" d="M172 37 q100 146 196 288.5 q96 142.5 193 290.5 q3 4 4 8 q1 4 1 7 q0 7 -18 7 l-246 0 q-21 0 -56 0 q-35 0 -98 2 q-17 1 -24 3.5 q-7 2.5 -13 2.5 q-7 0 -8 -16 q-2 -10 -5 -27.5 q-3 -17.5 -6 -35 q-3 -17.5 -5 -32 q-2 -14.5 -2 -18.5 q0 -11 5 -11 q4 0 7 2.5 q3 2.5 5 12.5 q2 15 14.5 35 q12.5 20 35.5 32 q21 11 56 12.5 q35 1.5 69 1.5 l186 0 q-91 -143 -187 -284 q-96 -141 -196 -285 q-8 -12 -10 -17.5 q-2 -5.5 -2 -8.5 q0 -7 16 -7 q116 0 227.5 -2 q111.5 -2 222.5 -2 q15 0 18.5 3 q3.5 3 7.5 19 q2 8 5 20.5 q3 12.5 6 26.5 q3 14 5 27.5 q2 13.5 2 23.5 q0 12 -1.5 15.5 q-1.5 3.5 -5.5 3.5 q-7 0 -10 -13 q-2 -9 -6.5 -23.5 q-4.5 -14.5 -11.5 -22.5 q-8 -9 -17 -16 q-9 -7 -24 -12.5 q-15 -5.5 -38 -8 q-23 -2.5 -58 -2.5 l-234 0 Z" /><glyph glyph-name="braceleft" unicode="{" d="M134 349 q16 6 34.5 28 q18.5 22 25.5 48 q4 15 6 32.5 q2 17.5 2.5 39 q0.5 21.5 0 48 q-0.5 26.5 -0.5 60.5 q0 32 9 54.5 q9 22.5 22 37.5 q13 15 26.5 22.5 q13.5 7.5 22.5 10.5 q16 5 16 9 q0 5 -13 5 q-16 0 -43.5 -10 q-27.5 -10 -50.5 -31 q-14 -13 -26 -28 q-12 -15 -20.5 -35.5 q-8.5 -20.5 -13 -47.5 q-4.5 -27 -4.5 -65 q0 -18 5 -48.5 q5 -30.5 5 -58.5 q0 -23 -3.5 -36 q-3.5 -13 -11.5 -20 q-8 -7 -21.5 -9 q-13.5 -2 -32.5 -3 q-8 -1 -10 -2.5 q-2 -1.5 -2 -6.5 q0 -4 2 -5 q2 -1 10 -3 q21 -4 36 -8 q15 -4 23 -17 q7 -11 7 -32 q0 -25 -3.5 -54.5 q-3.5 -29.5 -3.5 -52.5 q0 -53 4.5 -90.5 q4.5 -37.5 11.5 -63.5 q7 -26 16 -43.5 q9 -17.5 19 -30.5 q14 -19 29 -32 q15 -13 29 -20.5 q14 -7.5 26 -11 q12 -3.5 19 -3.5 q11 0 14.5 1 q3.5 1 3.5 4 q0 3 -4 5.5 q-4 2.5 -18 7.5 q-13 5 -26 17.5 q-13 12.5 -24 38 q-11 25.5 -18 66.5 q-7 41 -7 104 q0 30 0 52 q0 22 -1 39.5 q-1 17.5 -3 31 q-2 13.5 -6 27.5 q-8 30 -25 50.5 q-17 20.5 -33 28.5 Z" /><glyph glyph-name="bar" unicode="|" d="M282 -250 l0 1000 l-54 0 l0 -1000 l54 0 Z" /><glyph glyph-name="braceright" unicode="}" d="M226 349 q-16 -8 -33 -28.5 q-17 -20.5 -25 -50.5 q-5 -16 -7 -31.5 q-2 -15.5 -2.5 -32.5 q-0.5 -17 -0.5 -38 q0 -21 0 -48 q0 -63 -7 -104.5 q-7 -41.5 -18 -67 q-11 -25.5 -24 -38 q-13 -12.5 -26 -16.5 q-14 -5 -18 -7.5 q-4 -2.5 -4 -6.5 q0 -2 3.5 -3 q3.5 -1 14.5 -1 q7 0 19 3.5 q12 3.5 26 11 q14 7.5 29 20.5 q15 13 29 32 q10 13 19 30.5 q9 17.5 16 43.5 q7 26 11.5 63.5 q4.5 37.5 4.5 90.5 q0 16 -2.5 36 q-2.5 20 -4 39.5 q-1.5 19.5 -0.5 36.5 q1 17 7 27 q8 13 23 17 q15 4 36 8 q8 2 10 3 q2 1 2 5 q0 5 -2 6.5 q-2 1.5 -10 2.5 q-11 1 -27.5 1.5 q-16.5 0.5 -30.5 14.5 q-9 9 -10.5 29 q-1.5 20 1 44 q2.5 24 5.5 47.5 q3 23.5 3 38.5 q0 38 -4.5 65 q-4.5 27 -13 47.5 q-8.5 20.5 -20.5 35.5 q-12 15 -26 28 q-23 21 -50.5 31 q-27.5 10 -43.5 10 q-13 0 -13 -6 q0 -3 3.5 -4 q3.5 -1 12.5 -4 q9 -3 22.5 -10.5 q13.5 -7.5 26 -22.5 q12.5 -15 22 -37.5 q9.5 -22.5 9.5 -54.5 q0 -34 -0.5 -60.5 q-0.5 -26.5 0 -48 q0.5 -21.5 2.5 -39 q2 -17.5 6 -32.5 q7 -26 25.5 -48 q18.5 -22 34.5 -28 Z" /><glyph glyph-name="asciitilde" unicode="~" d="M110 201 q1 35 12.5 50.5 q11.5 15.5 31.5 15.5 q20 0 42.5 -10 q22.5 -10 49.5 -24 q38 -19 62.5 -26.5 q24.5 -7.5 47.5 -7.5 q19 0 36.5 6 q17.5 6 30 20 q12.5 14 19.5 36.5 q7 22.5 6 56.5 l-49 0 q-2 -67 -41 -66 q-20 0 -42 9.5 q-22 9.5 -51 23.5 q-38 18 -61 26 q-23 8 -48 8 q-41 0 -69 -29 q-28 -29 -26 -90 l49 1 Z" /><glyph glyph-name="exclamdown" unicode="" d="M162 667 q-23 0 -37.5 -15.5 q-14.5 -15.5 -14.5 -38.5 q0 -22 14.5 -35 q14.5 -13 36.5 -13 q27 0 39 17.5 q12 17.5 12 33.5 q0 17 -12 34 q-12 17 -38 17 ZM173 444 q-2 29 -4.5 40.5 q-2.5 11.5 -10.5 11.5 q-8 0 -9.5 -10.5 q-1.5 -10.5 -2.5 -21.5 q-1 -6 -2.5 -39.5 q-1.5 -33.5 -4 -81 q-2.5 -47.5 -5.5 -101.5 q-3 -54 -5 -100.5 q-2 -46.5 -4 -79.5 q-2 -33 -2 -37 q-4 -56 -9.5 -91.5 q-5.5 -35.5 -5.5 -40.5 q0 -10 6 -10 q5 0 15 5 q21 11 42 30.5 q21 19.5 32 37.5 q5 8 5 14 q0 4 -1 8.5 q-1 4.5 -3 10.5 q-3 12 -5.5 40.5 q-2.5 28.5 -4.5 60 q-2 31.5 -3.5 57 q-1.5 25.5 -1.5 31.5 l-16 266 Z" /><glyph glyph-name="cent" unicode="" d="M364 597 q45 -2 74 -15 q29 -13 39 -24 q11 -14 14.5 -28.5 q3.5 -14.5 5.5 -27.5 q0 -12 5 -12 q7 0 8 12 q1 5 2 17 q1 12 2 25.5 q1 13.5 1.5 27 q0.5 13.5 0.5 22.5 q0 6 -1 8.5 q-1 2.5 -6 5.5 q-36 14 -74.5 19.5 q-38.5 5.5 -63.5 5.5 l13 108 q2 8 -10 6 l-20 -4 q-6 -2 -7.5 -3.5 q-1.5 -1.5 -2.5 -5.5 l-11 -100 q-33 -2 -60 -6 q-27 -4 -50.5 -12 q-23.5 -8 -43.5 -20 q-20 -12 -40 -29 q-11 -9 -24.5 -26 q-13.5 -17 -25.5 -40.5 q-12 -23.5 -20 -53.5 q-8 -30 -8 -66 q0 -54 16.5 -98 q16.5 -44 45.5 -76.5 q29 -32.5 67.5 -53.5 q38.5 -21 83.5 -29 l-18 -152 q-2 -9 9 -6 l23 5 q8 2 9 11 l14 135 q11 -1 21 -1 q10 0 22 0 q28 0 63.5 3.5 q35.5 3.5 69.5 12.5 q6 2 8.5 5.5 q2.5 3.5 4.5 11.5 q1 7 3.5 21.5 q2.5 14.5 4.5 29 q2 14.5 3.5 26.5 q1.5 12 1.5 15 q0 12 -6 12 q-6 0 -9 -15 q-11 -48 -44 -62.5 q-33 -14.5 -86 -14.5 q-13 0 -24.5 0.5 q-11.5 0.5 -24.5 1.5 l45 434 ZM281 174 q-26 9 -52 27 q-26 18 -47 46.5 q-21 28.5 -34 68 q-13 39.5 -13 92.5 q0 40 13 75 q13 35 38 60.5 q25 25.5 60 40 q35 14.5 80 14.5 l-45 -424 Z" /><glyph glyph-name="sterling" unicode="" d="M251 0 q32 0 58 -0.5 q26 -0.5 51 -1.5 q25 -2 49 -2.5 q24 -0.5 52 -0.5 q21 0 33 0.5 q12 0.5 17.5 3 q5.5 2.5 7 6.5 q1.5 4 3.5 10 q3 13 6 32 q3 19 5.5 37.5 q2.5 18.5 4 33 q1.5 14.5 1.5 18.5 q0 9 -2 12 q-2 3 -5 3 q-7 0 -8 -10 q-8 -45 -29.5 -63 q-21.5 -18 -63.5 -19 l-312 -3 l-2 2 q31 27 51 62.5 q20 35.5 32.5 71.5 q12.5 36 18.5 68.5 q6 32.5 9 53.5 l5 42 l140 0 q12 0 16 8 l11 24 q4 10 -5 10 q-4 0 -15 -2.5 q-11 -2.5 -32 -2.5 l-109 0 l18 151 q11 91 50 139.5 q39 48.5 98 48.5 q37 0 61 -10 q24 -10 38 -28 q12 -16 18 -36 q6 -20 6 -31 q0 -15 8 -15 q6 0 8 12 q1 4 1.5 15.5 q0.5 11.5 1.5 27.5 q1 16 1.5 34.5 q0.5 18.5 0.5 36.5 q0 11 -7 12 q-7 1 -13 2 q-6 1 -14 3 q-16 5 -39.5 8.5 q-23.5 3.5 -47.5 3.5 q-29 0 -69 -10 q-40 -10 -82 -46 q-26 -22 -43.5 -51.5 q-17.5 -29.5 -29.5 -62.5 q-12 -33 -19.5 -67.5 q-7.5 -34.5 -11.5 -66.5 l-10 -70 l-79 0 q-5 0 -8.5 -1.5 q-3.5 -1.5 -5.5 -6.5 l-12 -21 q-4 -9 3 -9 q3 0 7.5 1 q4.5 1 13.5 1 l75 0 l-13 -105 q-5 -42 -13 -79.5 q-8 -37.5 -22.5 -67 q-14.5 -29.5 -38.5 -50 q-24 -20.5 -61 -28.5 q-8 -2 -14 -5.5 q-6 -3.5 -6 -11.5 q0 -7 9 -8.5 q9 -1.5 20 -1.5 l233 0 Z" /><glyph glyph-name="fraction" unicode="&#x2044;" d="M-227 -14 q7 -5 12 3 l543 713 q4 6 -2 10 l-19 14 q-5 3 -6.5 2 q-1.5 -1 -4.5 -5 l-542 -707 q-8 -10 -1 -13 l20 -17 Z" /><glyph glyph-name="yen" unicode="" d="M323 306 l152 0 q12 0 14 6 l6 23 q4 9 -9 9 l-162 0 q9 15 24.5 42.5 q15.5 27.5 34 61 q18.5 33.5 39 69.5 q20.5 36 38.5 67.5 q18 31.5 33 56 q15 24.5 23 34.5 q15 20 25 31.5 q10 11.5 27 19.5 q10 5 22.5 8.5 q12.5 3.5 20.5 3.5 q12 0 12 8 q0 4 -4 5.5 q-4 1.5 -9 1.5 q-7 0 -21.5 -0.5 q-14.5 -0.5 -29.5 -1 q-15 -0.5 -27.5 -1 q-12.5 -0.5 -14.5 -0.5 q-5 0 -24 1.5 q-19 1.5 -38 1.5 q-16 0 -16 -7 q0 -5 5 -7 q5 -2 11 -4 q16 -7 16 -23 q0 -21 -19 -53 q-5 -9 -16.5 -30 q-11.5 -21 -26.5 -49 q-15 -28 -32 -59 q-17 -31 -32 -58.5 q-15 -27.5 -27 -49 q-12 -21.5 -17 -30.5 q-6 8 -19.5 31 q-13.5 23 -31 54 q-17.5 31 -37 65 q-19.5 34 -36.5 64.5 q-17 30.5 -29.5 53 q-12.5 22.5 -16.5 29.5 q-13 24 -13 38 q0 14 14 18 q5 2 9.5 4 q4.5 2 4.5 5 q0 5 -4 6.5 q-4 1.5 -9 1.5 q-29 0 -52 -1.5 q-23 -1.5 -28 -1.5 q-2 0 -14.5 0.5 q-12.5 0.5 -28 1 q-15.5 0.5 -30.5 1 q-15 0.5 -22 0.5 q-10 0 -10 -8 q0 -4 3.5 -5.5 q3.5 -1.5 7.5 -1.5 q5 0 18 -2.5 q13 -2.5 26 -10.5 q12 -8 29 -27.5 q17 -19.5 33 -46.5 q8 -14 23 -39 q15 -25 33 -56 q18 -31 38 -64.5 q20 -33.5 38 -63.5 q18 -30 32 -52.5 q14 -22.5 20 -31.5 l-149 0 q-9 0 -11 -6 l-7 -21 q-2 -5 -1 -8 q1 -3 8 -3 l162 0 l0 -141 q0 -27 0 -54 q0 -27 -1 -44 q-1 -23 -11 -35.5 q-10 -12.5 -36 -16.5 q-10 -2 -24 -2.5 q-14 -0.5 -22 -0.5 q-7 0 -7 -8 q0 -7 17 -7 q20 0 40.5 0.5 q20.5 0.5 37.5 1 q17 0.5 28.5 1 q11.5 0.5 13.5 0.5 q1 0 12.5 -0.5 q11.5 -0.5 28.5 -1 q17 -0.5 38 -1 q21 -0.5 41 -0.5 q16 0 16 7 q0 3 -3 5.5 q-3 2.5 -6 2.5 q-7 0 -20.5 0.5 q-13.5 0.5 -24.5 2.5 q-26 4 -35.5 16.5 q-9.5 12.5 -10.5 35.5 q-1 17 -0.5 44 q0.5 27 0.5 54 l0 141 Z" /><glyph glyph-name="florin" unicode="&#x192;" d="M200 342 l-32 -281 q-5 -46 -10.5 -81 q-5.5 -35 -11.5 -61 q-6 -26 -13 -45 q-7 -19 -16 -33 q-22 -36 -50.5 -45 q-28.5 -9 -66.5 -9 q-7 0 -7 -10 q0 -9 37 -9 q17 0 37 3.5 q20 3.5 35 11.5 q51 24 81 76.5 q30 52.5 48 141.5 q6 31 12.5 76.5 q6.5 45.5 12.5 93.5 q6 48 11.5 93.5 q5.5 45.5 10.5 76.5 l70 0 q14 0 29.5 -0.5 q15.5 -0.5 28.5 -1.5 q13 -1 22.5 -1.5 q9.5 -0.5 12.5 -0.5 q14 0 20 10 l11 19 q8 15 -5 15 q-5 0 -20.5 -2 q-15.5 -2 -49.5 -2 l-116 0 q4 37 9 76.5 q5 39.5 11 76 q6 36.5 13.5 68 q7.5 31.5 16.5 52.5 q19 44 50 63.5 q31 19.5 73 19.5 q32 0 53 -12.5 q21 -12.5 29 -28.5 q8 -15 12 -30.5 q4 -15.5 4 -35.5 q0 -19 7 -19 q6 0 9 19 q6 44 8.5 70.5 q2.5 26.5 2.5 37.5 q0 4 -2 7.5 q-2 3.5 -10 7.5 q-21 9 -45 13.5 q-24 4.5 -55 4.5 q-32 0 -56.5 -6.5 q-24.5 -6.5 -44 -17 q-19.5 -10.5 -35 -25 q-15.5 -14.5 -28.5 -30.5 q-42 -51 -64.5 -127 q-22.5 -76 -32.5 -184 l-61 0 q-18 0 -30 1.5 q-12 1.5 -16 1.5 q-5 0 -8.5 -3.5 q-3.5 -3.5 -5.5 -8.5 l-10 -20 q-2 -5 1 -7.5 q3 -2.5 8 -1.5 q8 2 25 2.5 q17 0.5 50 0.5 l41 0 Z" /><glyph glyph-name="section" unicode="" d="M408 93 q44 25 73 65.5 q29 40.5 29 101.5 q0 28 -9.5 52 q-9.5 24 -28 46.5 q-18.5 22.5 -47 45.5 q-28.5 23 -65.5 49 l-26 18 q-32 22 -57.5 40 q-25.5 18 -43.5 36 q-18 18 -28 37 q-10 19 -10 43 q0 27 10.5 47 q10.5 20 28 33 q17.5 13 39.5 19 q22 6 46 6 q34 0 56.5 -5 q22.5 -5 35.5 -12 q13 -7 19 -14 q6 -7 8 -11 q4 -7 8 -20.5 q4 -13.5 5 -21.5 q1 -5 2 -8 q1 -3 6 -3 q7 0 7 19 q0 44 2 65.5 q2 21.5 2 24.5 q0 6 -9 6 q-5 0 -11.5 0.5 q-6.5 0.5 -19.5 3.5 q-16 4 -35.5 7 q-19.5 3 -59.5 3 q-38 0 -74.5 -9.5 q-36.5 -9.5 -65 -29.5 q-28.5 -20 -46 -50.5 q-17.5 -30.5 -17.5 -72.5 q0 -35 18 -65.5 q18 -30.5 50 -62.5 q-20 -8 -40.5 -22 q-20.5 -14 -37 -33.5 q-16.5 -19.5 -27 -43.5 q-10.5 -24 -10.5 -53 q0 -30 8.5 -54 q8.5 -24 26.5 -46 q18 -22 45 -44 q27 -22 63 -48 l32 -23 q30 -22 54 -40.5 q24 -18.5 41.5 -38 q17.5 -19.5 26.5 -41 q9 -21.5 9 -48.5 q0 -56 -38 -88.5 q-38 -32.5 -99 -32.5 q-52 0 -92.5 18.5 q-40.5 18.5 -51.5 65.5 q-2 9 -2.5 17.5 q-0.5 8.5 -0.5 13.5 q0 10 -8 10 q-7 0 -7 -14 q-1 -11 -3 -34.5 q-2 -23.5 -2 -55.5 q0 -17 2 -22 q2 -5 11 -10 q27 -13 59.5 -18 q32.5 -5 84.5 -5 q28 0 66 8 q38 8 67 27 q47 31 65 71.5 q18 40.5 18 76.5 q0 33 -11 63 q-11 30 -41 61 ZM383 116 q-17 16 -39.5 32 q-22.5 16 -45.5 31 l-28 19 q-32 22 -56.5 39.5 q-24.5 17.5 -40.5 34 q-16 16.5 -24 34 q-8 17.5 -8 40.5 q0 35 25.5 65 q25.5 30 60.5 41 q13 -11 25.5 -20.5 q12.5 -9.5 27.5 -20.5 l42 -30 q30 -21 54 -38 q24 -17 41 -34 q17 -17 26 -36 q9 -19 9 -44 q0 -14 -4.5 -30 q-4.5 -16 -13.5 -31.5 q-9 -15.5 -22 -29 q-13 -13.5 -29 -22.5 Z" /><glyph glyph-name="currency" unicode="" d="M487 449 l-42 43 l-62 -65 q-18 16 -43 25 q-25 9 -55 9 l-1 0 q-29 0 -54.5 -9 q-25.5 -9 -44.5 -26 l-60 66 l-41 -43 l66 -61 q-13 -18 -23 -44.5 q-10 -26.5 -10 -61.5 q0 -32 9.5 -58.5 q9.5 -26.5 22.5 -43.5 l-63 -61 l40 -43 l59 66 q17 -17 44.5 -26.5 q27.5 -9.5 53.5 -8.5 q25 0 51.5 9.5 q26.5 9.5 46.5 27.5 l60 -68 l42 43 l-65 62 q12 17 20 44.5 q8 27.5 9 62.5 q0 32 -8.5 57.5 q-8.5 25.5 -19.5 42.5 l68 61 ZM380 286 q0 -32 -8.5 -54.5 q-8.5 -22.5 -22.5 -36.5 q-14 -14 -31.5 -20.5 q-17.5 -6.5 -35.5 -6.5 q-16 0 -33 6.5 q-17 6.5 -31.5 21 q-14.5 14.5 -23.5 36.5 q-9 22 -9 52 q0 49 26 82.5 q26 33.5 71 33.5 l1 0 q23 0 41 -9.5 q18 -9.5 30.5 -25.5 q12.5 -16 19 -36.5 q6.5 -20.5 6.5 -42.5 Z" /><glyph glyph-name="quotesingle" unicode="&#39;" d="M100 755 q-19 0 -30.5 -1.5 q-11.5 -1.5 -11.5 -12.5 q0 -6 3.5 -19 q3.5 -13 8.5 -34 q5 -21 10.5 -51.5 q5.5 -30.5 8.5 -71.5 q2 -30 4.5 -37.5 q2.5 -7.5 6.5 -7.5 q4 0 6.5 7.5 q2.5 7.5 4.5 37.5 q3 41 8.5 71.5 q5.5 30.5 10.5 51.5 q5 21 8.5 34 q3.5 13 3.5 19 q0 11 -11.5 12.5 q-11.5 1.5 -30.5 1.5 Z" /><glyph glyph-name="quotedblleft" unicode="&#x201c;" d="M243 659 q0 43 11 81 q11 38 22 62 q4 9 4 13 q0 5 -5 5 q-8 0 -13 -8 q-13 -16 -28 -38.5 q-15 -22.5 -28 -49 q-13 -26.5 -21.5 -54.5 q-8.5 -28 -8.5 -55 q0 -11 4 -16 q4 -5 13 -10 q6 -2 15.5 -5 q9.5 -3 19.5 -6 q10 -3 19.5 -5 q9.5 -2 15.5 -2 q3 0 6 2 q3 2 3 4 q0 4 -1.5 7 q-1.5 3 -7.5 10 q-5 6 -12.5 24 q-7.5 18 -7.5 41 ZM113 659 q0 43 11 81 q11 38 22 62 q4 9 4 13 q0 5 -5 5 q-8 0 -13 -8 q-13 -16 -28 -38.5 q-15 -22.5 -28 -49 q-13 -26.5 -21.5 -54.5 q-8.5 -28 -8.5 -55 q0 -11 4 -16 q4 -5 13 -10 q6 -2 15.5 -5 q9.5 -3 19.5 -6 q10 -3 19.5 -5 q9.5 -2 15.5 -2 q3 0 6 2 q3 2 3 4 q0 4 -1.5 7 q-1.5 3 -7.5 10 q-5 6 -12.5 24 q-7.5 18 -7.5 41 Z" /><glyph glyph-name="guillemotleft" unicode="" d="M481 140 q4 4 4 7 q0 2 -3 4.5 q-3 2.5 -11 10.5 q-18 16 -40.5 38 q-22.5 22 -43 43 q-20.5 21 -36.5 38 q-16 17 -22 24 q7 10 21 27 q14 17 30.5 36.5 q16.5 19.5 33.5 40 q17 20.5 31.5 37 q14.5 16.5 24 27.5 q9.5 11 10.5 13 q6 6 6 13 q0 3 -3 5.5 q-3 2.5 -6 2.5 q-5 0 -18 -11 q-2 -2 -14.5 -14.5 q-12.5 -12.5 -31 -30.5 q-18.5 -18 -39 -38.5 q-20.5 -20.5 -40 -39 q-19.5 -18.5 -34 -33 q-14.5 -14.5 -19.5 -18.5 q-19 -16 -19 -22 q0 -5 4 -9.5 q4 -4.5 14 -14.5 q7 -8 27 -29 q20 -21 42 -45 q22 -24 42 -46 q20 -22 29 -32 q11 -13 16 -17.5 q5 -4.5 7 -4.5 q5 0 8 5 l30 33 ZM294 140 q4 4 4 7 q0 2 -3 4.5 q-3 2.5 -11 10.5 q-18 16 -40.5 38 q-22.5 22 -43 43 q-20.5 21 -36.5 38 q-16 17 -22 24 q7 10 21 27 q14 17 30.5 36.5 q16.5 19.5 33.5 40 q17 20.5 31.5 37 q14.5 16.5 24 27.5 q9.5 11 10.5 13 q6 6 6 13 q0 3 -3 5.5 q-3 2.5 -6 2.5 q-5 0 -18 -11 q-2 -2 -14.5 -14.5 q-12.5 -12.5 -31 -30.5 q-18.5 -18 -39 -38.5 q-20.5 -20.5 -40 -39 q-19.5 -18.5 -34 -33 q-14.5 -14.5 -19.5 -18.5 q-19 -16 -19 -22 q0 -5 4 -9.5 q4 -4.5 14 -14.5 q7 -8 27 -29 q20 -21 42 -45 q22 -24 42 -46 q20 -22 29 -32 q11 -13 16 -17.5 q5 -4.5 7 -4.5 q5 0 8 5 l30 33 Z" /><glyph glyph-name="guilsinglleft" unicode="&#x2039;" d="M294 140 q4 4 4 7 q0 2 -3 4.5 q-3 2.5 -11 10.5 q-18 16 -40.5 38 q-22.5 22 -43 43 q-20.5 21 -36.5 38 q-16 17 -22 24 q7 10 21 27 q14 17 30.5 36.5 q16.5 19.5 33.5 40 q17 20.5 31.5 37 q14.5 16.5 24 27.5 q9.5 11 10.5 13 q6 6 6 13 q0 3 -3 5.5 q-3 2.5 -6 2.5 q-5 0 -18 -11 q-2 -2 -14.5 -14.5 q-12.5 -12.5 -31 -30.5 q-18.5 -18 -39 -38.5 q-20.5 -20.5 -40 -39 q-19.5 -18.5 -34 -33 q-14.5 -14.5 -19.5 -18.5 q-19 -16 -19 -22 q0 -5 4 -9.5 q4 -4.5 14 -14.5 q7 -8 27 -29 q20 -21 42 -45 q22 -24 42 -46 q20 -22 29 -32 q11 -13 16 -17.5 q5 -4.5 7 -4.5 q5 0 8 5 l30 33 Z" /><glyph glyph-name="guilsinglright" unicode="&#x203a;" d="M81 469 q-4 -4 -4 -7 q0 -2 3 -4.5 q3 -2.5 11 -10.5 q18 -16 40.5 -38 q22.5 -22 43 -43 q20.5 -21 36.5 -38 q16 -17 22 -24 q-8 -10 -21.5 -27 q-13.5 -17 -30 -36.5 q-16.5 -19.5 -33.5 -40 q-17 -20.5 -31.5 -37 q-14.5 -16.5 -24 -28 q-9.5 -11.5 -10.5 -12.5 q-6 -6 -6 -13 q0 -3 3 -5.5 q3 -2.5 6 -2.5 q5 0 18 11 q2 2 14.5 14.5 q12.5 12.5 31 30.5 q18.5 18 39 38.5 q20.5 20.5 40 39 q19.5 18.5 34 33 q14.5 14.5 19.5 18.5 q11 9 15 14.5 q4 5.5 4 7.5 q0 5 -4 9.5 q-4 4.5 -14 14.5 q-8 7 -27.5 28.5 q-19.5 21.5 -41.5 45.5 q-22 24 -42 46 q-20 22 -29 32 q-11 13 -16 17.5 q-5 4.5 -7 4.5 q-5 0 -8 -5 l-30 -33 Z" /><glyph glyph-name="fi" unicode="&#xfb01;" d="M155 244 q0 -62 -0.5 -110 q-0.5 -48 -4.5 -74 q-3 -19 -6.5 -31 q-3.5 -12 -16.5 -14 q-6 -1 -13.5 -2.5 q-7.5 -1.5 -13.5 -1.5 q-7 0 -7 -7 q0 -7 14 -7 q10 0 24 0.5 q14 0.5 27.5 1 q13.5 0.5 23.5 1 q10 0.5 12 0.5 q1 0 11.5 -0.5 q10.5 -0.5 26.5 -1 q16 -0.5 35 -1 q19 -0.5 37 -0.5 q14 0 14 7 q0 7 -7 7 q-6 0 -18 1 q-12 1 -22 3 q-18 3 -24 14.5 q-6 11.5 -8 30.5 q-3 25 -3.5 73 q-0.5 48 -0.5 111 l0 68 q0 8 6 8 q6 0 25 0 q20 0 43 0 q23 0 44 -0.5 q21 -0.5 29 -1.5 q20 -3 31 -10.5 q11 -7.5 14 -16.5 q3 -8 4 -16 q1 -8 2 -15 q0 -8 6 -8 q5 0 6.5 5.5 q1.5 5.5 1.5 11.5 q0 5 0.5 24.5 q0.5 19.5 2.5 32.5 q2 21 5 32 q3 11 3 15 q0 7 -5 7 q-4 0 -11 -9 q-6 -8 -15.5 -10.5 q-9.5 -2.5 -25.5 -4.5 q-9 -1 -19 -1 q-10 0 -21 0 l-120 -1 q-5 0 -5.5 2 q-0.5 2 -0.5 6 l0 232 q0 9 7 9 l144 -2 q26 0 41 -8.5 q15 -8.5 19 -16.5 q4 -8 6 -17.5 q2 -9.5 2 -14.5 q0 -10 7 -10 q3 0 5 3 q2 3 3 6 q1 4 1.5 12 q0.5 8 1 17 q0.5 9 1 16.5 q0.5 7.5 0.5 10.5 q2 18 4.5 26.5 q2.5 8.5 2.5 13.5 q0 8 -6 8 q-2 0 -5 -2 q-3 -2 -7 -3 q-6 -2 -16.5 -2.5 q-10.5 -0.5 -23.5 -1.5 q-5 0 -23 0 q-17 0 -41 0 q-24 0 -51 0 q-27 0 -51 0 q-23 0 -41 0 q-17 0 -21 0 q-2 0 -12 0.5 q-10 0.5 -25 0.5 q-14 0 -31 0.5 q-17 0.5 -32 0.5 q-14 0 -14 -7 q0 -7 7 -7 q6 0 15.5 -0.5 q9.5 -0.5 14.5 -1.5 q22 -3 28 -14 q6 -11 8 -33 q1 -10 1.5 -21.5 q0.5 -11.5 0.5 -31.5 q0 -19 0 -50 q0 -31 0 -80 l0 -150 ZM770 394 q0 49 0 80 q0 31 0 50 q0 20 0.5 31.5 q0.5 11.5 0.5 21.5 q2 23 7.5 33 q5.5 10 23.5 14 q8 2 12 2 q5 0 10 0 q7 0 7 7 q0 7 -14 7 q-10 0 -24.5 -0.5 q-14.5 -0.5 -28.5 -0.5 q-13 0 -23.5 -0.5 q-10.5 -0.5 -11.5 -0.5 q-2 0 -12 0.5 q-10 0.5 -24 0.5 q-13 0 -27.5 0.5 q-14.5 0.5 -25.5 0.5 q-14 0 -14 -7 q0 -7 7 -7 q5 0 12 -0.5 q7 -0.5 15 -2.5 q14 -3 20 -13.5 q6 -10.5 8 -32.5 q1 -10 1.5 -21.5 q0.5 -11.5 0.5 -31.5 q0 -19 0 -50 q0 -31 0 -80 l0 -150 q0 -62 -1 -110 q-1 -48 -4 -74 q-2 -19 -6 -30.5 q-4 -11.5 -17 -14.5 q-6 -2 -13.5 -3 q-7.5 -1 -13.5 -1 q-7 0 -7 -7 q0 -7 14 -7 q10 0 24 0.5 q14 0.5 27.5 1 q13.5 0.5 23.5 1 q10 0.5 12 0.5 q1 0 11.5 -0.5 q10.5 -0.5 26.5 -1 q16 -0.5 35 -1 q19 -0.5 37 -0.5 q14 0 14 7 q0 7 -7 7 q-6 0 -18 1 q-12 1 -22 3 q-20 3 -25 14.5 q-5 11.5 -7 30.5 q-3 26 -3.5 74 q-0.5 48 -0.5 110 l0 150 Z" /><glyph glyph-name="fl" unicode="&#xfb02;" d="M155 244 q0 -62 -0.5 -110 q-0.5 -48 -4.5 -74 q-3 -19 -6.5 -31 q-3.5 -12 -16.5 -14 q-6 -1 -13.5 -2.5 q-7.5 -1.5 -13.5 -1.5 q-7 0 -7 -7 q0 -7 14 -7 q10 0 24 0.5 q14 0.5 27.5 1 q13.5 0.5 23.5 1 q10 0.5 12 0.5 q1 0 11.5 -0.5 q10.5 -0.5 26.5 -1 q16 -0.5 35 -1 q19 -0.5 37 -0.5 q14 0 14 7 q0 7 -7 7 q-6 0 -18 1 q-12 1 -22 3 q-18 3 -24 14.5 q-6 11.5 -8 30.5 q-3 25 -3.5 73 q-0.5 48 -0.5 111 l0 68 q0 8 6 8 q6 0 25 0 q20 0 43 0 q23 0 44 -0.5 q21 -0.5 29 -1.5 q20 -3 31 -10.5 q11 -7.5 14 -16.5 q3 -8 4 -16 q1 -8 2 -15 q0 -8 6 -8 q5 0 6.5 5.5 q1.5 5.5 1.5 11.5 q0 5 0.5 24.5 q0.5 19.5 2.5 32.5 q2 21 5 32 q3 11 3 15 q0 7 -5 7 q-4 0 -11 -9 q-6 -8 -15.5 -10.5 q-9.5 -2.5 -25.5 -4.5 q-9 -1 -19 -1 q-10 0 -21 0 l-120 -1 q-5 0 -5.5 2 q-0.5 2 -0.5 6 l0 232 q0 9 7 9 l144 -2 q26 0 41 -8.5 q15 -8.5 19 -16.5 q4 -8 6 -17.5 q2 -9.5 2 -14.5 q0 -10 7 -10 q3 0 5 3 q2 3 3 6 q1 4 1.5 12 q0.5 8 1 17 q0.5 9 1 16.5 q0.5 7.5 0.5 10.5 q2 18 4.5 26.5 q2.5 8.5 2.5 13.5 q0 8 -6 8 q-2 0 -5 -2 q-3 -2 -7 -3 q-6 -2 -16.5 -2.5 q-10.5 -0.5 -23.5 -1.5 q-5 0 -23 0 q-17 0 -41 0 q-24 0 -51 0 q-27 0 -51 0 q-23 0 -41 0 q-17 0 -21 0 q-2 0 -12 0.5 q-10 0.5 -25 0.5 q-14 0 -31 0.5 q-17 0.5 -32 0.5 q-14 0 -14 -7 q0 -7 7 -7 q6 0 15.5 -0.5 q9.5 -0.5 14.5 -1.5 q22 -3 28 -14 q6 -11 8 -33 q1 -10 1.5 -21.5 q0.5 -11.5 0.5 -31.5 q0 -19 0 -50 q0 -31 0 -80 l0 -150 ZM770 394 q0 49 0 80 q0 31 0 50 q0 20 0.5 31.5 q0.5 11.5 0.5 21.5 q2 23 7.5 33.5 q5.5 10.5 25.5 14.5 q8 1 16 1.5 q8 0.5 13 0.5 q7 0 7 6 q0 7 -14 7 q-10 0 -26 -0.5 q-16 -0.5 -31 -0.5 q-15 0 -27 -0.5 q-12 -0.5 -13 -0.5 q-2 0 -12 0.5 q-10 0.5 -25 0.5 q-14 0 -31 0.5 q-17 0.5 -32 0.5 q-14 0 -14 -7 q0 -7 7 -7 q6 0 15.5 -0.5 q9.5 -0.5 14.5 -1.5 q22 -3 28 -14 q6 -11 8 -33 q1 -10 1.5 -21.5 q0.5 -11.5 0.5 -31.5 q0 -19 0 -50 q0 -31 0 -80 l0 -150 q0 -62 -0.5 -110 q-0.5 -48 -4.5 -74 q-3 -19 -6.5 -30.5 q-3.5 -11.5 -16.5 -14.5 q-6 -2 -13.5 -3 q-7.5 -1 -13.5 -1 q-7 0 -7 -7 q0 -7 14 -7 q11 0 24 0.5 q13 0.5 27 1.5 q13 1 23 1 q10 0 13 0 q20 0 43 -0.5 q23 -0.5 53 -1.5 q61 -3 153 -3 q18 0 28 1 q10 1 15.5 3 q5.5 2 8 6.5 q2.5 4.5 4.5 12.5 q3 9 5 22.5 q2 13.5 4 26 q2 12.5 3 23 q1 10.5 1 13.5 q0 13 -6 13 q-7 0 -9 -11 q-2 -13 -7.5 -25.5 q-5.5 -12.5 -13.5 -22.5 q-16 -19 -43.5 -22.5 q-27.5 -3.5 -62.5 -3.5 q-52 0 -79 4.5 q-27 4.5 -38 15.5 q-6 6 -9.5 19 q-3.5 13 -5.5 35.5 q-2 22.5 -2.5 56 q-0.5 33.5 -0.5 80.5 l0 152 Z" /><glyph glyph-name="endash" unicode="&#x2013;" d="M0 282 l500 0 l0 46 l-500 0 l0 -46 Z" /><glyph glyph-name="dagger" unicode="&#x2020;" d="M267 439 l-137 3 q-18 1 -30 4 q-12 3 -16 3 q-5 0 -8.5 -3.5 q-3.5 -3.5 -5.5 -8.5 l-13 -42 q-4 -16 7 -14 q54 5 87 8 q33 3 66 4 l51 1 q0 -3 0.5 -28 q0.5 -25 1 -64 q0.5 -39 1.5 -88 q1 -49 2 -101 q1 -52 2 -102 q1 -50 2 -90.5 q1 -40.5 2 -67.5 q1 -27 1 -33 q2 -29 6 -40.5 q4 -11.5 15 -11.5 q11 0 14 10.5 q3 10.5 4 21.5 q0 4 1 33 q1 29 2 74.5 q1 45.5 2.5 105 q1.5 59.5 3 124 q1.5 64.5 3.5 131 q2 66.5 4 126.5 l106 -3 q13 0 27 -2 q14 -2 26 -4 q12 -2 20 -3.5 q8 -1.5 11 -1.5 q6 0 12 2.5 q6 2.5 8 7.5 l16 44 q6 15 -5 15 q-5 0 -20.5 -3 q-15.5 -3 -49.5 -4 l-150 -3 q1 39 2 72 q1 33 1.5 57.5 q0.5 24.5 1 39.5 q0.5 15 0.5 17 q4 56 6.5 91.5 q2.5 35.5 2.5 40.5 q0 10 -6 10 q-5 0 -15 -5 q-21 -11 -39.5 -28 q-18.5 -17 -29.5 -32 q-5 -8 -5 -14 q0 -4 1 -8.5 q1 -4.5 3 -10.5 q2 -7 3 -30.5 q1 -23.5 2 -56 q1 -32.5 1.5 -70 q0.5 -37.5 1.5 -73.5 Z" /><glyph glyph-name="daggerdbl" unicode="&#x2021;" d="M435 146 q27 -1 52.5 -3.5 q25.5 -2.5 30.5 -2.5 q6 0 12 2.5 q6 2.5 8 7.5 l10 33 q4 15 -5 15 q-5 0 -18 -2 q-13 -2 -47 -3 l-150 -3 l6 257 l101 -3 q13 0 28 -1.5 q15 -1.5 28 -3 q13 -1.5 22 -2.5 q9 -1 12 -1 q6 0 12 2.5 q6 2.5 8 7.5 l14 35 q6 15 -5 15 q-5 0 -19.5 -2 q-14.5 -2 -48.5 -3 l-151 -3 q1 20 1.5 43.5 q0.5 23.5 1.5 43.5 q1 20 1.5 34 q0.5 14 0.5 16 q2 56 4.5 91.5 q2.5 35.5 2.5 40.5 q0 10 -6 10 q-3 0 -6 -1.5 q-3 -1.5 -9 -3.5 q-21 -8 -34.5 -19 q-13.5 -11 -24.5 -22 q-4 -4 -4.5 -7 q-0.5 -3 -0.5 -7 q0 -4 1 -8.5 q1 -4.5 3 -10.5 q2 -7 2.5 -32.5 q0.5 -25.5 0.5 -57.5 q0 -31 0 -62 q0 -31 1 -48 l-140 3 q-18 1 -31 3 q-13 2 -17 2 q-5 0 -8.5 -3.5 q-3.5 -3.5 -5.5 -8.5 l-11 -34 q-6 -16 7 -14 q54 5 87 7 q33 2 66 3 l53 1 q0 -12 0.5 -37 q0.5 -25 1 -59.5 q0.5 -34.5 1 -75.5 q0.5 -41 1.5 -85 l-136 2 q-18 0 -31 2.5 q-13 2.5 -17 2.5 q-5 0 -8.5 -3.5 q-3.5 -3.5 -5.5 -8.5 l-9 -33 q-4 -16 7 -14 q27 2 46.5 4 q19.5 2 35.5 3 q16 1 30 2 q14 1 31 1 l58 1 q1 -58 2 -114.5 q1 -56.5 2 -102 q1 -45.5 2 -76 q1 -30.5 1 -36.5 q1 -29 4 -40.5 q3 -11.5 14 -11.5 q11 0 14.5 10.5 q3.5 10.5 4.5 21.5 q0 4 1 32.5 q1 28.5 1.5 75 q0.5 46.5 2 108.5 q1.5 62 3.5 133 l108 -3 Z" /><glyph glyph-name="periodcentered" unicode="" d="M124 232 q26 0 41 17 q15 17 15 41 q0 24 -16 38 q-16 14 -39 14 q-15 0 -25 -5.5 q-10 -5.5 -17 -13.5 q-7 -8 -10 -17.5 q-3 -9.5 -3 -18.5 q0 -19 12.5 -37 q12.5 -18 41.5 -18 Z" /><glyph glyph-name="paragraph" unicode="" d="M384 683 l0 -609 q0 -36 -0.5 -71 q-0.5 -35 -1 -65.5 q-0.5 -30.5 -2 -55.5 q-1.5 -25 -2.5 -40 q-2 -21 -4 -28.5 q-2 -7.5 -2 -9.5 q0 -6 8 -6 q11 0 25.5 6 q14.5 6 24.5 15 q7 7 6 13 q-2 16 -2.5 42 q-0.5 26 -0.5 59 q0 32 0 68 q0 37 0 73 l0 389 q0 58 0 95 q0 37 0 60 q0 24 0 38 q0 15 1 30 q2 20 11 28.5 q9 8.5 26 8.5 q22 0 30.5 -11.5 q8.5 -11.5 8.5 -27.5 l0 -614 q0 -72 -1.5 -123.5 q-1.5 -51.5 -3.5 -68.5 q-1 -16 -3 -25 q-2 -9 -2 -13 q0 -5 6 -5 q10 0 24 6 q14 6 24 15 q7 7 7 14 q-2 32 -2 80 q0 48 0 120 l0 393 q0 58 0 95 q0 37 0 59 q0 23 0.5 36.5 q0.5 13.5 1.5 25.5 q2 26 9 39 q7 13 27 18 q12 3 28 3 q8 0 8 6 q0 8 -16 8 q-17 0 -43 -0.5 q-26 -0.5 -51 -1 q-25 -0.5 -44 -1 q-19 -0.5 -23 -0.5 q-8 0 -23 0.5 q-15 0.5 -31 1 q-16 0.5 -30.5 1 q-14.5 0.5 -21.5 0.5 q-45 0 -81 -6 q-36 -6 -63.5 -16.5 q-27.5 -10.5 -48.5 -24 q-21 -13.5 -36 -28.5 q-26 -25 -47 -65.5 q-21 -40.5 -21 -93.5 q0 -50 18.5 -90.5 q18.5 -40.5 51.5 -69 q33 -28.5 78.5 -44 q45.5 -15.5 98.5 -15.5 q4 0 10 0 q7 0 11 1 q4 0 7.5 1.5 q3.5 1.5 3.5 5.5 q0 8 -8 9.5 q-8 1.5 -21 9.5 q-35 23 -55 73 q-20 50 -20 119 q0 12 1.5 29.5 q1.5 17.5 5 37 q3.5 19.5 10.5 39.5 q7 20 18 37 q18 29 48.5 45 q30.5 16 55.5 16 q17 0 17 -40 Z" /><glyph glyph-name="bullet" unicode="&#x2022;" d="M172 395 q0 -15 -3 -38.5 q-3 -23.5 -8 -41.5 q-2 -5 -4 -11 q-2 -6 -2 -9 q0 -5 5 -5 q4 0 9.5 4.5 q5.5 4.5 10.5 9.5 q31 28 60 56 q29 28 52 63 q2 4 4 9 q2 5 2 11 q0 11 -30 17 q-19 4 -39.5 8 q-20.5 4 -39.5 7 q-19 3 -33.5 5 q-14.5 2 -20.5 2 q-12 0 -12 -8 q0 -5 4 -6.5 q4 -1.5 10 -4.5 q9 -5 22 -19 q13 -14 13 -49 Z" /><glyph glyph-name="quotesinglbase" unicode="&#x201a;" d="M85 49 q0 -43 -11 -81 q-11 -38 -22 -62 q-4 -9 -4 -13 q0 -5 5 -5 q8 0 13 8 q13 16 28 38.5 q15 22.5 28 49 q13 26.5 21.5 54.5 q8.5 28 8.5 55 q0 11 -4 16 q-4 5 -13 10 q-6 2 -15.5 5 q-9.5 3 -19.5 6 q-10 3 -19.5 5 q-9.5 2 -15.5 2 q-3 0 -6 -2 q-3 -2 -3 -4 q0 -4 1.5 -7 q1.5 -3 7.5 -10 q5 -6 12.5 -24 q7.5 -18 7.5 -41 Z" /><glyph glyph-name="quotedblbase" unicode="&#x201e;" d="M82 49 q0 -43 -11 -81 q-11 -38 -22 -62 q-4 -9 -4 -13 q0 -5 5 -5 q8 0 13 8 q13 16 28 38.5 q15 22.5 28 49 q13 26.5 21.5 54.5 q8.5 28 8.5 55 q0 11 -4 16 q-4 5 -13 10 q-6 2 -15.5 5 q-9.5 3 -19.5 6 q-10 3 -19.5 5 q-9.5 2 -15.5 2 q-3 0 -6 -2 q-3 -2 -3 -4 q0 -4 1.5 -7 q1.5 -3 7.5 -10 q5 -6 12.5 -24 q7.5 -18 7.5 -41 ZM212 49 q0 -43 -11 -81 q-11 -38 -22 -62 q-4 -9 -4 -13 q0 -5 5 -5 q8 0 13 8 q13 16 28 38.5 q15 22.5 28 49 q13 26.5 21.5 54.5 q8.5 28 8.5 55 q0 11 -4 16 q-4 5 -13 10 q-6 2 -15.5 5 q-9.5 3 -19.5 6 q-10 3 -19.5 5 q-9.5 2 -15.5 2 q-3 0 -6 -2 q-3 -2 -3 -4 q0 -4 1.5 -7 q1.5 -3 7.5 -10 q5 -6 12.5 -24 q7.5 -18 7.5 -41 Z" /><glyph glyph-name="quotedblright" unicode="&#x201d;" d="M82 732 q0 -43 -11 -81 q-11 -38 -22 -62 q-4 -9 -4 -13 q0 -5 5 -5 q8 0 13 8 q13 16 28 38.5 q15 22.5 28 49 q13 26.5 21.5 54.5 q8.5 28 8.5 55 q0 11 -4 16 q-4 5 -13 10 q-6 2 -15.5 5 q-9.5 3 -19.5 6 q-10 3 -19.5 5 q-9.5 2 -15.5 2 q-3 0 -6 -2 q-3 -2 -3 -4 q0 -4 1.5 -7 q1.5 -3 7.5 -10 q5 -6 12.5 -24 q7.5 -18 7.5 -41 ZM212 732 q0 -43 -11 -81 q-11 -38 -22 -62 q-4 -9 -4 -13 q0 -5 5 -5 q8 0 13 8 q13 16 28 38.5 q15 22.5 28 49 q13 26.5 21.5 54.5 q8.5 28 8.5 55 q0 11 -4 16 q-4 5 -13 10 q-6 2 -15.5 5 q-9.5 3 -19.5 6 q-10 3 -19.5 5 q-9.5 2 -15.5 2 q-3 0 -6 -2 q-3 -2 -3 -4 q0 -4 1.5 -7 q1.5 -3 7.5 -10 q5 -6 12.5 -24 q7.5 -18 7.5 -41 Z" /><glyph glyph-name="guillemotright" unicode="" d="M79 469 q-4 -4 -4 -7 q0 -2 3 -4.5 q3 -2.5 11 -10.5 q18 -16 40.5 -38 q22.5 -22 43 -43 q20.5 -21 36.5 -38 q16 -17 22 -24 q-8 -10 -21.5 -27 q-13.5 -17 -30 -36.5 q-16.5 -19.5 -33.5 -40 q-17 -20.5 -31.5 -37 q-14.5 -16.5 -24 -28 q-9.5 -11.5 -10.5 -12.5 q-6 -6 -6 -13 q0 -3 3 -5.5 q3 -2.5 6 -2.5 q5 0 18 11 q2 2 14.5 14.5 q12.5 12.5 31 30.5 q18.5 18 39 38.5 q20.5 20.5 40 39 q19.5 18.5 34 33 q14.5 14.5 19.5 18.5 q11 9 15 14.5 q4 5.5 4 7.5 q0 5 -4 9.5 q-4 4.5 -14 14.5 q-8 7 -27.5 28.5 q-19.5 21.5 -41.5 45.5 q-22 24 -42 46 q-20 22 -29 32 q-11 13 -16 17.5 q-5 4.5 -7 4.5 q-5 0 -8 -5 l-30 -33 ZM266 469 q-4 -4 -4 -7 q0 -2 3 -4.5 q3 -2.5 11 -10.5 q18 -16 40.5 -38 q22.5 -22 43 -43 q20.5 -21 36.5 -38 q16 -17 22 -24 q-8 -10 -21.5 -27 q-13.5 -17 -30 -36.5 q-16.5 -19.5 -33.5 -40 q-17 -20.5 -31.5 -37 q-14.5 -16.5 -24 -28 q-9.5 -11.5 -10.5 -12.5 q-6 -6 -6 -13 q0 -3 3 -5.5 q3 -2.5 6 -2.5 q5 0 18 11 q2 2 14.5 14.5 q12.5 12.5 31 30.5 q18.5 18 39 38.5 q20.5 20.5 40 39 q19.5 18.5 34 33 q14.5 14.5 19.5 18.5 q11 9 15 14.5 q4 5.5 4 7.5 q0 5 -4 9.5 q-4 4.5 -14 14.5 q-8 7 -27.5 28.5 q-19.5 21.5 -41.5 45.5 q-22 24 -42 46 q-20 22 -29 32 q-11 13 -16 17.5 q-5 4.5 -7 4.5 q-5 0 -8 -5 l-30 -33 Z" /><glyph glyph-name="ellipsis" unicode="&#x2026;" d="M166 0 q24 0 39 16.5 q15 16.5 15 39.5 q0 23 -15.5 37 q-15.5 14 -38.5 14 q-28 0 -40.5 -18.5 q-12.5 -18.5 -12.5 -35.5 q0 -18 12.5 -35.5 q12.5 -17.5 40.5 -17.5 ZM500 0 q24 0 39 16.5 q15 16.5 15 39.5 q0 23 -15.5 37 q-15.5 14 -38.5 14 q-28 0 -40.5 -18.5 q-12.5 -18.5 -12.5 -35.5 q0 -18 12.5 -35.5 q12.5 -17.5 40.5 -17.5 ZM834 0 q24 0 39 16.5 q15 16.5 15 39.5 q0 23 -15.5 37 q-15.5 14 -38.5 14 q-28 0 -40.5 -18.5 q-12.5 -18.5 -12.5 -35.5 q0 -18 12.5 -35.5 q12.5 -17.5 40.5 -17.5 Z" /><glyph glyph-name="perthousand" unicode="&#x2030;" d="M615 0 q43 0 74 16 q31 16 51 42 q20 26 29.5 58.5 q9.5 32.5 9.5 64.5 q0 28 -9.5 58 q-9.5 30 -29 54.5 q-19.5 24.5 -49.5 40 q-30 15.5 -70 15.5 q-44 0 -75 -16 q-31 -16 -50.5 -42 q-19.5 -26 -29 -58.5 q-9.5 -32.5 -9.5 -65.5 q0 -28 9 -57.5 q9 -29.5 28.5 -54 q19.5 -24.5 49.5 -40 q30 -15.5 71 -15.5 ZM618 27 q-26 0 -45 13.5 q-19 13.5 -32 35 q-13 21.5 -19 49 q-6 27.5 -6 55.5 q0 29 5.5 54.5 q5.5 25.5 18 45 q12.5 19.5 31.5 31 q19 11.5 46 11.5 q25 0 44.5 -13.5 q19.5 -13.5 32.5 -35.5 q13 -22 19.5 -49.5 q6.5 -27.5 6.5 -55.5 q0 -29 -5.5 -54.5 q-5.5 -25.5 -18 -44.5 q-12.5 -19 -32 -30.5 q-19.5 -11.5 -46.5 -11.5 ZM285 -4 q4 1 5 3 q1 2 4 9 l280 695 q10 23 10 28 q0 3 -6 3 q-9 0 -44 -3.5 q-35 -3.5 -85.5 -7.5 q-50.5 -4 -111 -7.5 q-60.5 -3.5 -120.5 -3.5 q-43 0 -75 -16 q-32 -16 -53 -42 q-21 -26 -31.5 -58.5 q-10.5 -32.5 -10.5 -65.5 q0 -28 9 -57.5 q9 -29.5 28.5 -54 q19.5 -24.5 49.5 -40 q30 -15.5 71 -15.5 q42 0 73 16 q31 16 51 42 q20 26 30 58.5 q10 32.5 10 64.5 q0 46 -18 82 q-18 36 -44 54 l0 2 q6 0 33.5 1.5 q27.5 1.5 62 4.5 q34.5 3 70 5.5 q35.5 2.5 58.5 3.5 q-2 -5 -18.5 -44 q-16.5 -39 -42 -98.5 q-25.5 -59.5 -57 -134 q-31.5 -74.5 -64.5 -150.5 q-33 -76 -63.5 -147 q-30.5 -71 -54.5 -124 q-2 -5 0 -8.5 q2 -3.5 10 -1.5 l44 7 ZM209 389 q-26 0 -45.5 13.5 q-19.5 13.5 -32 35.5 q-12.5 22 -19 49.5 q-6.5 27.5 -6.5 55.5 q0 29 5.5 55 q5.5 26 18 45.5 q12.5 19.5 31.5 31 q19 11.5 46 11.5 q25 0 44.5 -14 q19.5 -14 32.5 -36 q13 -22 19.5 -49.5 q6.5 -27.5 6.5 -55.5 q0 -29 -5.5 -54.5 q-5.5 -25.5 -17.5 -45 q-12 -19.5 -31.5 -31 q-19.5 -11.5 -46.5 -11.5 ZM1004 0 q43 0 74 16 q31 16 51 42 q20 26 29.5 58.5 q9.5 32.5 9.5 64.5 q0 28 -9.5 58 q-9.5 30 -28.5 54.5 q-19 24.5 -49 40 q-30 15.5 -70 15.5 q-44 0 -75 -16 q-31 -16 -51 -42 q-20 -26 -29.5 -58.5 q-9.5 -32.5 -9.5 -65.5 q0 -28 9 -57.5 q9 -29.5 28.5 -54 q19.5 -24.5 49.5 -40 q30 -15.5 71 -15.5 ZM1008 27 q-26 0 -45.5 13.5 q-19.5 13.5 -32 35 q-12.5 21.5 -19 49 q-6.5 27.5 -6.5 55.5 q0 29 5.5 54.5 q5.5 25.5 18 45 q12.5 19.5 31.5 31 q19 11.5 46 11.5 q25 0 44.5 -13.5 q19.5 -13.5 32.5 -35.5 q13 -22 20 -49.5 q7 -27.5 7 -55.5 q0 -29 -5.5 -54.5 q-5.5 -25.5 -18 -44.5 q-12.5 -19 -32 -30.5 q-19.5 -11.5 -46.5 -11.5 Z" /><glyph glyph-name="questiondown" unicode="" d="M265 -83 q-34 0 -56.5 13 q-22.5 13 -36 32.5 q-13.5 19.5 -19 41.5 q-5.5 22 -5.5 40 q0 27 4 50.5 q4 23.5 14 48.5 q10 25 27 52.5 q17 27.5 43 60.5 q17 21 34.5 40.5 q17.5 19.5 34.5 42.5 q22 28 22 50 q0 14 -7 27 q-7 13 -22 32 q-9 11 -22 23 q-13 12 -20 12 q-3 0 -7 -3 q-4 -3 -4 -6 q0 -5 9 -17 q11 -14 15 -27 q4 -13 4 -24 q0 -6 -1 -13 q-1 -7 -5.5 -16 q-4.5 -9 -12.5 -21 q-8 -12 -22 -30 q-36 -45 -67.5 -79 q-31.5 -34 -54.5 -65.5 q-23 -31.5 -36.5 -65.5 q-13.5 -34 -13.5 -77 q0 -26 9.5 -54 q9.5 -28 31 -50.5 q21.5 -22.5 56 -37 q34.5 -14.5 84.5 -14.5 q58 0 100.5 13 q42.5 13 65.5 27 q8 5 9.5 8 q1.5 3 1.5 8 q0 15 0 33 q0 18 -0.5 35 q-0.5 17 -1.5 30.5 q-1 13.5 -2 18.5 q-1 10 -8 10 q-6 0 -8 -17 q-2 -26 -9.5 -48.5 q-7.5 -22.5 -25.5 -44.5 q-12 -15 -36.5 -27 q-24.5 -12 -61.5 -12 ZM263 667 q-23 0 -37.5 -15.5 q-14.5 -15.5 -14.5 -38.5 q0 -22 14.5 -35 q14.5 -13 36.5 -13 q27 0 39 17.5 q12 17.5 12 33.5 q0 17 -12 34 q-12 17 -38 17 Z" /><glyph glyph-name="grave" unicode="`" d="M506 830 q9 0 9 5 q0 3 -5.5 6 q-5.5 3 -13.5 8 q-15 10 -31.5 21.5 q-16.5 11.5 -30 22 q-13.5 10.5 -23.5 18.5 q-10 8 -13 11 q-7 7 -9 11.5 q-2 4.5 -6 4.5 q-3 0 -6.5 -1.5 q-3.5 -1.5 -9.5 -3.5 q-9 -4 -26.5 -9 q-17.5 -5 -33.5 -10 q-11 -3 -11 -8 q0 -6 29 -17 q4 -2 17.5 -6.5 q13.5 -4.5 32.5 -11.5 q19 -7 40 -14 q21 -7 39.5 -13 q18.5 -6 32.5 -10 q14 -4 19 -4 Z" /><glyph glyph-name="acute" unicode="" d="M583 933 q-6 9 -10 9 q-4 0 -9.5 -2.5 q-5.5 -2.5 -18.5 -10.5 q-3 -2 -19.5 -11.5 q-16.5 -9.5 -38 -23 q-21.5 -13.5 -43.5 -27.5 q-22 -14 -35 -23 q-7 -4 -7 -8 q0 -6 5 -6 q3 0 15 5 q12 5 30.5 11.5 q18.5 6.5 39.5 12.5 q21 6 42.5 11 q21.5 5 39.5 7 q13 2 20.5 1 q7.5 -1 9.5 -1 q3 0 5.5 2.5 q2.5 2.5 -1.5 9.5 q-8 15 -14 25.5 q-6 10.5 -11 18.5 Z" /><glyph glyph-name="circumflex" unicode="&#x2c6;" d="M582 845 q2 2 3.5 4.5 q1.5 2.5 1.5 4.5 q0 2 -12 10 q-5 4 -20 15.5 q-15 11.5 -32 24 q-17 12.5 -31.5 23.5 q-14.5 11 -17.5 13 q-6 5 -9.5 7.5 q-3.5 2.5 -6.5 2.5 q-5 0 -16 -10 q-4 -4 -20.5 -19 q-16.5 -15 -35.5 -33 q-19 -18 -35.5 -33 q-16.5 -15 -20.5 -19 q-2 -3 -4 -5.5 q-2 -2.5 -2 -5.5 q0 -8 7 -8 q7 0 18 10 q9 7 20 16.5 q11 9.5 22.5 18 q11.5 8.5 22.5 16 q11 7.5 20 12.5 q10 5 16 5 q2 0 10 -4 q4 -3 15 -11 q11 -8 24 -18 q13 -10 25 -21 q12 -11 20 -19 q4 -5 8 -5 q3 0 9 6 l21 22 Z" /><glyph glyph-name="tilde" unicode="&#x2dc;" d="M526 830 q12 0 25 8.5 q13 8.5 25 20 q12 11.5 21 23 q9 11.5 12 17.5 q4 8 4 13 q0 6 -7 6 q-5 0 -12 -11 q-1 -2 -5.5 -6.5 q-4.5 -4.5 -12 -9.5 q-7.5 -5 -18.5 -9 q-11 -4 -25 -4 q-12 0 -29.5 6 q-17.5 6 -28.5 11 q-23 11 -44.5 21 q-21.5 10 -39.5 10 q-12 0 -25 -8 q-13 -8 -25 -19.5 q-12 -11.5 -21.5 -23.5 q-9.5 -12 -14.5 -20 q-3 -5 -5 -8 q-2 -3 -2 -7 q0 -6 6 -6 q6 0 14 9 q3 3 7.5 9 q4.5 6 12 12 q7.5 6 18 10.5 q10.5 4.5 23.5 4.5 q23 0 38.5 -8.5 q15.5 -8.5 29.5 -14.5 q11 -5 32.5 -15.5 q21.5 -10.5 46.5 -10.5 Z" /><glyph glyph-name="macron" unicode="" d="M343 900 q-10 0 -11 -6 l-8 -25 q-1 -7 10 -7 l235 0 q7 0 9 6 l8 22 q4 10 -8 10 l-235 0 Z" /><glyph glyph-name="breve" unicode="&#x2d8;" d="M316 904 q-2 -2 -4.5 -3.5 q-2.5 -1.5 -2.5 -5.5 q0 -5 12.5 -16.5 q12.5 -11.5 23.5 -19.5 q20 -14 45 -21.5 q25 -7.5 48 -7.5 q32 0 55 7.5 q23 7.5 46 21.5 q9 5 19.5 14 q10.5 9 20 19 q9.5 10 16 18.5 q6.5 8.5 6.5 12.5 q0 8 -8 8 q-5 0 -12 -8 q-7 -8 -29 -24 q-14 -11 -35.5 -20 q-21.5 -9 -52.5 -9 q-5 0 -15.5 1 q-10.5 1 -23.5 6 q-13 5 -27.5 14 q-14.5 9 -27.5 26 q-5 5 -6.5 10.5 q-1.5 5.5 -6.5 5.5 q-2 0 -4.5 -1.5 q-2.5 -1.5 -4.5 -3.5 l-32 -24 Z" /><glyph glyph-name="dotaccent" unicode="&#x2d9;" d="M455 830 q23 0 37.5 15.5 q14.5 15.5 14.5 38.5 q0 23 -15 36 q-15 13 -37 13 q-27 0 -39 -17.5 q-12 -17.5 -12 -34.5 q0 -17 12 -34 q12 -17 39 -17 Z" /><glyph glyph-name="dieresis" unicode="" d="M555 830 q20 0 32 13 q12 13 12 33 q0 19 -12.5 29.5 q-12.5 10.5 -30.5 10.5 q-23 0 -33 -14.5 q-10 -14.5 -10 -28.5 q0 -14 9.5 -28.5 q9.5 -14.5 32.5 -14.5 ZM354 830 q20 0 32 13 q12 13 12 33 q0 19 -12.5 29.5 q-12.5 10.5 -30.5 10.5 q-23 0 -33 -14.5 q-10 -14.5 -10 -28.5 q0 -14 9.5 -28.5 q9.5 -14.5 32.5 -14.5 Z" /><glyph glyph-name="ring" unicode="&#x2da;" d="M434 820 q22 0 44 6 q22 6 39.5 17.5 q17.5 11.5 28 27.5 q10.5 16 10.5 37 q0 26 -22 41.5 q-22 15.5 -60 15.5 q-26 0 -47.5 -7 q-21.5 -7 -37.5 -19 q-16 -12 -24.5 -27.5 q-8.5 -15.5 -8.5 -32.5 q0 -26 20 -42.5 q20 -16.5 58 -16.5 ZM450 844 q-18 0 -34 12.5 q-16 12.5 -16 35.5 q0 13 5.5 22 q5.5 9 14 15 q8.5 6 18.5 9 q10 3 19 3 q27 0 39.5 -14 q12.5 -14 12.5 -32 q0 -21 -17 -36 q-17 -15 -42 -15 Z" /><glyph glyph-name="cedilla" unicode="" d="M472 0 l-77 -63 q-13 -10 -13 -14 q0 -5 15 -9 q44 -13 58 -32 q14 -19 14 -41 q0 -14 -6.5 -24.5 q-6.5 -10.5 -17 -18 q-10.5 -7.5 -24 -12.5 q-13.5 -5 -26.5 -6 q-8 -1 -14 -2.5 q-6 -1.5 -6 -8.5 q0 -8 13 -8 q14 0 36 4.5 q22 4.5 42 13.5 q13 5 25.5 13 q12.5 8 22.5 18.5 q10 10.5 16.5 23 q6.5 12.5 6.5 27.5 q0 31 -26.5 48.5 q-26.5 17.5 -73.5 22.5 q3 4 14 14 q11 10 23 21.5 q12 11.5 23 21 q11 9.5 15 11.5 l-40 0 Z" /><glyph glyph-name="hungarumlaut" unicode="&#x2dd;" d="M393 943 q-3 -4 -15 -19.5 q-12 -15.5 -25 -33 q-13 -17.5 -23.5 -33 q-10.5 -15.5 -11.5 -18.5 q-4 -9 3 -9 q4 0 14 11 q18 19 46.5 40 q28.5 21 51.5 35 q11 6 19 8.5 q8 2.5 11 4.5 q2 1 2 3 q0 3 -5 6 q-11 7 -20 12.5 q-9 5.5 -17 9.5 q-8 3 -13 3 q-3 0 -6 -5 q-3 -5 -11 -15 ZM523 945 q-3 -4 -16.5 -20 q-13.5 -16 -28.5 -34 q-15 -18 -27 -34 q-12 -16 -13 -19 q-3 -8 3 -8 q2 0 5.5 1.5 q3.5 1.5 8.5 7.5 q9 8 22 18 q13 10 27.5 20.5 q14.5 10.5 29 20 q14.5 9.5 27.5 16.5 q11 6 20 7.5 q9 1.5 11 2.5 q7 2 -1 10 q-11 9 -19 14.5 q-8 5.5 -16 10.5 q-8 4 -14 4 q-3 0 -7 -4.5 q-4 -4.5 -12 -13.5 Z" /><glyph glyph-name="ogonek" unicode="&#x2db;" d="M462 0 q-5 -3 -22.5 -17 q-17.5 -14 -36 -35 q-18.5 -21 -33.5 -48 q-15 -27 -15 -55 q0 -29 19.5 -49.5 q19.5 -20.5 59.5 -20.5 q21 0 41 8 q20 8 35.5 18.5 q15.5 10.5 26.5 21 q11 10.5 15 14.5 q4 5 6 7 q2 2 2 7 q0 6 -8 6 q-2 0 -8.5 -5.5 q-6.5 -5.5 -16 -12.5 q-9.5 -7 -20.5 -12.5 q-11 -5.5 -23 -5.5 q-21 0 -36 13 q-15 13 -15 37 q0 42 18.5 75.5 q18.5 33.5 39.5 53.5 l-29 0 Z" /><glyph glyph-name="caron" unicode="&#x2c7;" d="M329 920 q-2 -2 -3.5 -4.5 q-1.5 -2.5 -1.5 -4.5 q0 -2 12 -10 q5 -4 20 -15.5 q15 -11.5 32 -24 q17 -12.5 31.5 -23.5 q14.5 -11 17.5 -13 q11 -10 15 -10 q6 0 17 10 q4 4 20.5 19 q16.5 15 35.5 33 q19 18 35.5 33 q16.5 15 20.5 19 q2 3 4 5.5 q2 2.5 2 5.5 q0 8 -7 8 q-7 0 -18 -10 q-9 -8 -20 -17 q-11 -9 -22.5 -17.5 q-11.5 -8.5 -22.5 -16.5 q-11 -8 -20 -12 q-10 -5 -16 -5 q-2 0 -10 4 q-5 2 -16 10 q-11 8 -23.5 18.5 q-12.5 10.5 -25 21.5 q-12.5 11 -19.5 19 q-4 5 -8 5 q-3 0 -9 -6 l-21 -22 Z" /><glyph glyph-name="emdash" unicode="&#x2014;" d="M1000 282 l0 46 l-1000 0 l0 -46 l1000 0 Z" /><glyph glyph-name="AE" unicode="" d="M473 341 q9 0 9 -8 l0 -46 q0 -72 -0.5 -128.5 q-0.5 -56.5 -4.5 -88.5 q-3 -22 -8.5 -37 q-5.5 -15 -20.5 -18 q-7 -2 -14 -3 q-7 -1 -14 -1 q-8 0 -8 -6 q0 -8 16 -8 q11 0 26 0.5 q15 0.5 29 1.5 q14 0 24.5 0.5 q10.5 0.5 14.5 0.5 q11 0 30 -0.5 q19 -0.5 48 -2.5 q29 -1 70.5 -2 q41.5 -1 98.5 -1 q15 0 24 0.5 q9 0.5 15 3 q6 2.5 9 7.5 q3 5 6 15 q2 7 4 22 q2 15 4 30.5 q2 15.5 3.5 28 q1.5 12.5 1.5 15.5 q0 5 -0.5 10 q-0.5 5 -5.5 5 q-6 0 -9 -15 q-5 -31 -15 -47 q-10 -16 -30 -24 q-20 -8 -48 -9.5 q-28 -1.5 -48 -1.5 q-37 0 -59 3 q-22 3 -34.5 12 q-12.5 9 -17 24.5 q-4.5 15.5 -5.5 41.5 q0 8 0 31 q0 23 0 50 q0 27 0 52 q0 26 0 39 l0 45 q0 9 7 9 q6 0 25 0 q20 0 42 0 q22 0 41.5 -0.5 q19.5 -0.5 27.5 -1.5 q30 -3 43 -13.5 q13 -10.5 16 -21.5 q2 -8 2.5 -14 q0.5 -6 0.5 -10 q2 -11 8 -11 q5 0 6 6 q1 6 1 10 q0 5 1 23.5 q1 18.5 3 33.5 q2 25 5 38 q3 13 3 18 q0 8 -5 8 q-4 0 -15 -13 q-7 -8 -18 -10 q-11 -2 -29 -4 q-9 -1 -33 -1.5 q-24 -0.5 -51 -0.5 q-26 0 -48 0 q-22 0 -27 0 q-6 0 -6 10 l0 317 q0 10 6 10 q4 0 23 0 q20 0 43 -0.5 q23 -0.5 44 -1 q21 -0.5 27 -1.5 q40 -5 53 -13.5 q13 -8.5 18 -20.5 q4 -9 5 -20 q1 -11 1 -16 q0 -13 8 -13 q3 0 4.5 3.5 q1.5 3.5 2.5 7.5 q1 4 1.5 13.5 q0.5 9.5 1.5 20 q1 10.5 1.5 19.5 q0.5 9 0.5 13 q2 21 5 31.5 q3 10.5 3 15.5 q0 9 -4 9 q-4 0 -7 -2 q-3 -2 -7 -3 q-14 -3 -43 -5 q-9 0 -44.5 -0.5 q-35.5 -0.5 -76.5 -0.5 q-40 0 -73 0 q-32 0 -35 0 q-7 0 -17 2 q-5 0 -8.5 0.5 q-3.5 0.5 -6.5 0.5 q-10 0 -13 -14 q-2 -5 -5 -13 q-3 -8 -17 -29 q-69 -108 -130 -204 q-61 -96 -110 -171.5 q-49 -75.5 -82 -126.5 q-33 -51 -45 -67 q-14 -20 -26 -36 q-12 -16 -24 -29 q-12 -13 -25.5 -23.5 q-13.5 -10.5 -29.5 -18.5 q-12 -6 -24.5 -8 q-12.5 -2 -17.5 -2 q-11 0 -11 -6 q0 -8 13 -8 q18 0 37 0.5 q19 0.5 34.5 1 q15.5 0.5 27 1 q11.5 0.5 14.5 0.5 q4 0 16 -0.5 q12 -0.5 29 -1 q17 -0.5 38 -1 q21 -0.5 42 -0.5 q7 0 12 2 q5 2 5 5 q0 7 -12 7 q-8 0 -21 2 q-13 2 -23 6 q-20 8 -20 29 q0 14 8.5 36.5 q8.5 22.5 34.5 64.5 q6 11 23 39 q17 28 36 58.5 q19 30.5 35 56 q16 25.5 20 31.5 q4 5 8 6 q4 1 10 1 l176 0 ZM482 385 q0 -8 -9 -8 l-160 0 q-9 0 -4 9 q2 4 13.5 23.5 q11.5 19.5 28.5 47 q17 27.5 36.5 59.5 q19.5 32 37 60.5 q17.5 28.5 30.5 50 q13 21.5 18 28.5 q3 5 6 5 q3 0 3 -5 l0 -270 Z" /><glyph glyph-name="ordfeminine" unicode="" d="M245 522 q3 0 6 -4 l40 -90 q3 -8 -4 -10 q-4 -2 -4 -5 q0 -3 17 -3 q38 -2 65 -2 q27 0 33 0 q11 0 11 5 q0 4 -5 4 q-5 0 -11 0 q-5 0 -11 2 q-9 2 -18.5 12 q-9.5 10 -24.5 38 q-9 17 -21.5 43.5 q-12.5 26.5 -26.5 56.5 q-14 30 -27.5 60.5 q-13.5 30.5 -24.5 56 q-11 25.5 -19 43 q-8 17.5 -10 21.5 q-5 11 -8 14 q-3 3 -6 3 q-8 0 -13 -12 l-127 -295 q-8 -18 -18 -29 q-10 -11 -27 -13 q-4 -1 -9 -1 q-4 0 -7 0 q-5 0 -5 -4 q0 -5 10 -5 q20 0 37.5 1 q17.5 1 25.5 1 q7 0 21 -1 q14 -1 24 -1 q9 0 9 5 q0 4 -6 4 l-5 0 q-5 0 -9.5 3.5 q-4.5 3.5 -4.5 10.5 q0 5 2 12 q2 7 4 14 l22 60 q2 5 5 5 l120 0 ZM137 552 q-4 0 -2 4 l43 112 q5 12 10 0 l46 -112 q2 -4 -3 -4 l-94 0 Z" /><glyph glyph-name="Lslash" unicode="&#x141;" d="M262 381 l163 80 q8 3 5 9 l-11 23 q-2 6 -8 3 l-149 -72 l0 39 q0 58 0 95 q0 37 0 59 q0 23 0.5 36.5 q0.5 13.5 1.5 25.5 q2 26 9.5 39.5 q7.5 13.5 29.5 17.5 q9 2 18.5 2.5 q9.5 0.5 14.5 0.5 q8 0 8 6 q0 8 -16 8 q-11 0 -28.5 -0.5 q-17.5 -0.5 -34.5 -1 q-17 -0.5 -30 -1 q-13 -0.5 -15 -0.5 q-2 0 -13.5 0.5 q-11.5 0.5 -28 1 q-16.5 0.5 -35.5 1 q-19 0.5 -36 0.5 q-16 0 -16 -8 q0 -6 8 -6 q7 0 17.5 -0.5 q10.5 -0.5 16.5 -2.5 q25 -5 33 -18 q8 -13 10 -39 q1 -12 1.5 -25.5 q0.5 -13.5 0.5 -36.5 q0 -22 0 -59 q0 -37 0 -95 l0 -78 l-106 -55 q-4 -1 -2 -8 l10 -22 q2 -4 4 -4 q3 0 5 1 l89 46 l0 -56 q0 -72 -0.5 -128.5 q-0.5 -56.5 -4.5 -88.5 q-3 -22 -8.5 -37 q-5.5 -15 -20.5 -18 q-7 -2 -15 -3 q-8 -1 -15 -1 q-8 0 -8 -6 q0 -8 16 -8 q11 0 26.5 0.5 q15.5 0.5 30.5 1.5 q15 0 26.5 0.5 q11.5 0.5 14.5 0.5 q22 0 46 -0.5 q24 -0.5 56 -2.5 q32 -1 72 -2 q40 -1 94 -1 q20 0 31.5 1 q11.5 1 17.5 4 q6 3 8.5 8 q2.5 5 5.5 14 q3 11 5.5 26.5 q2.5 15.5 5 30.5 q2.5 15 3.5 27 q1 12 1 16 q0 15 -6 15 q-7 0 -9 -13 q-2 -14 -9 -31 q-7 -17 -17 -29 q-18 -22 -49.5 -26 q-31.5 -4 -71.5 -4 q-29 0 -49.5 1.5 q-20.5 1.5 -34 4 q-13.5 2.5 -22 7 q-8.5 4.5 -14.5 10.5 q-14 14 -18 70.5 q-4 56.5 -4 158.5 l0 96 Z" /><glyph glyph-name="Oslash" unicode="" d="M202 66 q46 -38 108 -60.5 q62 -22.5 142 -22.5 q90 0 164 32.5 q74 32.5 126 88 q52 55.5 80.5 130 q28.5 74.5 28.5 158.5 q0 83 -26 149 q-26 66 -74 114 l81 87 q6 6 0 13 l-20 16 q-9 7 -14 2 l-82 -88 q-51 40 -113.5 61 q-62.5 21 -144.5 21 q-69 0 -125 -17.5 q-56 -17.5 -100 -47.5 q-44 -30 -75.5 -69.5 q-31.5 -39.5 -52.5 -83 q-21 -43.5 -31 -88.5 q-10 -45 -10 -85 q0 -73 25.5 -148 q25.5 -75 80.5 -132 l-87 -94 q-4 -4 2 -10 l20 -19 q6 -6 10 0 l87 93 ZM695 595 q28 -44 44 -101.5 q16 -57.5 16 -129.5 q0 -109 -30.5 -176.5 q-30.5 -67.5 -74 -104.5 q-43.5 -37 -90.5 -49.5 q-47 -12.5 -81 -12.5 q-67 0 -124 26 q-57 26 -101 75 l441 473 ZM227 157 q-32 48 -50 110 q-18 62 -18 137 q0 82 22 143.5 q22 61.5 61 103 q39 41.5 92.5 62 q53.5 20.5 115.5 20.5 q61 0 117.5 -25 q56.5 -25 99.5 -76 l-440 -475 Z" /><glyph glyph-name="OE" unicode="&#x152;" d="M839 704 q0 12 6 12 q4 0 23 0 q20 0 43 -0.5 q23 -0.5 44 -1 q21 -0.5 27 -1.5 q40 -5 53 -13.5 q13 -8.5 18 -20.5 q4 -9 5 -20 q1 -11 1 -16 q0 -13 8 -13 q3 0 4.5 3.5 q1.5 3.5 2.5 7.5 q1 4 1.5 13.5 q0.5 9.5 1.5 20 q1 10.5 1.5 19.5 q0.5 9 0.5 13 q2 20 5 30 q3 10 3 15 q0 9 -4 9 q-4 0 -7 -2 q-3 -2 -7 -3 q-14 -3 -43 -5 q-6 0 -24.5 -0.5 q-18.5 -0.5 -43.5 -0.5 q-25 0 -53 0 q-27 0 -51 0 q-24 0 -41 0 q-16 0 -18 0 q-6 0 -10.5 0.5 q-4.5 0.5 -9.5 1.5 q-4 0 -6.5 0.5 q-2.5 0.5 -4.5 0.5 q-10 0 -10 -9 q0 -5 1 -15 q1 -10 1 -22 l0 -65 l-4 0 q-15 19 -40 41 q-25 22 -60 41 q-35 19 -81.5 31 q-46.5 12 -106.5 12 q-70 0 -127 -17.5 q-57 -17.5 -101.5 -47.5 q-44.5 -30 -76.5 -69 q-32 -39 -53.5 -82.5 q-21.5 -43.5 -31.5 -89 q-10 -45.5 -10 -86.5 q0 -68 22 -137.5 q22 -69.5 69.5 -126 q47.5 -56.5 121 -92.5 q73.5 -36 175.5 -36 q73 0 125.5 17.5 q52.5 17.5 88.5 40.5 q36 23 57.5 46.5 q21.5 23.5 31.5 34.5 l3 0 l-2 -88 q0 -11 -1.5 -17.5 q-1.5 -6.5 -1.5 -12.5 q0 -7 10 -7 q4 0 7 0.5 q3 0.5 7 1.5 q5 0 9.5 0.5 q4.5 0.5 10.5 0.5 q11 0 30 -0.5 q19 -0.5 48 -2.5 q29 -1 70.5 -2 q41.5 -1 98.5 -1 q15 0 24 0.5 q9 0.5 15 3 q6 2.5 9 7.5 q3 5 6 15 q2 7 4 22 q2 15 4 30.5 q2 15.5 3.5 28 q1.5 12.5 1.5 15.5 q0 5 -0.5 10 q-0.5 5 -5.5 5 q-6 0 -9 -15 q-5 -31 -15 -47 q-10 -16 -30 -24 q-20 -8 -48 -9.5 q-28 -1.5 -48 -1.5 q-37 0 -59 3 q-22 3 -34.5 12 q-12.5 9 -17 24.5 q-4.5 15.5 -5.5 41.5 q0 8 0 32 q0 24 0 54 q0 31 0 65 q0 34 0 62 l0 45 q0 9 7 9 q6 0 25 0 q20 0 42 0 q22 0 41.5 -0.5 q19.5 -0.5 27.5 -1.5 q30 -3 43 -13.5 q13 -10.5 16 -21.5 q2 -8 2.5 -14 q0.5 -6 0.5 -10 q2 -11 8 -11 q5 0 6 6 q1 6 1 10 q0 5 1 23.5 q1 18.5 3 33.5 q2 25 5 38 q3 13 3 18 q0 8 -5 8 q-4 0 -15 -13 q-7 -8 -18 -10 q-11 -2 -29 -4 q-9 -1 -33 -1.5 q-24 -0.5 -51 -0.5 q-26 0 -48 0 q-22 0 -27 0 q-6 0 -6 10 l0 276 ZM478 21 q-67 0 -125.5 27 q-58.5 27 -101.5 77 q-43 50 -67.5 121 q-24.5 71 -24.5 158 q0 82 22 143.5 q22 61.5 61 103 q39 41.5 92.5 62 q53.5 20.5 115.5 20.5 q59 0 114 -24 q55 -24 97.5 -70.5 q42.5 -46.5 68 -115.5 q25.5 -69 25.5 -159 q0 -73 -14.5 -126.5 q-14.5 -53.5 -37.5 -91.5 q-23 -38 -52.5 -62.5 q-29.5 -24.5 -60.5 -38.5 q-31 -14 -60 -19 q-29 -5 -52 -5 Z" /><glyph glyph-name="ordmasculine" unicode="" d="M216 405 q46 0 83.5 15 q37.5 15 63.5 40.5 q26 25.5 40.5 60 q14.5 34.5 14.5 73.5 q0 40 -15 72.5 q-15 32.5 -41 54.5 q-26 22 -63 34 q-37 12 -80 12 q-51 0 -88 -17 q-37 -17 -62 -43 q-25 -26 -37 -58.5 q-12 -32.5 -12 -62.5 q0 -34 11.5 -66.5 q11.5 -32.5 35.5 -58 q24 -25.5 61 -41 q37 -15.5 88 -15.5 ZM230 432 q-28 0 -53 12.5 q-25 12.5 -44 34.5 q-19 22 -30.5 52 q-11.5 30 -11.5 66 q0 37 10.5 64 q10.5 27 27.5 45 q17 18 38.5 26.5 q21.5 8.5 42.5 8.5 q25 0 49.5 -10.5 q24.5 -10.5 44 -31 q19.5 -20.5 31.5 -50 q12 -29.5 12 -68.5 q0 -48 -13 -77 q-13 -29 -32 -45 q-19 -16 -39 -21.5 q-20 -5.5 -33 -5.5 Z" /><glyph glyph-name="ae" unicode="" d="M419 286 q8 0 8 -7 l0 -35 q0 -62 -0.5 -110 q-0.5 -48 -3.5 -74 q-2 -19 -7 -31 q-5 -12 -19 -14 q-6 -1 -13.5 -2.5 q-7.5 -1.5 -13.5 -1.5 q-7 0 -7 -7 q0 -7 14 -7 q10 0 23 0.5 q13 0.5 25 1.5 q12 0 21.5 0.5 q9.5 0.5 12.5 0.5 q10 0 28 -0.5 q18 -0.5 46 -1.5 q55 -3 154 -3 q13 0 21 0.5 q8 0.5 13 2.5 q5 2 8 6.5 q3 4.5 5 12.5 q2 6 4 19 q2 13 4 26 q2 13 3 23.5 q1 10.5 1 13.5 q0 5 -0.5 8.5 q-0.5 3.5 -5.5 3.5 q-7 0 -10 -12 q-5 -26 -12.5 -38 q-7.5 -12 -24.5 -20 q-17 -7 -42.5 -8 q-25.5 -1 -42.5 -1 q-32 0 -52.5 1.5 q-20.5 1.5 -32 8 q-11.5 6.5 -16 19 q-4.5 12.5 -5.5 34.5 q0 7 0 27 q0 20 0 43 q0 24 0 46 q0 22 0 33 l0 35 q0 8 6 8 q6 0 23 0 q18 0 38 0 q20 0 38.5 -0.5 q18.5 -0.5 24.5 -1.5 q26 -2 37 -10 q11 -8 13 -17 q2 -7 2.5 -10.5 q0.5 -3.5 0.5 -5.5 q0 -13 9 -13 q5 0 5.5 5 q0.5 5 0.5 8 q0 5 0.5 20.5 q0.5 15.5 2.5 28.5 q2 21 4.5 32 q2.5 11 2.5 15 q0 7 -4 7 q-5 0 -13 -11 q-5 -7 -15 -8 q-10 -1 -26 -3 q-8 -1 -30 -1.5 q-22 -0.5 -46 -0.5 q-24 0 -44 0 q-20 0 -24 0 q-6 0 -6 9 l0 265 q0 9 6 9 q3 0 21 0 q18 0 39 -0.5 q21 -0.5 39.5 -1 q18.5 -0.5 24.5 -1.5 q18 -2 29 -4.5 q11 -2.5 17 -5.5 q6 -3 9 -7 q3 -4 6 -9 q3 -8 4 -16.5 q1 -8.5 1 -13.5 q0 -11 9 -11 q2 0 3.5 3 q1.5 3 2.5 6 q1 4 1.5 12 q0.5 8 1.5 17 q1 9 1.5 16.5 q0.5 7.5 0.5 10.5 q2 18 4.5 26.5 q2.5 8.5 2.5 13.5 q0 8 -4 8 q-3 0 -6 -2 q-3 -2 -6 -2 q-5 -2 -15 -3.5 q-10 -1.5 -23 -1.5 l-212 0 q-7 0 -15 1 q-8 1 -13 1 q-8 0 -11 -12 q-2 -5 -5 -11.5 q-3 -6.5 -15 -24.5 q-60 -91 -114 -172.5 q-54 -81.5 -97 -146 q-43 -64.5 -72 -107.5 q-29 -43 -40 -57 q-13 -17 -23.5 -30.5 q-10.5 -13.5 -21 -24.5 q-10.5 -11 -21.5 -20 q-11 -9 -26 -16 q-11 -5 -21.5 -7 q-10.5 -2 -15.5 -2 q-10 0 -10 -5 q0 -7 12 -7 q16 0 32.5 0.5 q16.5 0.5 30.5 1 q14 0.5 23.5 1 q9.5 0.5 12.5 0.5 q7 0 40.5 -1.5 q33.5 -1.5 70.5 -1.5 q6 0 10.5 2 q4.5 2 4.5 4 q0 8 -10 8 q-8 0 -19 2 q-11 2 -19 5 q-17 6 -17 23 q0 11 8 30.5 q8 19.5 31 55.5 q6 9 20.5 32 q14.5 23 31 48.5 q16.5 25.5 30 46.5 q13.5 21 17.5 26 q3 5 6.5 5.5 q3.5 0.5 8.5 0.5 l156 0 ZM427 327 q0 -7 -8 -7 l-141 0 q-8 0 -3 8 q2 3 12.5 20 q10.5 17 25 40.5 q14.5 23.5 31.5 50.5 q17 27 32.5 51.5 q15.5 24.5 27 42.5 q11.5 18 15.5 24 q3 4 5 4 q3 0 3 -4 l0 -230 Z" /><glyph glyph-name="dotlessi" unicode="&#x131;" d="M235 394 q0 49 0 80 q0 31 0 50 q0 20 0.5 31.5 q0.5 11.5 0.5 21.5 q2 23 7.5 33 q5.5 10 23.5 14 q8 2 12 2 q5 0 10 0 q7 0 7 7 q0 7 -14 7 q-10 0 -24.5 -0.5 q-14.5 -0.5 -28.5 -0.5 q-13 0 -23.5 -0.5 q-10.5 -0.5 -11.5 -0.5 q-2 0 -12 0.5 q-10 0.5 -24 0.5 q-13 0 -27.5 0.5 q-14.5 0.5 -25.5 0.5 q-14 0 -14 -7 q0 -7 7 -7 q5 0 12 -0.5 q7 -0.5 15 -2.5 q14 -3 20 -13.5 q6 -10.5 8 -32.5 q1 -10 1.5 -21.5 q0.5 -11.5 0.5 -31.5 q0 -19 0 -50 q0 -31 0 -80 l0 -150 q0 -62 -1 -110 q-1 -48 -4 -74 q-2 -19 -6 -30.5 q-4 -11.5 -17 -14.5 q-6 -2 -13.5 -3 q-7.5 -1 -13.5 -1 q-7 0 -7 -7 q0 -7 14 -7 q10 0 24 0.5 q14 0.5 27.5 1 q13.5 0.5 23.5 1 q10 0.5 12 0.5 q1 0 11.5 -0.5 q10.5 -0.5 26.5 -1 q16 -0.5 35 -1 q19 -0.5 37 -0.5 q14 0 14 7 q0 7 -7 7 q-6 0 -18 1 q-12 1 -22 3 q-20 3 -25 14.5 q-5 11.5 -7 30.5 q-3 26 -3.5 74 q-0.5 48 -0.5 110 l0 150 Z" /><glyph glyph-name="lslash" unicode="&#x142;" d="M235 322 l142 67 q6 3 4 8 l-11 25 q-2 5 -7 3 l-128 -63 l0 32 q0 49 0 80 q0 31 0 50 q0 20 0.5 31.5 q0.5 11.5 0.5 21.5 q2 23 7.5 33 q5.5 10 25.5 14 q8 1 16 1.5 q8 0.5 13 0.5 q7 0 7 7 q0 7 -14 7 q-10 0 -25.5 -0.5 q-15.5 -0.5 -30.5 -0.5 q-15 0 -26.5 -0.5 q-11.5 -0.5 -12.5 -0.5 q-2 0 -12.5 0.5 q-10.5 0.5 -25.5 0.5 q-15 0 -32 0.5 q-17 0.5 -32 0.5 q-14 0 -14 -7 q0 -7 7 -7 q6 0 15.5 -0.5 q9.5 -0.5 14.5 -1.5 q22 -3 28 -14 q6 -11 8 -33 q1 -10 1.5 -21.5 q0.5 -11.5 0.5 -31.5 q0 -19 0 -50 q0 -31 0 -80 l0 -65 l-92 -45 q-4 -2 -1 -7 l10 -24 q2 -3 4 -3 q2 0 4 0 l75 40 l0 -46 q0 -62 -0.5 -110 q-0.5 -48 -4.5 -74 q-3 -19 -6.5 -31 q-3.5 -12 -16.5 -15 q-6 -2 -13.5 -3 q-7.5 -1 -13.5 -1 q-7 0 -7 -6 q0 -7 14 -7 q11 0 24 1 q13 1 27 1 q14 1 24 1 q11 0 14 0 q20 0 43 -0.5 q23 -0.5 52 -1.5 q58 -3 151 -3 q18 0 28 1 q10 1 15.5 3 q5.5 2 8 6.5 q2.5 4.5 4.5 12.5 q3 9 5 22.5 q2 13.5 4 26 q2 12.5 3 23 q1 10.5 1 13.5 q0 13 -7 13 q-6 0 -8 -11 q-2 -13 -8.5 -27 q-6.5 -14 -14.5 -24 q-16 -19 -42.5 -21 q-26.5 -2 -61.5 -2 q-52 0 -78 4.5 q-26 4.5 -37 15.5 q-13 12 -16 58.5 q-3 46.5 -3 132.5 l0 80 Z" /><glyph glyph-name="oslash" unicode="" d="M179 56 q40 -32 95 -51 q55 -19 126 -19 q79 0 144 27.5 q65 27.5 111.5 74.5 q46.5 47 71.5 110.5 q25 63.5 25 134.5 q0 71 -23.5 126.5 q-23.5 55.5 -65.5 97.5 l71 73 q3 3 3.5 5 q0.5 2 -3.5 6 l-17 17 q-8 8 -13 2 l-73 -78 q-45 34 -100.5 52 q-55.5 18 -127.5 18 q-91 0 -157 -32.5 q-66 -32.5 -108.5 -82 q-42.5 -49.5 -62.5 -108 q-20 -58.5 -20 -109.5 q0 -63 22.5 -127 q22.5 -64 71.5 -112 l-77 -79 q-4 -4 2 -9 l20 -17 q6 -5 9 0 l76 80 ZM611 505 q24 -38 37 -86.5 q13 -48.5 13 -109.5 q0 -61 -12 -106 q-12 -45 -31.5 -77 q-19.5 -32 -45 -52.5 q-25.5 -20.5 -52 -32 q-26.5 -11.5 -52 -16 q-25.5 -4.5 -45.5 -4.5 q-120 0 -196 84 l384 400 ZM203 134 q-58 84 -58 209 q0 69 19 121 q19 52 52.5 86.5 q33.5 34.5 79.5 52 q46 17.5 101 17.5 q54 0 102.5 -20.5 q48.5 -20.5 86.5 -63.5 l-383 -402 Z" /><glyph glyph-name="oe" unicode="&#x153;" d="M744 595 q0 11 6 11 q3 0 21 0 q18 0 39 -0.5 q21 -0.5 40 -1 q19 -0.5 25 -1.5 q32 -5 44 -10.5 q12 -5.5 17 -16.5 q3 -8 4 -16.5 q1 -8.5 1 -13.5 q0 -11 8 -11 q2 0 4 3 q2 3 3 6 q1 4 1.5 12 q0.5 8 1.5 17 q1 9 1.5 17 q0.5 8 0.5 11 q2 17 4.5 25 q2.5 8 2.5 13 q0 8 -4 8 q-3 0 -6 -1.5 q-3 -1.5 -6 -2.5 q-5 -1 -15 -3 q-10 -2 -23 -2 l-214 0 q-11 0 -15.5 1 q-4.5 1 -8.5 1 q-8 0 -8 -8 q0 -5 0.5 -12.5 q0.5 -7.5 0.5 -18.5 l0 -60 l-3 0 q-15 18 -37.5 38 q-22.5 20 -54 36 q-31.5 16 -73 26.5 q-41.5 10.5 -94.5 10.5 q-92 0 -158.5 -32.5 q-66.5 -32.5 -109.5 -81.5 q-43 -49 -63.5 -107.5 q-20.5 -58.5 -20.5 -111.5 q0 -58 19.5 -117 q19.5 -59 61.5 -107 q42 -48 106.5 -78.5 q64.5 -30.5 154.5 -30.5 q64 0 110.5 15 q46.5 15 78.5 35 q32 20 52 40.5 q20 20.5 30 32.5 l3 0 l-2 -80 q0 -9 -1 -15 q-1 -6 -1 -11 q0 -6 8 -6 q6 0 10.5 1.5 q4.5 1.5 15.5 1.5 q11 0 28 -0.5 q17 -0.5 43 -1.5 q26 -1 67 -2 q41 -1 91 -1 q13 0 21 0.5 q8 0.5 13 2.5 q5 2 8 6.5 q3 4.5 5 12.5 q2 6 4 19 q2 13 4 26 q2 13 3 23.5 q1 10.5 1 13.5 q0 5 -1 8.5 q-1 3.5 -6 3.5 q-6 0 -9 -12 q-5 -26 -14 -38 q-9 -12 -24 -20 q-8 -4 -19 -6 q-11 -2 -22.5 -2.5 q-11.5 -0.5 -22.5 -0.5 q-11 0 -20 0 q-32 0 -52.5 2 q-20.5 2 -32 8.5 q-11.5 6.5 -16.5 19 q-5 12.5 -6 34.5 q0 7 0 27 q0 21 0 47 q0 27 0 56 q0 29 0 53 l0 36 q0 8 6 8 q6 0 23 0 q18 0 38 0 q21 0 39.5 -0.5 q18.5 -0.5 24.5 -1.5 q26 -2 37 -10.5 q11 -8.5 13 -17.5 q2 -7 2.5 -12 q0.5 -5 0.5 -8 q0 -9 8 -9 q5 0 6 5 q1 5 1 8 q0 5 0.5 20.5 q0.5 15.5 2.5 28.5 q2 21 4.5 32 q2.5 11 2.5 15 q0 7 -4 7 q-4 0 -13 -11 q-6 -7 -15.5 -8 q-9.5 -1 -25.5 -3 q-8 -1 -30 -1.5 q-22 -0.5 -46 -0.5 q-24 0 -45 0 q-20 0 -24 0 q-6 0 -6 9 l0 230 ZM422 21 q-59 0 -110 23 q-51 23 -88 65.5 q-37 42.5 -58 102 q-21 59.5 -21 131.5 q0 69 19 121 q19 52 52.5 86.5 q33.5 34.5 79.5 52 q46 17.5 101 17.5 q52 0 101 -21 q49 -21 87 -60.5 q38 -39.5 61 -97.5 q23 -58 23 -132 q0 -91 -27.5 -147 q-27.5 -56 -66.5 -87.5 q-39 -31.5 -81 -42.5 q-42 -11 -72 -11 Z" /><glyph glyph-name="germandbls" unicode="" d="M209 -14 q36 0 74 6 q38 6 66 24 q47 31 64.5 69 q17.5 38 17.5 76 q0 27 -7.5 52.5 q-7.5 25.5 -24.5 50 q-17 24.5 -44.5 50 q-27.5 25.5 -67.5 52.5 l-25 17 q-33 22 -54.5 39.5 q-21.5 17.5 -35 34 q-13.5 16.5 -19 33.5 q-5.5 17 -5.5 37 q0 45 34.5 68.5 q34.5 23.5 82.5 23.5 q30 0 50.5 -5 q20.5 -5 34 -12 q13.5 -7 20.5 -14 q7 -7 9 -11 q4 -7 8 -20.5 q4 -13.5 5 -21.5 q1 -5 2 -8 q1 -3 6 -3 q7 0 7 19 q0 44 2 65.5 q2 21.5 2 24.5 q0 6 -9 6 q-5 0 -11.5 0.5 q-6.5 0.5 -19.5 3.5 q-16 4 -40.5 7 q-24.5 3 -50.5 3 q-44 0 -79.5 -11 q-35.5 -11 -61.5 -31.5 q-26 -20.5 -40 -50.5 q-14 -30 -14 -67 q0 -44 27.5 -86.5 q27.5 -42.5 98.5 -95.5 l40 -30 q29 -22 50 -39 q21 -17 34.5 -33.5 q13.5 -16.5 20 -34.5 q6.5 -18 6.5 -41 q0 -48 -33 -80.5 q-33 -32.5 -99 -32.5 q-22 0 -44.5 4.5 q-22.5 4.5 -42 14.5 q-19.5 10 -33.5 26 q-14 16 -19 39 q-2 9 -2.5 17.5 q-0.5 8.5 -0.5 13.5 q0 10 -8 10 q-7 0 -7 -14 q-1 -11 -3 -34.5 q-2 -23.5 -2 -55.5 q0 -17 2 -22 q2 -5 11 -10 q27 -13 62 -18 q35 -5 66 -5 ZM733 -14 q36 0 74 6 q38 6 66 24 q47 31 64.5 69 q17.5 38 17.5 76 q0 27 -7.5 52.5 q-7.5 25.5 -24.5 50 q-17 24.5 -44.5 50 q-27.5 25.5 -67.5 52.5 l-25 17 q-33 22 -54.5 39.5 q-21.5 17.5 -35 34 q-13.5 16.5 -19 33.5 q-5.5 17 -5.5 37 q0 45 34.5 68.5 q34.5 23.5 82.5 23.5 q30 0 50.5 -5 q20.5 -5 34 -12 q13.5 -7 20.5 -14 q7 -7 9 -11 q4 -7 8 -20.5 q4 -13.5 5 -21.5 q1 -5 2 -8 q1 -3 6 -3 q7 0 7 19 q0 44 2 65.5 q2 21.5 2 24.5 q0 6 -9 6 q-5 0 -11.5 0.5 q-6.5 0.5 -19.5 3.5 q-16 4 -40.5 7 q-24.5 3 -50.5 3 q-44 0 -79.5 -11 q-35.5 -11 -61.5 -31.5 q-26 -20.5 -40 -50.5 q-14 -30 -14 -67 q0 -44 27.5 -86.5 q27.5 -42.5 98.5 -95.5 l40 -30 q29 -22 50 -39 q21 -17 34.5 -33.5 q13.5 -16.5 20 -34.5 q6.5 -18 6.5 -41 q0 -48 -33 -80.5 q-33 -32.5 -99 -32.5 q-22 0 -44.5 4.5 q-22.5 4.5 -42 14.5 q-19.5 10 -33.5 26 q-14 16 -19 39 q-2 9 -2.5 17.5 q-0.5 8.5 -0.5 13.5 q0 10 -8 10 q-7 0 -7 -14 q-1 -11 -3 -34.5 q-2 -23.5 -2 -55.5 q0 -17 2 -22 q2 -5 11 -10 q27 -13 62 -18 q35 -5 66 -5 Z" /><glyph glyph-name="onesuperior" unicode="" d="M200 595 q0 74 1.5 114.5 q1.5 40.5 1.5 44.5 q0 13 -6 13 q-4 0 -9 -3 q-5 -3 -9 -6 q-2 -1 -13 -8 q-11 -7 -27 -17 q-16 -10 -34 -21 q-18 -11 -33.5 -20.5 q-15.5 -9.5 -26.5 -16.5 q-11 -7 -12 -8 q-3 -3 -3 -7 q0 -6 6 -6 q2 0 4.5 1 q2.5 1 4.5 2 q6 3 18 8 q12 5 25 10 q13 5 24 8.5 q11 3.5 16 3.5 q8 0 9.5 -4.5 q1.5 -4.5 2.5 -11.5 q1 -8 1 -30 q0 -22 0 -46 l0 -110 q0 -41 -0.5 -76 q-0.5 -35 -2.5 -55 q-2 -13 -7 -20.5 q-5 -7.5 -23 -11.5 q-5 -1 -13.5 -2 q-8.5 -1 -17 -1.5 q-8.5 -0.5 -16 -1 q-7.5 -0.5 -10.5 -0.5 q-8 0 -8 -7 q0 -7 12 -7 q18 0 38 0.5 q20 0.5 36 0.5 q17 0 28 0.5 q11 0.5 13 0.5 q3 0 33.5 -1 q30.5 -1 71.5 -1 q12 0 12 8 q0 6 -9 6 q-5 0 -21 1.5 q-16 1.5 -25 3.5 q-17 4 -22 11.5 q-5 7.5 -7 20.5 q-2 20 -2.5 55 q-0.5 35 -0.5 76 l0 110 Z" /><glyph glyph-name="logicalnot" unicode="" d="M465 159 l0 212 l-420 0 l0 -51 l368 0 l0 -161 l52 0 Z" /><glyph glyph-name="mu" unicode="&#x3bc;" d="M70 150 q0 -56 -1 -104.5 q-1 -48.5 -2.5 -95 q-1.5 -46.5 -3.5 -94 q-2 -47.5 -5 -101.5 l12 -5 l90 50 q-4 19 -7.5 46 q-3.5 27 -7 59 q-3.5 32 -6 66.5 q-2.5 34.5 -4.5 68.5 q19 -30 48 -42.5 q29 -12.5 67 -12.5 q34 0 59.5 9 q25.5 9 45.5 24.5 q20 15.5 34.5 36.5 q14.5 21 25.5 45 q2 -36 8.5 -58 q6.5 -22 16 -35 q9.5 -13 22.5 -17.5 q13 -4.5 28 -4.5 q30 0 50 20.5 q20 20.5 26 55.5 l-15 7 q-6 -15 -14 -24 q-8 -9 -20 -9 q-14 0 -23 13 q-9 13 -9 43 l0 359 l-75 0 l0 -250 q0 -47 -12 -76 q-12 -29 -30.5 -45.5 q-18.5 -16.5 -42 -22.5 q-23.5 -6 -45.5 -6 q-64 0 -99.5 40.5 q-35.5 40.5 -35.5 134.5 l0 225 l-75 0 l0 -300 Z" /><glyph glyph-name="trademark" unicode="&#x2122;" d="M27 756 q-2 0 -6 0.5 q-4 0.5 -8 0.5 q-4 0 -5 1 q-1 1 -3 1 q0 0 -0.5 -0.5 q-0.5 -0.5 -0.5 -2.5 q0 -1 -2 -9 q-2 -8 -2 -12 q0 -4 2 -4 q2 0 3 4 q2 10 18 10 l24 0 l0 -68 q0 -14 -0.5 -21.5 q-0.5 -7.5 -0.5 -12.5 q0 -3 -1.5 -6.5 q-1.5 -3.5 -7.5 -4.5 l-5 0 q-4 0 -4 -2 q0 -2 4 -2 q6 0 14 0.5 q8 0.5 10 0.5 q2 0 10 -0.5 q8 -0.5 13 -0.5 q5 0 5 2 q0 2 -5 2 l-5 1 q-8 2 -8 10 l0 34 l0 68 l20 0 q12 0 14.5 -2 q2.5 -2 3.5 -6 l1 -4 q1 -4 2 -4 q3 0 3 5 l0 18 q0 6 0 6 q-1 0 -2.5 -0.5 q-1.5 -0.5 -3.5 -0.5 q-2 0 -4.5 -0.5 q-2.5 -0.5 -7.5 -0.5 l-65 0 ZM141 717 l1 0 l39 -79 q4 -10 7 -10 q2 0 7 10 l39 78 l-1 0 l9 -82 q0 -4 4 -4 q3 -1 15 -1.5 q12 -0.5 17 -0.5 q3 0 3 2 q0 2 -4 2 l-2 0 q-7 0 -10 3.5 q-3 3.5 -5 14.5 l-13 103 q0 7 -3 7 q-4 0 -5 -4 l-47 -99 l-47 98 q-2 5 -5 5 q-5 0 -5 -7 l-14 -107 q-1 -14 -10 -14 l-3 0 q-4 0 -4 -2 q0 -2 3 -2 q5 0 10 0.5 q5 0.5 7 0.5 q2 0 8.5 -0.5 q6.5 -0.5 11.5 -0.5 q3 0 3 2 q0 2 -7 2 q-6 0 -6 7 q0 5 0.5 8 q0.5 3 0.5 6 l6 64 Z" /><glyph glyph-name="Eth" unicode="" d="M178 397 l-79 0 q-10 0 -13 -9 l-3 -16 q-1 -5 0 -8 q1 -3 7 -3 l88 0 l0 -74 q0 -72 -0.5 -128.5 q-0.5 -56.5 -4.5 -88.5 q-3 -22 -8.5 -37 q-5.5 -15 -20.5 -18 q-7 -2 -15 -3 q-8 -1 -15 -1 q-8 0 -8 -6 q0 -8 16 -8 q11 0 27 1 q16 1 31 1 q16 1 27 1 q11 0 13 0 q4 0 27 -2 q23 -2 56 -4 q32 -2 69.5 -4 q37.5 -2 69.5 -2 q64 0 113 11.5 q49 11.5 86 29 q37 17.5 62.5 37.5 q25.5 20 41.5 37 q21 22 40.5 51 q19.5 29 34.5 64.5 q15 35.5 24 77.5 q9 42 9 89 q0 45 -8 83 q-8 38 -21.5 69.5 q-13.5 31.5 -31 56.5 q-17.5 25 -36.5 45 q-45 46 -99 69.5 q-54 23.5 -109 33.5 q-55 10 -105.5 10.5 q-50.5 0.5 -87.5 0.5 q-23 0 -45 -0.5 q-22 -0.5 -40.5 -1 q-18.5 -0.5 -32 -1 q-13.5 -0.5 -17.5 -0.5 q-2 0 -13.5 0.5 q-11.5 0.5 -28 1 q-16.5 0.5 -35.5 1 q-19 0.5 -36 0.5 q-16 0 -16 -8 q0 -6 8 -6 q7 0 17.5 -0.5 q10.5 -0.5 16.5 -2.5 q25 -5 33 -18 q8 -13 10 -39 q1 -12 1.5 -25.5 q0.5 -13.5 0.5 -36.5 q0 -22 0 -59 q0 -37 0 -95 l0 -66 ZM262 360 l195 0 q5 0 8.5 1.5 q3.5 1.5 4.5 6.5 l4 19 q2 11 -7 11 l-205 0 l1 294 q0 15 12 20 q6 3 26.5 5 q20.5 2 37.5 2 q45 0 89 -3.5 q44 -3.5 85 -15.5 q41 -12 80 -34.5 q39 -22.5 74 -59.5 q15 -16 32 -39.5 q17 -23.5 31.5 -55 q14.5 -31.5 23.5 -70.5 q9 -39 9 -87 q0 -35 -5 -69 q-5 -34 -15.5 -65.5 q-10.5 -31.5 -25.5 -58.5 q-15 -27 -34 -46 q-45 -45 -106.5 -69 q-61.5 -24 -131.5 -24 q-44 0 -74.5 3.5 q-30.5 3.5 -50 9.5 q-19.5 6 -30 13 q-10.5 7 -15.5 14 q-3 4 -5 13 q-2 9 -3 20 q-1 11 -2 22.5 q-1 11.5 -1 20.5 q-1 12 -1.5 58.5 q-0.5 46.5 -0.5 110.5 l0 53 Z" /><glyph glyph-name="onehalf" unicode="" d="M190 565 q0 70 1.5 108.5 q1.5 38.5 1.5 42.5 q0 13 -6 13 q-4 0 -8.5 -3 q-4.5 -3 -8.5 -6 q-2 -1 -12.5 -7.5 q-10.5 -6.5 -25.5 -16 q-15 -9.5 -32.5 -20 q-17.5 -10.5 -32 -19.5 q-14.5 -9 -25 -15.5 q-10.5 -6.5 -11.5 -7.5 q-3 -3 -3 -7 q0 -6 6 -6 q2 0 4.5 1 q2.5 1 4.5 2 q6 3 17.5 7.5 q11.5 4.5 23.5 9.5 q12 5 23 8.5 q11 3.5 15 3.5 q8 0 9 -4.5 q1 -4.5 2 -11.5 q1 -7 1 -28 q0 -21 0 -44 l0 -104 q0 -38 -0.5 -72 q-0.5 -34 -2.5 -53 q-2 -12 -6.5 -19 q-4.5 -7 -21.5 -11 q-5 -1 -13 -2 q-8 -1 -16.5 -1.5 q-8.5 -0.5 -15.5 -1 q-7 -0.5 -10 -0.5 q-7 0 -7 -7 q0 -6 11 -6 q18 0 36.5 0.5 q18.5 0.5 33.5 0.5 q16 0 26.5 0.5 q10.5 0.5 12.5 0.5 q3 0 32.5 -1 q29.5 -1 67.5 -1 q12 0 12 7 q0 6 -9 6 q-5 0 -20.5 1.5 q-15.5 1.5 -23.5 3.5 q-17 4 -21 11 q-4 7 -6 19 q-2 19 -2.5 53 q-0.5 34 -0.5 72 l0 104 ZM128 -14 q7 -6 13 3 l542 713 q4 6 -2 10 l-18 14 q-5 4 -7.5 1.5 q-2.5 -2.5 -5.5 -6.5 l-540 -705 q-7 -10 -2 -13 l20 -17 ZM743 0 q11 0 20.5 3.5 q9.5 3.5 14.5 12.5 q4 7 8 18.5 q4 11.5 7 23 q3 11.5 5 21 q2 9.5 2 13.5 q0 9 -5 9 q-4 0 -8 -10 q-7 -23 -22.5 -34 q-15.5 -11 -50.5 -14 q-4 0 -20 -1 q-16 -1 -34.5 -1.5 q-18.5 -0.5 -34.5 -1 q-16 -0.5 -20 -0.5 l-31 0 q-3 0 -2.5 1.5 q0.5 1.5 -0.5 2.5 q35 27 72.5 59 q37.5 32 68 67.5 q30.5 35.5 50.5 75 q20 39.5 20 81.5 q0 22 -9 42 q-9 20 -27 36 q-18 16 -45 25.5 q-27 9.5 -63 9.5 q-34 0 -61 -7 q-27 -7 -48 -17 q-5 -2 -6 -4 q-1 -2 -1 -9 q0 -6 0.5 -16.5 q0.5 -10.5 1 -21 q0.5 -10.5 1.5 -18.5 q1 -8 1 -10 q2 -10 6 -10 q8 0 8 10 q0 18 6 31 q6 13 14 22 q14 15 30 20 q16 5 37 5 q14 0 30 -5 q16 -5 30 -17.5 q14 -12.5 23 -33 q9 -20.5 9 -51.5 q0 -42 -20 -81 q-20 -39 -51.5 -74 q-31.5 -35 -70 -67.5 q-38.5 -32.5 -74.5 -61.5 q-3 -3 -7 -6.5 q-4 -3.5 -4 -8.5 q0 -8 11 -8 l240 0 Z" /><glyph glyph-name="plusminus" unicode="" d="M230 524 l0 -187 l-188 0 l0 -51 l188 0 l0 -189 l52 0 l0 189 l186 0 l0 51 l-187 0 l0 187 l-51 0 ZM468 50 l-426 0 l0 -50 l426 0 l0 50 Z" /><glyph glyph-name="Thorn" unicode="" d="M178 287 q0 -72 -0.5 -128.5 q-0.5 -56.5 -4.5 -88.5 q-3 -22 -8.5 -37 q-5.5 -15 -20.5 -18 q-7 -2 -15 -3 q-8 -1 -15 -1 q-8 0 -8 -6 q0 -8 16 -8 q11 0 27 0.5 q16 0.5 31 1 q15 0.5 26 1 q11 0.5 12 0.5 q2 0 13.5 -0.5 q11.5 -0.5 29 -1 q17.5 -0.5 38.5 -1 q21 -0.5 42 -0.5 q16 0 16 8 q0 6 -8 6 q-7 0 -20.5 1 q-13.5 1 -24.5 3 q-23 3 -30 18 q-7 15 -9 37 q-4 32 -4.5 88.5 q-0.5 56.5 -0.5 128.5 l0 251 q0 16 8 19 q7 3 18.5 4.5 q11.5 1.5 24.5 1.5 q9 0 24 0 q15 0 33.5 -4.5 q18.5 -4.5 39 -15 q20.5 -10.5 40.5 -30.5 q20 -20 31 -42 q11 -22 16.5 -43 q5.5 -21 7 -39 q1.5 -18 1.5 -30 q0 -35 -13.5 -64.5 q-13.5 -29.5 -36.5 -51.5 q-23 -22 -55 -34.5 q-32 -12.5 -68 -12.5 q-16 0 -21.5 -1.5 q-5.5 -1.5 -5.5 -7.5 q0 -4 3.5 -5.5 q3.5 -1.5 7.5 -1.5 q4 -1 10 -1 q7 0 11 0 q53 0 98 17 q45 17 78 48.5 q33 31.5 51.5 75.5 q18.5 44 18.5 97 q0 39 -16 71 q-16 32 -33 47 q-6 6 -18.5 15.5 q-12.5 9.5 -34 18.5 q-21.5 9 -54 16 q-32.5 7 -79.5 7 q-29 0 -47 -1 q-18 -1 -40 -3 q0 15 0.5 38.5 q0.5 23.5 1.5 55.5 q1 22 11 35 q10 13 34 18 q11 2 21.5 3 q10.5 1 17.5 1 q8 0 8 7 q0 7 -16 7 q-18 0 -38 -0.5 q-20 -0.5 -37 -1 q-17 -0.5 -29 -1 q-12 -0.5 -14 -0.5 q-3 0 -14.5 0.5 q-11.5 0.5 -28 1 q-16.5 0.5 -35 1 q-18.5 0.5 -35.5 0.5 q-16 0 -16 -8 q0 -6 8 -6 q7 0 17.5 -0.5 q10.5 -0.5 16.5 -2.5 q25 -5 33 -18 q8 -13 10 -39 q1 -12 1.5 -25.5 q0.5 -13.5 0.5 -36.5 q0 -22 0 -59 q0 -37 0 -95 l0 -176 Z" /><glyph glyph-name="onequarter" unicode="" d="M660 160 l0 270 q0 5 -0.5 7.5 q-0.5 2.5 -5.5 2.5 q-7 0 -16 -11 q-5 -6 -24.5 -29 q-19.5 -23 -46.5 -54 q-27 -31 -57 -65.5 q-30 -34.5 -55.5 -63.5 q-25.5 -29 -42.5 -48.5 q-17 -19.5 -18 -20.5 q-2 -2 -5.5 -6.5 q-3.5 -4.5 -3.5 -9.5 q0 -8 13 -8 l209 0 q0 -11 0 -35 q0 -24 -1 -44 q-1 -13 -6 -21 q-5 -8 -21 -10 q-7 -1 -15.5 -1.5 q-8.5 -0.5 -12.5 -0.5 q-8 0 -8 -7 q0 -6 8 -6 q26 0 49 1 q23 1 26 1 q2 0 11 -0.5 q9 -0.5 21 -0.5 q13 0 27 -0.5 q14 -0.5 27 -0.5 q9 0 9 7 q0 6 -6 6 q-5 0 -12.5 0.5 q-7.5 0.5 -14.5 1.5 q-15 2 -20 10 q-5 8 -7 21 q-2 20 -1.5 44 q0.5 24 0.5 35 l65 0 q9 0 12 8 q2 8 4 17 q2 9 2 11 q0 6 -6 6 q-2 0 -8.5 -3 q-6.5 -3 -19.5 -3 l-49 0 ZM607 160 l-165 0 q4 5 17 20 q13 15 30.5 35 q17.5 20 36.5 42.5 q19 22.5 36 42 q17 19.5 29 33.5 q12 14 15 17 l1 0 l0 -190 ZM190 565 q0 70 1.5 108.5 q1.5 38.5 1.5 42.5 q0 13 -6 13 q-4 0 -8.5 -3 q-4.5 -3 -8.5 -6 q-2 -1 -12.5 -7.5 q-10.5 -6.5 -25.5 -16 q-15 -9.5 -32.5 -20 q-17.5 -10.5 -32 -19.5 q-14.5 -9 -25 -15.5 q-10.5 -6.5 -11.5 -7.5 q-3 -3 -3 -7 q0 -6 6 -6 q2 0 4.5 1 q2.5 1 4.5 2 q6 3 17.5 7.5 q11.5 4.5 23.5 9.5 q12 5 23 8.5 q11 3.5 15 3.5 q8 0 9 -4.5 q1 -4.5 2 -11.5 q1 -7 1 -28 q0 -21 0 -44 l0 -104 q0 -38 -0.5 -72 q-0.5 -34 -2.5 -53 q-2 -12 -6.5 -19 q-4.5 -7 -21.5 -11 q-5 -1 -13 -2 q-8 -1 -16.5 -1.5 q-8.5 -0.5 -15.5 -1 q-7 -0.5 -10 -0.5 q-7 0 -7 -7 q0 -6 11 -6 q18 0 36.5 0.5 q18.5 0.5 33.5 0.5 q16 0 26.5 0.5 q10.5 0.5 12.5 0.5 q3 0 32.5 -1 q29.5 -1 67.5 -1 q12 0 12 7 q0 6 -9 6 q-5 0 -20.5 1.5 q-15.5 1.5 -23.5 3.5 q-17 4 -21 11 q-4 7 -6 19 q-2 19 -2.5 53 q-0.5 34 -0.5 72 l0 104 ZM161 -14 q7 -5 12 3 l542 713 q4 6 -2 10 l-18 14 q-5 4 -7.5 1.5 q-2.5 -2.5 -5.5 -6.5 l-540 -705 q-7 -10 -1 -13 l20 -17 Z" /><glyph glyph-name="divide" unicode="" d="M257 370 q23 0 37 14.5 q14 14.5 13 36.5 q0 21 -14.5 35 q-14.5 14 -36.5 14 q-21 0 -34.5 -14 q-13.5 -14 -13.5 -37 q0 -21 13.5 -35.5 q13.5 -14.5 34.5 -14.5 l1 1 ZM468 294 l-426 0 l0 -51 l426 0 l0 51 ZM256 67 q23 0 37.5 14.5 q14.5 14.5 13.5 36.5 q0 21 -14.5 35 q-14.5 14 -36.5 14 q-21 0 -34.5 -14 q-13.5 -14 -13.5 -37 q0 -21 13.5 -35.5 q13.5 -14.5 34.5 -14.5 l0 1 Z" /><glyph glyph-name="brokenbar" unicode="" d="M282 325 l0 350 l-54 0 l0 -350 l54 0 ZM282 -175 l0 350 l-54 0 l0 -350 l54 0 Z" /><glyph glyph-name="degree" unicode="" d="M253 595 q0 20 -7.5 38.5 q-7.5 18.5 -21 32.5 q-13.5 14 -32.5 22 q-19 8 -43 8 l-2 0 q-45 0 -75 -30 q-30 -30 -30 -75 q0 -41 28.5 -71 q28.5 -30 75.5 -30 q21 0 40 7.5 q19 7.5 33.5 21.5 q14.5 14 23.5 33.5 q9 19.5 9 43.5 l1 -1 ZM206 595 q0 -27 -17 -45.5 q-17 -18.5 -43 -18.5 q-26 0 -43 18 q-17 18 -17 44 q0 23 15 44 q15 21 44 21 q32 0 46.5 -20.5 q14.5 -20.5 14.5 -42.5 Z" /><glyph glyph-name="thorn" unicode="" d="M155 244 q0 -62 -0.5 -110 q-0.5 -48 -4.5 -74 q-3 -19 -7 -30.5 q-4 -11.5 -17 -14.5 q-6 -2 -13 -3 q-7 -1 -13 -1 q-7 0 -7 -7 q0 -7 14 -7 q10 0 24 0.5 q14 0.5 27.5 1 q13.5 0.5 23 1 q9.5 0.5 10.5 0.5 q1 0 12 -0.5 q11 -0.5 26.5 -1 q15.5 -0.5 34.5 -1 q19 -0.5 37 -0.5 q14 0 14 7 q0 7 -7 7 q-6 0 -17.5 1 q-11.5 1 -20.5 3 q-20 3 -26 14.5 q-6 11.5 -8 30.5 q-3 26 -3.5 74 q-0.5 48 -0.5 110 l0 210 q0 13 7 16 q7 2 16 4 q9 2 20 2 q7 0 22 0 q15 0 32.5 -3.5 q17.5 -3.5 36.5 -12 q19 -8.5 36 -24.5 q16 -16 26 -34 q10 -18 15 -34.5 q5 -16.5 6.5 -30.5 q1.5 -14 1.5 -22 q0 -32 -13 -58.5 q-13 -26.5 -34.5 -46 q-21.5 -19.5 -50.5 -30.5 q-29 -11 -61 -11 q-14 0 -18.5 -2.5 q-4.5 -2.5 -4.5 -7.5 q0 -3 3 -4.5 q3 -1.5 6 -1.5 q4 -1 10 -1 q7 0 11 0 q47 0 88.5 14 q41.5 14 73 40 q31.5 26 50 62.5 q18.5 36.5 18.5 81.5 q0 34 -15.5 62.5 q-15.5 28.5 -30.5 41.5 q-8 7 -21 15.5 q-13 8.5 -33.5 16 q-20.5 7.5 -50 12.5 q-29.5 5 -70.5 5 q-26 0 -42.5 -0.5 q-16.5 -0.5 -33.5 -2.5 q0 13 0.5 33 q0.5 20 1.5 47 q0 37 37 43 q9 2 19 2.5 q10 0.5 15 0.5 q3 0 5.5 3 q2.5 3 2.5 5 q0 6 -15 6 q-16 0 -34 -0.5 q-18 -0.5 -33 -0.5 q-15 0 -25.5 -0.5 q-10.5 -0.5 -12.5 -0.5 q-3 0 -13 0.5 q-10 0.5 -25 0.5 q-14 0 -30.5 0.5 q-16.5 0.5 -31.5 0.5 q-14 0 -14 -7 q0 -7 7 -7 q6 0 15.5 -0.5 q9.5 -0.5 14.5 -1.5 q20 -3 27 -14 q7 -11 9 -33 q1 -10 1.5 -21.5 q0.5 -11.5 0.5 -31.5 q0 -19 0 -50 q0 -31 0 -80 l0 -150 Z" /><glyph glyph-name="threequarters" unicode="" d="M674 160 l0 270 q0 10 -7 10 q-6 0 -15 -11 q-5 -6 -24.5 -29 q-19.5 -23 -46.5 -54 q-27 -31 -57 -65.5 q-30 -34.5 -55.5 -63.5 q-25.5 -29 -42.5 -48.5 q-17 -19.5 -18 -20.5 q-2 -2 -6 -6.5 q-4 -4.5 -4 -9.5 q0 -8 13 -8 l209 0 q0 -11 0 -35 q0 -24 -1 -44 q-1 -13 -6 -21 q-5 -8 -21 -10 q-7 -1 -15.5 -1.5 q-8.5 -0.5 -12.5 -0.5 q-7 0 -7 -7 q0 -2 1 -4 q1 -2 6 -2 q26 0 49 1 q23 1 26 1 q2 0 11 -0.5 q9 -0.5 21 -0.5 q13 0 27 -0.5 q14 -0.5 27 -0.5 q9 0 9 7 q0 6 -5 6 q-5 0 -13 0.5 q-8 0.5 -15 1.5 q-15 2 -20 10 q-5 8 -7 21 q-2 20 -1 44 q1 24 1 35 l64 0 q9 0 12 8 q2 8 4 17 q2 9 2 11 q0 6 -6 6 q-2 0 -8.5 -3 q-6.5 -3 -19.5 -3 l-48 0 ZM620 160 l-165 0 q4 5 17 20 q13 15 30.5 35 q17.5 20 36.5 42.5 q19 22.5 36 42 q17 19.5 29 33.5 q12 14 15 17 l1 0 l0 -190 ZM221 544 q10 4 25 12.5 q15 8.5 29 22 q14 13.5 24.5 31 q10.5 17.5 10.5 38.5 q0 10 -5 24 q-5 14 -19 27 q-14 13 -38.5 21.5 q-24.5 8.5 -62.5 8.5 q-41 0 -66.5 -5.5 q-25.5 -5.5 -40.5 -12.5 q-7 -3 -8 -7 q-1 -4 -1 -8 q0 -10 2 -26.5 q2 -16.5 4 -29.5 q1 -10 7 -10 q4 0 4 12 q0 26 25 44 q25 18 58 18 q25 0 41 -8 q16 -8 25.5 -19.5 q9.5 -11.5 13 -23.5 q3.5 -12 3.5 -19 q0 -23 -11 -40.5 q-11 -17.5 -26.5 -29.5 q-15.5 -12 -31.5 -19 q-16 -7 -26 -8 q-17 -3 -17 -11 q0 -3 4 -4.5 q4 -1.5 15 -3.5 q18 -2 37.5 -9 q19.5 -7 36 -19 q16.5 -12 27.5 -30 q11 -18 11 -42 q0 -51 -30 -77.5 q-30 -26.5 -73 -26.5 q-27 0 -45.5 6 q-18.5 6 -29.5 16 q-11 10 -16.5 23 q-5.5 13 -6.5 27 q-1 7 -5 7 q-5 0 -6 -8 q-2 -9 -2.5 -29 q-0.5 -20 -0.5 -32 q0 -13 1 -17 q1 -4 9 -9 q10 -6 34.5 -9 q24.5 -3 49.5 -3 q39 0 72.5 12 q33.5 12 58.5 32 q25 20 39 46.5 q14 26.5 14 56.5 q0 26 -12.5 45.5 q-12.5 19.5 -30.5 33 q-18 13.5 -37.5 21 q-19.5 7.5 -32.5 9.5 l0 2 ZM159 -14 q7 -5 12 3 l542 713 q4 6 -1 10 l-19 14 q-5 4 -7.5 1.5 q-2.5 -2.5 -5.5 -6.5 l-539 -705 q-7 -10 -2 -13 l20 -17 Z" /><glyph glyph-name="twosuperior" unicode="" d="M316 305 q12 0 22 3.5 q10 3.5 15 13.5 q4 7 8 19 q4 12 7.5 24 q3.5 12 5.5 22.5 q2 10.5 2 14.5 q0 9 -5 9 q-5 0 -9 -10 q-8 -24 -23.5 -36 q-15.5 -12 -52.5 -15 q-4 0 -21 -1 q-17 -1 -36.5 -1.5 q-19.5 -0.5 -36.5 -1 q-17 -0.5 -21 -0.5 l-33 0 q-3 0 -2.5 1.5 q0.5 1.5 -0.5 2.5 q37 29 76 62.5 q39 33.5 71.5 71 q32.5 37.5 53.5 78.5 q21 41 21 86 q0 23 -9.5 44.5 q-9.5 21.5 -28.5 38 q-19 16.5 -47.5 26.5 q-28.5 10 -65.5 10 q-35 0 -64 -7 q-29 -7 -51 -18 q-5 -2 -6 -4.5 q-1 -2.5 -1 -9.5 q0 -6 0.5 -17 q0.5 -11 1 -22 q0.5 -11 1.5 -19.5 q1 -8.5 1 -10.5 q2 -11 6 -11 q8 0 8 11 q0 19 6.5 32 q6.5 13 15.5 23 q15 16 31.5 21.5 q16.5 5.5 38.5 5.5 q15 0 32 -5.5 q17 -5.5 31.5 -18.5 q14.5 -13 24 -34.5 q9.5 -21.5 9.5 -54.5 q0 -45 -21 -85.5 q-21 -40.5 -54 -78 q-33 -37.5 -73.5 -71 q-40.5 -33.5 -78.5 -64.5 q-3 -3 -7.5 -7 q-4.5 -4 -4.5 -9 q0 -8 11 -8 l253 0 Z" /><glyph glyph-name="registered" unicode="" d="M103 592 q40 0 66 25 q26 25 26 62 q0 38 -26 63 q-26 25 -66 25 q-40 0 -66 -25 q-26 -25 -26 -63 q0 -37 26 -62 q26 -25 66 -25 ZM104 607 q-33 0 -54.5 20.5 q-21.5 20.5 -21.5 52.5 q0 32 21.5 52 q21.5 20 53.5 20 q32 0 53.5 -20 q21.5 -20 21.5 -52 q0 -32 -21 -52.5 q-21 -20.5 -53 -20.5 ZM69 672 q0 -12 -0.5 -18 q-0.5 -6 -0.5 -10 q-1 -5 -2 -5.5 q-1 -0.5 -8 -0.5 q-4 0 -4 -3 q0 -2 4 -2 l5 0 q2 0 7.5 0.5 q5.5 0.5 7.5 0.5 q4 0 9 -0.5 q5 -0.5 7 -0.5 l4 0 q4 0 4 3 q0 2 -3 2 q-6 0 -10 2 q-1 1 -1.5 4 q-0.5 3 -0.5 18 l0 9 l18 0 l14 -19 q11 -15 18 -17 q7 -2 17 -2 q7 0 7 3 q0 2 -3 2 q-2 0 -5.5 2.5 q-3.5 2.5 -13.5 14.5 l-17 21 q11 9 14.5 15.5 q3.5 6.5 3.5 14.5 q0 18 -14.5 22.5 q-14.5 4.5 -27.5 4.5 q-6 0 -10 -0.5 q-4 -0.5 -11 -0.5 q-2 0 -6.5 0.5 q-4.5 0.5 -6.5 0.5 l-5 0 q-5 0 -5 -3 q0 -2 3 -2 q11 0 11 -7 q0 -4 0.5 -10 q0.5 -6 0.5 -17 l0 -22 ZM87 722 q2 2 5 2 q3 0 4 0 q12 0 18.5 -6.5 q6.5 -6.5 6.5 -17.5 q0 -13 -9 -18 q-5 -3 -10 -3 q-11 0 -15 3 l0 40 Z" /><glyph glyph-name="minus" unicode="&#x2212;" d="M468 294 l-426 0 l0 -51 l426 0 l0 51 Z" /><glyph glyph-name="eth" unicode="" d="M155 338 l-68 0 q-10 0 -11 -7 l-3 -17 q-2 -9 6 -9 l76 0 l0 -61 q0 -62 -0.5 -110 q-0.5 -48 -4.5 -74 q-3 -19 -6.5 -30.5 q-3.5 -11.5 -16.5 -14.5 q-6 -2 -13.5 -3 q-7.5 -1 -13.5 -1 q-7 0 -7 -7 q0 -7 14 -7 q11 0 24.5 0.5 q13.5 0.5 27.5 1.5 q14 0 23.5 0.5 q9.5 0.5 11.5 0.5 q3 0 23.5 -1.5 q20.5 -1.5 49.5 -3.5 q29 -2 62 -3.5 q33 -1.5 62 -1.5 q56 0 99.5 10 q43.5 10 76 24.5 q32.5 14.5 55 31.5 q22.5 17 36.5 32 q18 19 35.5 43.5 q17.5 24.5 30.5 54.5 q13 30 21 65.5 q8 35.5 8 75.5 q0 76 -26.5 129.5 q-26.5 53.5 -59.5 86.5 q-39 39 -86.5 59.5 q-47.5 20.5 -96 28.5 q-48.5 8 -93 8.5 q-44.5 0.5 -77.5 0.5 q-20 0 -39.5 -0.5 q-19.5 -0.5 -36.5 -0.5 q-16 0 -28 -0.5 q-12 -0.5 -16 -0.5 q-2 0 -12 0.5 q-10 0.5 -25 0.5 q-14 0 -31 0.5 q-17 0.5 -32 0.5 q-14 0 -14 -7 q0 -7 7 -7 q6 0 15.5 -0.5 q9.5 -0.5 14.5 -1.5 q22 -3 28 -14 q6 -11 8 -33 q1 -10 1.5 -21.5 q0.5 -11.5 0.5 -31.5 q0 -19 0 -50 q0 -31 0 -80 l0 -56 ZM235 304 l169 0 q4 0 7.5 1 q3.5 1 4.5 6 l3 19 q3 9 -6 9 l-178 0 l0 246 q0 13 11 17 q4 3 20.5 4.5 q16.5 1.5 31.5 1.5 q40 0 78 -3 q38 -3 74 -13 q36 -10 70 -29 q34 -19 65 -50 q13 -14 27.5 -33.5 q14.5 -19.5 26.5 -45.5 q12 -26 20 -59.5 q8 -33.5 8 -73.5 q0 -29 -4 -58 q-4 -29 -12.5 -55.5 q-8.5 -26.5 -21.5 -49 q-13 -22.5 -30 -38.5 q-39 -38 -92.5 -58 q-53.5 -20 -114.5 -20 q-39 0 -65 3 q-26 3 -42.5 8 q-16.5 5 -25.5 11 q-9 6 -13 12 q-5 7 -7 26 q-2 19 -3 35 q-1 11 -1 49 q0 39 0 93 l0 45 Z" /><glyph glyph-name="multiply" unicode="" d="M56 430 l162 -167 l-163 -166 l38 -37 l162 166 l163 -166 l37 37 l-163 166 l163 167 l-38 37 l-163 -167 l-162 167 l-36 -37 Z" /><glyph glyph-name="threesuperior" unicode="" d="M158 301 q41 0 76.5 12.5 q35.5 12.5 61.5 34 q26 21.5 41 49.5 q15 28 15 59 q0 28 -13.5 48.5 q-13.5 20.5 -32 34.5 q-18.5 14 -39 22 q-20.5 8 -34.5 10 l0 2 q10 4 26 13.5 q16 9.5 31 23 q15 13.5 25.5 32 q10.5 18.5 10.5 40.5 q0 11 -5.5 25.5 q-5.5 14.5 -20 28 q-14.5 13.5 -40 22.5 q-25.5 9 -65.5 9 q-43 0 -70 -6 q-27 -6 -43 -13 q-7 -3 -8 -7 q-1 -4 -1 -8 q0 -11 2 -28 q2 -17 4 -31 q1 -11 7 -11 q5 0 5 13 q0 28 26 46.5 q26 18.5 61 18.5 q26 0 43 -8.5 q17 -8.5 26.5 -20.5 q9.5 -12 13.5 -24.5 q4 -12.5 4 -20.5 q0 -24 -11.5 -42.5 q-11.5 -18.5 -28 -31 q-16.5 -12.5 -33.5 -20 q-17 -7.5 -27 -8.5 q-18 -3 -18 -11 q0 -3 4 -5 q4 -2 16 -4 q19 -2 40 -9.5 q21 -7.5 38 -20 q17 -12.5 28.5 -31.5 q11.5 -19 11.5 -44 q0 -54 -31.5 -81.5 q-31.5 -27.5 -76.5 -27.5 q-29 0 -48 6 q-19 6 -31 16.5 q-12 10.5 -17.5 24 q-5.5 13.5 -6.5 28.5 q-1 8 -6 8 q-5 0 -6 -9 q-2 -10 -2.5 -30.5 q-0.5 -20.5 -0.5 -33.5 q0 -14 1.5 -18 q1.5 -4 9.5 -9 q11 -6 36.5 -9.5 q25.5 -3.5 51.5 -3.5 Z" /><glyph glyph-name="copyright" unicode="" d="M454 -17 q81 0 152 30.5 q71 30.5 124 83.5 q53 53 83.5 124.5 q30.5 71.5 30.5 152.5 q0 82 -30.5 153.5 q-30.5 71.5 -83.5 124.5 q-53 53 -124 84 q-71 31 -152 31 q-81 0 -152.5 -31 q-71.5 -31 -125 -84 q-53.5 -53 -84 -124.5 q-30.5 -71.5 -30.5 -153.5 q0 -81 30.5 -152.5 q30.5 -71.5 84 -124.5 q53.5 -53 125 -83.5 q71.5 -30.5 152.5 -30.5 ZM454 27 q-72 0 -133.5 27.5 q-61.5 27.5 -106 75 q-44.5 47.5 -70 111 q-25.5 63.5 -25.5 134.5 q0 72 25.5 135 q25.5 63 70 110.5 q44.5 47.5 106 75 q61.5 27.5 133.5 27.5 q72 0 133 -27.5 q61 -27.5 105.5 -75 q44.5 -47.5 69.5 -110.5 q25 -63 25 -135 q0 -71 -25 -134.5 q-25 -63.5 -69.5 -111 q-44.5 -47.5 -105.5 -75 q-61 -27.5 -133 -27.5 ZM477 150 q12 0 43 1.5 q31 1.5 64 10.5 q12 3 15 8.5 q3 5.5 7 22.5 q5 23 7.5 44 q2.5 21 2.5 27 q0 4 -1.5 6.5 q-1.5 2.5 -7.5 2.5 q-8 0 -11 -10 q-3 -12 -7.5 -24.5 q-4.5 -12.5 -15.5 -22.5 q-9 -9 -28 -17 q-19 -8 -61 -8 q-35 0 -68.5 14 q-33.5 14 -59 41 q-25.5 27 -41 67.5 q-15.5 40.5 -15.5 93.5 q0 79 40 121 q40 42 115 42 q31 0 53 -4.5 q22 -4.5 36.5 -10 q14.5 -5.5 22.5 -11.5 q8 -6 11 -9 q11 -12 13 -24 q2 -12 3 -23 q0 -11 9 -11 q9 0 10 8 q1 7 2 22.5 q1 15.5 2 31.5 q1 16 1.5 28.5 q0.5 12.5 0.5 14.5 q0 5 -2 5 q-2 0 -5 -0.5 q-3 -0.5 -6 -0.5 q-1 0 -8 1.5 q-7 1.5 -17 3.5 q-10 2 -19.5 4 q-9.5 2 -15.5 3 q-26 5 -48.5 6.5 q-22.5 1.5 -33.5 1.5 q-57 0 -99 -15.5 q-42 -15.5 -72 -44.5 q-9 -9 -21 -23.5 q-12 -14.5 -22.5 -35 q-10.5 -20.5 -17.5 -46.5 q-7 -26 -7 -57 q0 -53 18.5 -96.5 q18.5 -43.5 52 -74 q33.5 -30.5 79.5 -47 q46 -16.5 102 -16.5 Z" /><glyph glyph-name="Aacute" unicode="" d="M95 107 q-14 -38 -31.5 -63.5 q-17.5 -25.5 -52.5 -30.5 q-6 -1 -15 -1.5 q-9 -0.5 -14 -0.5 q-9 0 -9 -6 q0 -8 19 -8 q18 0 36 0.5 q18 0.5 34 1 q16 0.5 27.5 1 q11.5 0.5 15.5 0.5 q4 0 13.5 -0.5 q9.5 -0.5 20.5 -1 q11 -0.5 23 -1 q12 -0.5 21 -0.5 q15 0 15 8 q0 6 -10 6 l-10 0 q-13 0 -25.5 7 q-12.5 7 -12.5 22 q0 28 14 67 l60 177 q3 8 10 8 l215 0 q6 0 9 -6 l93 -246 q5 -12 2 -18.5 q-3 -6.5 -8 -8.5 q-7 -2 -7 -7 q0 -5 8 -5.5 q8 -0.5 22 -1.5 q26 -1 51.5 -1.5 q25.5 -0.5 46.5 -0.5 q22 0 37 0 q16 0 22 0 q8 0 14 1.5 q6 1.5 6 6.5 q0 6 -10 6 q-8 0 -18.5 1 q-10.5 1 -21.5 5 q-8 2 -17.5 7 q-9.5 5 -20 17 q-10.5 12 -23 33 q-12.5 21 -25.5 54 q-15 38 -37.5 95 q-22.5 57 -47 120.5 q-24.5 63.5 -49.5 128.5 q-25 65 -45.5 119.5 q-20.5 54.5 -35 92.5 q-14.5 38 -18.5 47 q-9 23 -13 29.5 q-4 6.5 -9 6.5 q-5 0 -9 -7 q-4 -7 -13 -32 l-227 -621 ZM235 328 q-6 0 -3 7 l88 270 q7 22 15 0 l95 -270 q2 -7 -4 -7 l-191 0 ZM478 933 q-6 9 -10 9 q-4 0 -9.5 -2.5 q-5.5 -2.5 -18.5 -10.5 q-3 -2 -19.5 -11.5 q-16.5 -9.5 -38 -23 q-21.5 -13.5 -43.5 -27.5 q-22 -14 -35 -23 q-7 -4 -7 -8 q0 -6 5 -6 q3 0 15 5 q12 5 30.5 11.5 q18.5 6.5 39.5 12.5 q21 6 42.5 11 q21.5 5 39.5 7 q13 2 20.5 1 q7.5 -1 9.5 -1 q3 0 5.5 2.5 q2.5 2.5 -1.5 9.5 q-8 15 -14 25.5 q-6 10.5 -11 18.5 Z" /><glyph glyph-name="Acircumflex" unicode="" d="M95 107 q-14 -38 -31.5 -63.5 q-17.5 -25.5 -52.5 -30.5 q-6 -1 -15 -1.5 q-9 -0.5 -14 -0.5 q-9 0 -9 -6 q0 -8 19 -8 q18 0 36 0.5 q18 0.5 34 1 q16 0.5 27.5 1 q11.5 0.5 15.5 0.5 q4 0 13.5 -0.5 q9.5 -0.5 20.5 -1 q11 -0.5 23 -1 q12 -0.5 21 -0.5 q15 0 15 8 q0 6 -10 6 l-10 0 q-13 0 -25.5 7 q-12.5 7 -12.5 22 q0 28 14 67 l60 177 q3 8 10 8 l215 0 q6 0 9 -6 l93 -246 q5 -12 2 -18.5 q-3 -6.5 -8 -8.5 q-7 -2 -7 -7 q0 -5 8 -5.5 q8 -0.5 22 -1.5 q26 -1 51.5 -1.5 q25.5 -0.5 46.5 -0.5 q22 0 37 0 q16 0 22 0 q8 0 14 1.5 q6 1.5 6 6.5 q0 6 -10 6 q-8 0 -18.5 1 q-10.5 1 -21.5 5 q-8 2 -17.5 7 q-9.5 5 -20 17 q-10.5 12 -23 33 q-12.5 21 -25.5 54 q-15 38 -37.5 95 q-22.5 57 -47 120.5 q-24.5 63.5 -49.5 128.5 q-25 65 -45.5 119.5 q-20.5 54.5 -35 92.5 q-14.5 38 -18.5 47 q-9 23 -13 29.5 q-4 6.5 -9 6.5 q-5 0 -9 -7 q-4 -7 -13 -32 l-227 -621 ZM235 328 q-6 0 -3 7 l88 270 q7 22 15 0 l95 -270 q2 -7 -4 -7 l-191 0 ZM477 845 q2 2 3.5 4.5 q1.5 2.5 1.5 4.5 q0 2 -12 10 q-5 4 -20 15.5 q-15 11.5 -32 24 q-17 12.5 -31.5 23.5 q-14.5 11 -17.5 13 q-6 5 -9.5 7.5 q-3.5 2.5 -6.5 2.5 q-5 0 -16 -10 q-4 -4 -20.5 -19 q-16.5 -15 -35.5 -33 q-19 -18 -35.5 -33 q-16.5 -15 -20.5 -19 q-2 -3 -4 -5.5 q-2 -2.5 -2 -5.5 q0 -8 7 -8 q7 0 18 10 q9 7 20 16.5 q11 9.5 22.5 18 q11.5 8.5 22.5 16 q11 7.5 20 12.5 q10 5 16 5 q2 0 10 -4 q4 -3 15 -11 q11 -8 24 -18 q13 -10 25 -21 q12 -11 20 -19 q4 -5 8 -5 q3 0 9 6 l21 22 Z" /><glyph glyph-name="Adieresis" unicode="" d="M95 107 q-14 -38 -31.5 -63.5 q-17.5 -25.5 -52.5 -30.5 q-6 -1 -15 -1.5 q-9 -0.5 -14 -0.5 q-9 0 -9 -6 q0 -8 19 -8 q18 0 36 0.5 q18 0.5 34 1 q16 0.5 27.5 1 q11.5 0.5 15.5 0.5 q4 0 13.5 -0.5 q9.5 -0.5 20.5 -1 q11 -0.5 23 -1 q12 -0.5 21 -0.5 q15 0 15 8 q0 6 -10 6 l-10 0 q-13 0 -25.5 7 q-12.5 7 -12.5 22 q0 28 14 67 l60 177 q3 8 10 8 l215 0 q6 0 9 -6 l93 -246 q5 -12 2 -18.5 q-3 -6.5 -8 -8.5 q-7 -2 -7 -7 q0 -5 8 -5.5 q8 -0.5 22 -1.5 q26 -1 51.5 -1.5 q25.5 -0.5 46.5 -0.5 q22 0 37 0 q16 0 22 0 q8 0 14 1.5 q6 1.5 6 6.5 q0 6 -10 6 q-8 0 -18.5 1 q-10.5 1 -21.5 5 q-8 2 -17.5 7 q-9.5 5 -20 17 q-10.5 12 -23 33 q-12.5 21 -25.5 54 q-15 38 -37.5 95 q-22.5 57 -47 120.5 q-24.5 63.5 -49.5 128.5 q-25 65 -45.5 119.5 q-20.5 54.5 -35 92.5 q-14.5 38 -18.5 47 q-9 23 -13 29.5 q-4 6.5 -9 6.5 q-5 0 -9 -7 q-4 -7 -13 -32 l-227 -621 ZM235 328 q-6 0 -3 7 l88 270 q7 22 15 0 l95 -270 q2 -7 -4 -7 l-191 0 ZM450 830 q20 0 32 13 q12 13 12 33 q0 19 -12.5 29.5 q-12.5 10.5 -30.5 10.5 q-23 0 -33 -14.5 q-10 -14.5 -10 -28.5 q0 -14 9.5 -28.5 q9.5 -14.5 32.5 -14.5 ZM249 830 q20 0 32 13 q12 13 12 33 q0 19 -12.5 29.5 q-12.5 10.5 -30.5 10.5 q-23 0 -33 -14.5 q-10 -14.5 -10 -28.5 q0 -14 9.5 -28.5 q9.5 -14.5 32.5 -14.5 Z" /><glyph glyph-name="Agrave" unicode="" d="M95 107 q-14 -38 -31.5 -63.5 q-17.5 -25.5 -52.5 -30.5 q-6 -1 -15 -1.5 q-9 -0.5 -14 -0.5 q-9 0 -9 -6 q0 -8 19 -8 q18 0 36 0.5 q18 0.5 34 1 q16 0.5 27.5 1 q11.5 0.5 15.5 0.5 q4 0 13.5 -0.5 q9.5 -0.5 20.5 -1 q11 -0.5 23 -1 q12 -0.5 21 -0.5 q15 0 15 8 q0 6 -10 6 l-10 0 q-13 0 -25.5 7 q-12.5 7 -12.5 22 q0 28 14 67 l60 177 q3 8 10 8 l215 0 q6 0 9 -6 l93 -246 q5 -12 2 -18.5 q-3 -6.5 -8 -8.5 q-7 -2 -7 -7 q0 -5 8 -5.5 q8 -0.5 22 -1.5 q26 -1 51.5 -1.5 q25.5 -0.5 46.5 -0.5 q22 0 37 0 q16 0 22 0 q8 0 14 1.5 q6 1.5 6 6.5 q0 6 -10 6 q-8 0 -18.5 1 q-10.5 1 -21.5 5 q-8 2 -17.5 7 q-9.5 5 -20 17 q-10.5 12 -23 33 q-12.5 21 -25.5 54 q-15 38 -37.5 95 q-22.5 57 -47 120.5 q-24.5 63.5 -49.5 128.5 q-25 65 -45.5 119.5 q-20.5 54.5 -35 92.5 q-14.5 38 -18.5 47 q-9 23 -13 29.5 q-4 6.5 -9 6.5 q-5 0 -9 -7 q-4 -7 -13 -32 l-227 -621 ZM235 328 q-6 0 -3 7 l88 270 q7 22 15 0 l95 -270 q2 -7 -4 -7 l-191 0 ZM401 830 q9 0 9 5 q0 3 -5.5 6 q-5.5 3 -13.5 8 q-15 10 -31.5 21.5 q-16.5 11.5 -30 22 q-13.5 10.5 -23.5 18.5 q-10 8 -13 11 q-7 7 -9 11.5 q-2 4.5 -6 4.5 q-3 0 -6.5 -1.5 q-3.5 -1.5 -9.5 -3.5 q-9 -4 -26.5 -9 q-17.5 -5 -33.5 -10 q-11 -3 -11 -8 q0 -6 29 -17 q4 -2 17.5 -6.5 q13.5 -4.5 32.5 -11.5 q19 -7 40 -14 q21 -7 39.5 -13 q18.5 -6 32.5 -10 q14 -4 19 -4 Z" /><glyph glyph-name="Aring" unicode="" d="M95 107 q-14 -38 -31.5 -63.5 q-17.5 -25.5 -52.5 -30.5 q-6 -1 -15 -1.5 q-9 -0.5 -14 -0.5 q-9 0 -9 -6 q0 -8 19 -8 q18 0 36 0.5 q18 0.5 34 1 q16 0.5 27.5 1 q11.5 0.5 15.5 0.5 q4 0 13.5 -0.5 q9.5 -0.5 20.5 -1 q11 -0.5 23 -1 q12 -0.5 21 -0.5 q15 0 15 8 q0 6 -10 6 l-10 0 q-13 0 -25.5 7 q-12.5 7 -12.5 22 q0 28 14 67 l60 177 q3 8 10 8 l215 0 q6 0 9 -6 l93 -246 q5 -12 2 -18.5 q-3 -6.5 -8 -8.5 q-7 -2 -7 -7 q0 -5 8 -5.5 q8 -0.5 22 -1.5 q26 -1 51.5 -1.5 q25.5 -0.5 46.5 -0.5 q22 0 37 0 q16 0 22 0 q8 0 14 1.5 q6 1.5 6 6.5 q0 6 -10 6 q-8 0 -18.5 1 q-10.5 1 -21.5 5 q-8 2 -17.5 7 q-9.5 5 -20 17 q-10.5 12 -23 33 q-12.5 21 -25.5 54 q-15 38 -37.5 95 q-22.5 57 -47 120.5 q-24.5 63.5 -49.5 128.5 q-25 65 -45.5 119.5 q-20.5 54.5 -35 92.5 q-14.5 38 -18.5 47 q-9 23 -13 29.5 q-4 6.5 -9 6.5 q-5 0 -9 -7 q-4 -7 -13 -32 l-227 -621 ZM235 328 q-6 0 -3 7 l88 270 q7 22 15 0 l95 -270 q2 -7 -4 -7 l-191 0 ZM329 820 q22 0 44 6 q22 6 39.5 17.5 q17.5 11.5 28 27.5 q10.5 16 10.5 37 q0 26 -22 41.5 q-22 15.5 -60 15.5 q-26 0 -47.5 -7 q-21.5 -7 -37.5 -19 q-16 -12 -24.5 -27.5 q-8.5 -15.5 -8.5 -32.5 q0 -26 20 -42.5 q20 -16.5 58 -16.5 ZM345 844 q-18 0 -34 12.5 q-16 12.5 -16 35.5 q0 13 5.5 22 q5.5 9 14 15 q8.5 6 18.5 9 q10 3 19 3 q27 0 39.5 -14 q12.5 -14 12.5 -32 q0 -21 -17 -36 q-17 -15 -42 -15 Z" /><glyph glyph-name="Atilde" unicode="" d="M95 107 q-14 -38 -31.5 -63.5 q-17.5 -25.5 -52.5 -30.5 q-6 -1 -15 -1.5 q-9 -0.5 -14 -0.5 q-9 0 -9 -6 q0 -8 19 -8 q18 0 36 0.5 q18 0.5 34 1 q16 0.5 27.5 1 q11.5 0.5 15.5 0.5 q4 0 13.5 -0.5 q9.5 -0.5 20.5 -1 q11 -0.5 23 -1 q12 -0.5 21 -0.5 q15 0 15 8 q0 6 -10 6 l-10 0 q-13 0 -25.5 7 q-12.5 7 -12.5 22 q0 28 14 67 l60 177 q3 8 10 8 l215 0 q6 0 9 -6 l93 -246 q5 -12 2 -18.5 q-3 -6.5 -8 -8.5 q-7 -2 -7 -7 q0 -5 8 -5.5 q8 -0.5 22 -1.5 q26 -1 51.5 -1.5 q25.5 -0.5 46.5 -0.5 q22 0 37 0 q16 0 22 0 q8 0 14 1.5 q6 1.5 6 6.5 q0 6 -10 6 q-8 0 -18.5 1 q-10.5 1 -21.5 5 q-8 2 -17.5 7 q-9.5 5 -20 17 q-10.5 12 -23 33 q-12.5 21 -25.5 54 q-15 38 -37.5 95 q-22.5 57 -47 120.5 q-24.5 63.5 -49.5 128.5 q-25 65 -45.5 119.5 q-20.5 54.5 -35 92.5 q-14.5 38 -18.5 47 q-9 23 -13 29.5 q-4 6.5 -9 6.5 q-5 0 -9 -7 q-4 -7 -13 -32 l-227 -621 ZM235 328 q-6 0 -3 7 l88 270 q7 22 15 0 l95 -270 q2 -7 -4 -7 l-191 0 ZM421 830 q12 0 25 8.5 q13 8.5 25 20 q12 11.5 21 23 q9 11.5 12 17.5 q4 8 4 13 q0 6 -7 6 q-5 0 -12 -11 q-1 -2 -5.5 -6.5 q-4.5 -4.5 -12 -9.5 q-7.5 -5 -18.5 -9 q-11 -4 -25 -4 q-12 0 -29.5 6 q-17.5 6 -28.5 11 q-23 11 -44.5 21 q-21.5 10 -39.5 10 q-12 0 -25 -8 q-13 -8 -25 -19.5 q-12 -11.5 -21.5 -23.5 q-9.5 -12 -14.5 -20 q-3 -5 -5 -8 q-2 -3 -2 -7 q0 -6 6 -6 q6 0 14 9 q3 3 7.5 9 q4.5 6 12 12 q7.5 6 18 10.5 q10.5 4.5 23.5 4.5 q23 0 38.5 -8.5 q15.5 -8.5 29.5 -14.5 q11 -5 32.5 -15.5 q21.5 -10.5 46.5 -10.5 Z" /><glyph glyph-name="Ccedilla" unicode="" d="M154 395 q0 77 17.5 142.5 q17.5 65.5 72.5 118.5 q13 13 32 26 q19 13 46.5 23.5 q27.5 10.5 64.5 17 q37 6.5 87 6.5 q66 0 120 -17 q54 -17 80 -40 q20 -17 31 -45 q11 -28 11 -57 q0 -21 8 -21 q8 0 9 21 q0 6 0.5 18 q0.5 12 0.5 27 q0 15 0.5 30.5 q0.5 15.5 1.5 27.5 q2 27 3.5 38.5 q1.5 11.5 1.5 17.5 q0 5 -2.5 7.5 q-2.5 2.5 -10.5 3.5 q-24 2 -48.5 6 q-24.5 4 -53.5 9 q-37 7 -76 9.5 q-39 2.5 -69 2.5 q-58 0 -104.5 -8.5 q-46.5 -8.5 -83.5 -22.5 q-37 -14 -66 -34 q-29 -20 -51 -42 q-33 -33 -55 -70.5 q-22 -37.5 -34.5 -74 q-12.5 -36.5 -17.5 -70 q-5 -33.5 -5 -58.5 q0 -36 5.5 -74.5 q5.5 -38.5 19 -76.5 q13.5 -38 37 -75 q23.5 -37 59.5 -70 q51 -46 116 -72.5 q65 -26.5 153 -32.5 l-59 -49 q-13 -10 -13 -14 q0 -5 15 -9 q44 -13 58 -32 q14 -19 14 -41 q0 -14 -6.5 -24.5 q-6.5 -10.5 -17 -18 q-10.5 -7.5 -24 -12.5 q-13.5 -5 -26.5 -6 q-8 -1 -14 -2.5 q-6 -1.5 -6 -8.5 q0 -8 13 -8 q14 0 36 4.5 q22 4.5 42 13.5 q13 5 25.5 13 q12.5 8 22.5 18.5 q10 10.5 16.5 23 q6.5 12.5 6.5 27.5 q0 31 -26.5 48.5 q-26.5 17.5 -73.5 22.5 q3 3 9.5 9.5 q6.5 6.5 14.5 14 q8 7.5 17 15.5 q9 8 15 13 q5 -1 10 -1 q6 0 12 0 q24 0 49.5 1.5 q25.5 1.5 49.5 4 q24 2.5 45 7 q21 4.5 36 10.5 q14 6 17.5 10.5 q3.5 4.5 8.5 18.5 q4 13 8 33.5 q4 20.5 7 40.5 q3 20 5 35.5 q2 15.5 2 18.5 q0 6 -1.5 10.5 q-1.5 4.5 -5.5 4.5 q-7 0 -10 -15 q-2 -14 -11.5 -40.5 q-9.5 -26.5 -25.5 -43.5 q-30 -31 -73.5 -40.5 q-43.5 -9.5 -100.5 -9.5 q-80 0 -146.5 30.5 q-66.5 30.5 -114 81 q-47.5 50.5 -74 116.5 q-26.5 66 -26.5 138 Z" /><glyph glyph-name="Eacute" unicode="" d="M178 287 q0 -72 -0.5 -128.5 q-0.5 -56.5 -4.5 -88.5 q-3 -22 -8.5 -37 q-5.5 -15 -20.5 -18 q-7 -2 -15 -3 q-8 -1 -15 -1 q-8 0 -8 -6 q0 -8 16 -8 q11 0 27 1 q16 1 31 1 q16 1 27 1 q11 0 13 0 q11 0 30 -0.5 q19 -0.5 48 -2.5 q29 -1 70.5 -2 q41.5 -1 98.5 -1 q15 0 24 0.5 q9 0.5 15 3 q6 2.5 9 7.5 q3 5 6 15 q2 8 4 23 q2 15 4 30.5 q2 15.5 3.5 28 q1.5 12.5 1.5 15.5 q0 5 -0.5 10 q-0.5 5 -5.5 5 q-6 0 -9 -15 q-5 -31 -15 -47.5 q-10 -16.5 -30 -24.5 q-20 -8 -48 -9.5 q-28 -1.5 -48 -1.5 q-37 0 -59 3 q-22 3 -34.5 12 q-12.5 9 -17 25 q-4.5 16 -5.5 42 q0 8 0 31 q0 23 0 50 q0 27 0 52 q0 25 0 38 l0 88 q0 7 7 7 q6 0 25.5 -0.5 q19.5 -0.5 42 -1 q22.5 -0.5 44 -1.5 q21.5 -1 31.5 -2 q29 -3 39 -13.5 q10 -10.5 13 -21.5 q3 -10 3.5 -17.5 q0.5 -7.5 0.5 -15.5 q0 -9 7 -9 q5 0 6 6.5 q1 6.5 1 12.5 q0 3 0.5 10.5 q0.5 7.5 1 17 q0.5 9.5 1 19 q0.5 9.5 1.5 17.5 q2 25 5 38 q3 13 3 18 q0 8 -5 8 q-4 0 -15 -13 q-7 -8 -18 -10 q-11 -2 -29 -4 q-9 -1 -33 -1.5 q-24 -0.5 -51 -0.5 q-26 0 -48 0 q-22 0 -27 0 q-6 0 -6 10 l0 276 q0 10 6 10 q4 0 23 0 q20 0 43 -0.5 q23 -0.5 44 -1 q21 -0.5 27 -1.5 q40 -5 53 -13.5 q13 -8.5 18 -20.5 q4 -9 5 -20 q1 -11 1 -16 q0 -13 8 -13 q3 0 4.5 3.5 q1.5 3.5 2.5 7.5 q1 4 1.5 13.5 q0.5 9.5 1.5 20 q1 10.5 1.5 19.5 q0.5 9 0.5 13 q2 21 5 31.5 q3 10.5 3 15.5 q0 9 -4 9 q-4 0 -7 -2 q-3 -2 -7 -3 q-14 -3 -43 -5 q-9 0 -44.5 -0.5 q-35.5 -0.5 -76.5 -0.5 q-40 0 -73 0 q-32 0 -35 0 l-41 2 q-17 1 -36 1 q-19 0 -36 0 q-16 0 -16 -8 q0 -6 8 -6 q7 0 17.5 -0.5 q10.5 -0.5 16.5 -2.5 q25 -5 33 -18 q8 -13 10 -39 q1 -12 1.5 -25.5 q0.5 -13.5 0.5 -36.5 q0 -22 0 -59 q0 -37 0 -95 l0 -176 ZM442 933 q-6 9 -10 9 q-4 0 -9.5 -2.5 q-5.5 -2.5 -18.5 -10.5 q-3 -2 -19.5 -11.5 q-16.5 -9.5 -38 -23 q-21.5 -13.5 -43.5 -27.5 q-22 -14 -35 -23 q-7 -4 -7 -8 q0 -6 5 -6 q3 0 15 5 q12 5 30.5 11.5 q18.5 6.5 39.5 12.5 q21 6 42.5 11 q21.5 5 39.5 7 q13 2 20.5 1 q7.5 -1 9.5 -1 q3 0 5.5 2.5 q2.5 2.5 -1.5 9.5 q-8 15 -14 25.5 q-6 10.5 -11 18.5 Z" /><glyph glyph-name="Ecircumflex" unicode="" d="M178 287 q0 -72 -0.5 -128.5 q-0.5 -56.5 -4.5 -88.5 q-3 -22 -8.5 -37 q-5.5 -15 -20.5 -18 q-7 -2 -15 -3 q-8 -1 -15 -1 q-8 0 -8 -6 q0 -8 16 -8 q11 0 27 1 q16 1 31 1 q16 1 27 1 q11 0 13 0 q11 0 30 -0.5 q19 -0.5 48 -2.5 q29 -1 70.5 -2 q41.5 -1 98.5 -1 q15 0 24 0.5 q9 0.5 15 3 q6 2.5 9 7.5 q3 5 6 15 q2 8 4 23 q2 15 4 30.5 q2 15.5 3.5 28 q1.5 12.5 1.5 15.5 q0 5 -0.5 10 q-0.5 5 -5.5 5 q-6 0 -9 -15 q-5 -31 -15 -47.5 q-10 -16.5 -30 -24.5 q-20 -8 -48 -9.5 q-28 -1.5 -48 -1.5 q-37 0 -59 3 q-22 3 -34.5 12 q-12.5 9 -17 25 q-4.5 16 -5.5 42 q0 8 0 31 q0 23 0 50 q0 27 0 52 q0 25 0 38 l0 88 q0 7 7 7 q6 0 25.5 -0.5 q19.5 -0.5 42 -1 q22.5 -0.5 44 -1.5 q21.5 -1 31.5 -2 q29 -3 39 -13.5 q10 -10.5 13 -21.5 q3 -10 3.5 -17.5 q0.5 -7.5 0.5 -15.5 q0 -9 7 -9 q5 0 6 6.5 q1 6.5 1 12.5 q0 3 0.5 10.5 q0.5 7.5 1 17 q0.5 9.5 1 19 q0.5 9.5 1.5 17.5 q2 25 5 38 q3 13 3 18 q0 8 -5 8 q-4 0 -15 -13 q-7 -8 -18 -10 q-11 -2 -29 -4 q-9 -1 -33 -1.5 q-24 -0.5 -51 -0.5 q-26 0 -48 0 q-22 0 -27 0 q-6 0 -6 10 l0 276 q0 10 6 10 q4 0 23 0 q20 0 43 -0.5 q23 -0.5 44 -1 q21 -0.5 27 -1.5 q40 -5 53 -13.5 q13 -8.5 18 -20.5 q4 -9 5 -20 q1 -11 1 -16 q0 -13 8 -13 q3 0 4.5 3.5 q1.5 3.5 2.5 7.5 q1 4 1.5 13.5 q0.5 9.5 1.5 20 q1 10.5 1.5 19.5 q0.5 9 0.5 13 q2 21 5 31.5 q3 10.5 3 15.5 q0 9 -4 9 q-4 0 -7 -2 q-3 -2 -7 -3 q-14 -3 -43 -5 q-9 0 -44.5 -0.5 q-35.5 -0.5 -76.5 -0.5 q-40 0 -73 0 q-32 0 -35 0 l-41 2 q-17 1 -36 1 q-19 0 -36 0 q-16 0 -16 -8 q0 -6 8 -6 q7 0 17.5 -0.5 q10.5 -0.5 16.5 -2.5 q25 -5 33 -18 q8 -13 10 -39 q1 -12 1.5 -25.5 q0.5 -13.5 0.5 -36.5 q0 -22 0 -59 q0 -37 0 -95 l0 -176 ZM451 845 q2 2 3.5 4.5 q1.5 2.5 1.5 4.5 q0 2 -12 10 q-5 4 -20 15.5 q-15 11.5 -32 24 q-17 12.5 -31.5 23.5 q-14.5 11 -17.5 13 q-6 5 -9.5 7.5 q-3.5 2.5 -6.5 2.5 q-5 0 -16 -10 q-4 -4 -20.5 -19 q-16.5 -15 -35.5 -33 q-19 -18 -35.5 -33 q-16.5 -15 -20.5 -19 q-2 -3 -4 -5.5 q-2 -2.5 -2 -5.5 q0 -8 7 -8 q7 0 18 10 q9 7 20 16.5 q11 9.5 22.5 18 q11.5 8.5 22.5 16 q11 7.5 20 12.5 q10 5 16 5 q2 0 10 -4 q4 -3 15 -11 q11 -8 24 -18 q13 -10 25 -21 q12 -11 20 -19 q4 -5 8 -5 q3 0 9 6 l21 22 Z" /><glyph glyph-name="Edieresis" unicode="" d="M178 287 q0 -72 -0.5 -128.5 q-0.5 -56.5 -4.5 -88.5 q-3 -22 -8.5 -37 q-5.5 -15 -20.5 -18 q-7 -2 -15 -3 q-8 -1 -15 -1 q-8 0 -8 -6 q0 -8 16 -8 q11 0 27 1 q16 1 31 1 q16 1 27 1 q11 0 13 0 q11 0 30 -0.5 q19 -0.5 48 -2.5 q29 -1 70.5 -2 q41.5 -1 98.5 -1 q15 0 24 0.5 q9 0.5 15 3 q6 2.5 9 7.5 q3 5 6 15 q2 8 4 23 q2 15 4 30.5 q2 15.5 3.5 28 q1.5 12.5 1.5 15.5 q0 5 -0.5 10 q-0.5 5 -5.5 5 q-6 0 -9 -15 q-5 -31 -15 -47.5 q-10 -16.5 -30 -24.5 q-20 -8 -48 -9.5 q-28 -1.5 -48 -1.5 q-37 0 -59 3 q-22 3 -34.5 12 q-12.5 9 -17 25 q-4.5 16 -5.5 42 q0 8 0 31 q0 23 0 50 q0 27 0 52 q0 25 0 38 l0 88 q0 7 7 7 q6 0 25.5 -0.5 q19.5 -0.5 42 -1 q22.5 -0.5 44 -1.5 q21.5 -1 31.5 -2 q29 -3 39 -13.5 q10 -10.5 13 -21.5 q3 -10 3.5 -17.5 q0.5 -7.5 0.5 -15.5 q0 -9 7 -9 q5 0 6 6.5 q1 6.5 1 12.5 q0 3 0.5 10.5 q0.5 7.5 1 17 q0.5 9.5 1 19 q0.5 9.5 1.5 17.5 q2 25 5 38 q3 13 3 18 q0 8 -5 8 q-4 0 -15 -13 q-7 -8 -18 -10 q-11 -2 -29 -4 q-9 -1 -33 -1.5 q-24 -0.5 -51 -0.5 q-26 0 -48 0 q-22 0 -27 0 q-6 0 -6 10 l0 276 q0 10 6 10 q4 0 23 0 q20 0 43 -0.5 q23 -0.5 44 -1 q21 -0.5 27 -1.5 q40 -5 53 -13.5 q13 -8.5 18 -20.5 q4 -9 5 -20 q1 -11 1 -16 q0 -13 8 -13 q3 0 4.5 3.5 q1.5 3.5 2.5 7.5 q1 4 1.5 13.5 q0.5 9.5 1.5 20 q1 10.5 1.5 19.5 q0.5 9 0.5 13 q2 21 5 31.5 q3 10.5 3 15.5 q0 9 -4 9 q-4 0 -7 -2 q-3 -2 -7 -3 q-14 -3 -43 -5 q-9 0 -44.5 -0.5 q-35.5 -0.5 -76.5 -0.5 q-40 0 -73 0 q-32 0 -35 0 l-41 2 q-17 1 -36 1 q-19 0 -36 0 q-16 0 -16 -8 q0 -6 8 -6 q7 0 17.5 -0.5 q10.5 -0.5 16.5 -2.5 q25 -5 33 -18 q8 -13 10 -39 q1 -12 1.5 -25.5 q0.5 -13.5 0.5 -36.5 q0 -22 0 -59 q0 -37 0 -95 l0 -176 ZM424 830 q20 0 32 13 q12 13 12 33 q0 19 -12.5 29.5 q-12.5 10.5 -30.5 10.5 q-23 0 -33 -14.5 q-10 -14.5 -10 -28.5 q0 -14 9.5 -28.5 q9.5 -14.5 32.5 -14.5 ZM223 830 q20 0 32 13 q12 13 12 33 q0 19 -12.5 29.5 q-12.5 10.5 -30.5 10.5 q-23 0 -33 -14.5 q-10 -14.5 -10 -28.5 q0 -14 9.5 -28.5 q9.5 -14.5 32.5 -14.5 Z" /><glyph glyph-name="Egrave" unicode="" d="M178 287 q0 -72 -0.5 -128.5 q-0.5 -56.5 -4.5 -88.5 q-3 -22 -8.5 -37 q-5.5 -15 -20.5 -18 q-7 -2 -15 -3 q-8 -1 -15 -1 q-8 0 -8 -6 q0 -8 16 -8 q11 0 27 1 q16 1 31 1 q16 1 27 1 q11 0 13 0 q11 0 30 -0.5 q19 -0.5 48 -2.5 q29 -1 70.5 -2 q41.5 -1 98.5 -1 q15 0 24 0.5 q9 0.5 15 3 q6 2.5 9 7.5 q3 5 6 15 q2 8 4 23 q2 15 4 30.5 q2 15.5 3.5 28 q1.5 12.5 1.5 15.5 q0 5 -0.5 10 q-0.5 5 -5.5 5 q-6 0 -9 -15 q-5 -31 -15 -47.5 q-10 -16.5 -30 -24.5 q-20 -8 -48 -9.5 q-28 -1.5 -48 -1.5 q-37 0 -59 3 q-22 3 -34.5 12 q-12.5 9 -17 25 q-4.5 16 -5.5 42 q0 8 0 31 q0 23 0 50 q0 27 0 52 q0 25 0 38 l0 88 q0 7 7 7 q6 0 25.5 -0.5 q19.5 -0.5 42 -1 q22.5 -0.5 44 -1.5 q21.5 -1 31.5 -2 q29 -3 39 -13.5 q10 -10.5 13 -21.5 q3 -10 3.5 -17.5 q0.5 -7.5 0.5 -15.5 q0 -9 7 -9 q5 0 6 6.5 q1 6.5 1 12.5 q0 3 0.5 10.5 q0.5 7.5 1 17 q0.5 9.5 1 19 q0.5 9.5 1.5 17.5 q2 25 5 38 q3 13 3 18 q0 8 -5 8 q-4 0 -15 -13 q-7 -8 -18 -10 q-11 -2 -29 -4 q-9 -1 -33 -1.5 q-24 -0.5 -51 -0.5 q-26 0 -48 0 q-22 0 -27 0 q-6 0 -6 10 l0 276 q0 10 6 10 q4 0 23 0 q20 0 43 -0.5 q23 -0.5 44 -1 q21 -0.5 27 -1.5 q40 -5 53 -13.5 q13 -8.5 18 -20.5 q4 -9 5 -20 q1 -11 1 -16 q0 -13 8 -13 q3 0 4.5 3.5 q1.5 3.5 2.5 7.5 q1 4 1.5 13.5 q0.5 9.5 1.5 20 q1 10.5 1.5 19.5 q0.5 9 0.5 13 q2 21 5 31.5 q3 10.5 3 15.5 q0 9 -4 9 q-4 0 -7 -2 q-3 -2 -7 -3 q-14 -3 -43 -5 q-9 0 -44.5 -0.5 q-35.5 -0.5 -76.5 -0.5 q-40 0 -73 0 q-32 0 -35 0 l-41 2 q-17 1 -36 1 q-19 0 -36 0 q-16 0 -16 -8 q0 -6 8 -6 q7 0 17.5 -0.5 q10.5 -0.5 16.5 -2.5 q25 -5 33 -18 q8 -13 10 -39 q1 -12 1.5 -25.5 q0.5 -13.5 0.5 -36.5 q0 -22 0 -59 q0 -37 0 -95 l0 -176 ZM375 830 q9 0 9 5 q0 3 -5.5 6 q-5.5 3 -13.5 8 q-15 10 -31.5 21.5 q-16.5 11.5 -30 22 q-13.5 10.5 -23.5 18.5 q-10 8 -13 11 q-7 7 -9 11.5 q-2 4.5 -6 4.5 q-3 0 -6.5 -1.5 q-3.5 -1.5 -9.5 -3.5 q-9 -4 -26.5 -9 q-17.5 -5 -33.5 -10 q-11 -3 -11 -8 q0 -6 29 -17 q4 -2 17.5 -6.5 q13.5 -4.5 32.5 -11.5 q19 -7 40 -14 q21 -7 39.5 -13 q18.5 -6 32.5 -10 q14 -4 19 -4 Z" /><glyph glyph-name="Iacute" unicode="" d="M262 463 q0 58 0 95 q0 37 0 59 q0 23 0.5 36.5 q0.5 13.5 1.5 25.5 q2 26 9.5 39.5 q7.5 13.5 27.5 17.5 q9 2 14.5 2.5 q5.5 0.5 10.5 0.5 q8 0 8 6 q0 8 -16 8 q-11 0 -27 -0.5 q-16 -0.5 -31 -1 q-15 -0.5 -26.5 -1 q-11.5 -0.5 -13.5 -0.5 q-2 0 -13.5 0.5 q-11.5 0.5 -26.5 1 q-15 0.5 -32 1 q-17 0.5 -29 0.5 q-16 0 -16 -8 q0 -6 8 -6 q5 0 14 -1 q9 -1 17 -3 q31 -7 34 -56 q1 -12 1.5 -25.5 q0.5 -13.5 0.5 -36.5 q0 -22 0 -59 q0 -37 0 -95 l0 -176 q0 -72 -0.5 -128.5 q-0.5 -56.5 -4.5 -88.5 q-3 -22 -8.5 -37 q-5.5 -15 -20.5 -18 q-7 -2 -15 -3 q-8 -1 -15 -1 q-8 0 -8 -6 q0 -8 16 -8 q11 0 27 0.5 q16 0.5 31 1 q15 0.5 26.5 1 q11.5 0.5 13.5 0.5 q2 0 13.5 -0.5 q11.5 -0.5 29 -1 q17.5 -0.5 38.5 -1 q21 -0.5 42 -0.5 q16 0 16 8 q0 6 -8 6 q-7 0 -20.5 1 q-13.5 1 -24.5 3 q-23 3 -30 18 q-7 15 -9 37 q-4 32 -4.5 88.5 q-0.5 56.5 -0.5 128.5 l0 176 ZM348 933 q-6 9 -10 9 q-4 0 -9.5 -2.5 q-5.5 -2.5 -18.5 -10.5 q-3 -2 -19.5 -11.5 q-16.5 -9.5 -38 -23 q-21.5 -13.5 -43.5 -27.5 q-22 -14 -35 -23 q-7 -4 -7 -8 q0 -6 5 -6 q3 0 15 5 q12 5 30.5 11.5 q18.5 6.5 39.5 12.5 q21 6 42.5 11 q21.5 5 39.5 7 q13 2 20.5 1 q7.5 -1 9.5 -1 q3 0 5.5 2.5 q2.5 2.5 -1.5 9.5 q-8 15 -14 25.5 q-6 10.5 -11 18.5 Z" /><glyph glyph-name="Icircumflex" unicode="" d="M262 463 q0 58 0 95 q0 37 0 59 q0 23 0.5 36.5 q0.5 13.5 1.5 25.5 q2 26 9.5 39.5 q7.5 13.5 27.5 17.5 q9 2 14.5 2.5 q5.5 0.5 10.5 0.5 q8 0 8 6 q0 8 -16 8 q-11 0 -27 -0.5 q-16 -0.5 -31 -1 q-15 -0.5 -26.5 -1 q-11.5 -0.5 -13.5 -0.5 q-2 0 -13.5 0.5 q-11.5 0.5 -26.5 1 q-15 0.5 -32 1 q-17 0.5 -29 0.5 q-16 0 -16 -8 q0 -6 8 -6 q5 0 14 -1 q9 -1 17 -3 q31 -7 34 -56 q1 -12 1.5 -25.5 q0.5 -13.5 0.5 -36.5 q0 -22 0 -59 q0 -37 0 -95 l0 -176 q0 -72 -0.5 -128.5 q-0.5 -56.5 -4.5 -88.5 q-3 -22 -8.5 -37 q-5.5 -15 -20.5 -18 q-7 -2 -15 -3 q-8 -1 -15 -1 q-8 0 -8 -6 q0 -8 16 -8 q11 0 27 0.5 q16 0.5 31 1 q15 0.5 26.5 1 q11.5 0.5 13.5 0.5 q2 0 13.5 -0.5 q11.5 -0.5 29 -1 q17.5 -0.5 38.5 -1 q21 -0.5 42 -0.5 q16 0 16 8 q0 6 -8 6 q-7 0 -20.5 1 q-13.5 1 -24.5 3 q-23 3 -30 18 q-7 15 -9 37 q-4 32 -4.5 88.5 q-0.5 56.5 -0.5 128.5 l0 176 ZM347 845 q2 2 3.5 4.5 q1.5 2.5 1.5 4.5 q0 2 -12 10 q-5 4 -20 15.5 q-15 11.5 -32 24 q-17 12.5 -31.5 23.5 q-14.5 11 -17.5 13 q-6 5 -9.5 7.5 q-3.5 2.5 -6.5 2.5 q-5 0 -16 -10 q-4 -4 -20.5 -19 q-16.5 -15 -35.5 -33 q-19 -18 -35.5 -33 q-16.5 -15 -20.5 -19 q-2 -3 -4 -5.5 q-2 -2.5 -2 -5.5 q0 -8 7 -8 q7 0 18 10 q9 7 20 16.5 q11 9.5 22.5 18 q11.5 8.5 22.5 16 q11 7.5 20 12.5 q10 5 16 5 q2 0 10 -4 q4 -3 15 -11 q11 -8 24 -18 q13 -10 25 -21 q12 -11 20 -19 q4 -5 8 -5 q3 0 9 6 l21 22 Z" /><glyph glyph-name="Idieresis" unicode="" d="M262 463 q0 58 0 95 q0 37 0 59 q0 23 0.5 36.5 q0.5 13.5 1.5 25.5 q2 26 9.5 39.5 q7.5 13.5 27.5 17.5 q9 2 14.5 2.5 q5.5 0.5 10.5 0.5 q8 0 8 6 q0 8 -16 8 q-11 0 -27 -0.5 q-16 -0.5 -31 -1 q-15 -0.5 -26.5 -1 q-11.5 -0.5 -13.5 -0.5 q-2 0 -13.5 0.5 q-11.5 0.5 -26.5 1 q-15 0.5 -32 1 q-17 0.5 -29 0.5 q-16 0 -16 -8 q0 -6 8 -6 q5 0 14 -1 q9 -1 17 -3 q31 -7 34 -56 q1 -12 1.5 -25.5 q0.5 -13.5 0.5 -36.5 q0 -22 0 -59 q0 -37 0 -95 l0 -176 q0 -72 -0.5 -128.5 q-0.5 -56.5 -4.5 -88.5 q-3 -22 -8.5 -37 q-5.5 -15 -20.5 -18 q-7 -2 -15 -3 q-8 -1 -15 -1 q-8 0 -8 -6 q0 -8 16 -8 q11 0 27 0.5 q16 0.5 31 1 q15 0.5 26.5 1 q11.5 0.5 13.5 0.5 q2 0 13.5 -0.5 q11.5 -0.5 29 -1 q17.5 -0.5 38.5 -1 q21 -0.5 42 -0.5 q16 0 16 8 q0 6 -8 6 q-7 0 -20.5 1 q-13.5 1 -24.5 3 q-23 3 -30 18 q-7 15 -9 37 q-4 32 -4.5 88.5 q-0.5 56.5 -0.5 128.5 l0 176 ZM320 830 q20 0 32 13 q12 13 12 33 q0 19 -12.5 29.5 q-12.5 10.5 -30.5 10.5 q-23 0 -33 -14.5 q-10 -14.5 -10 -28.5 q0 -14 9.5 -28.5 q9.5 -14.5 32.5 -14.5 ZM119 830 q20 0 32 13 q12 13 12 33 q0 19 -12.5 29.5 q-12.5 10.5 -30.5 10.5 q-23 0 -33 -14.5 q-10 -14.5 -10 -28.5 q0 -14 9.5 -28.5 q9.5 -14.5 32.5 -14.5 Z" /><glyph glyph-name="Igrave" unicode="" d="M262 463 q0 58 0 95 q0 37 0 59 q0 23 0.5 36.5 q0.5 13.5 1.5 25.5 q2 26 9.5 39.5 q7.5 13.5 27.5 17.5 q9 2 14.5 2.5 q5.5 0.5 10.5 0.5 q8 0 8 6 q0 8 -16 8 q-11 0 -27 -0.5 q-16 -0.5 -31 -1 q-15 -0.5 -26.5 -1 q-11.5 -0.5 -13.5 -0.5 q-2 0 -13.5 0.5 q-11.5 0.5 -26.5 1 q-15 0.5 -32 1 q-17 0.5 -29 0.5 q-16 0 -16 -8 q0 -6 8 -6 q5 0 14 -1 q9 -1 17 -3 q31 -7 34 -56 q1 -12 1.5 -25.5 q0.5 -13.5 0.5 -36.5 q0 -22 0 -59 q0 -37 0 -95 l0 -176 q0 -72 -0.5 -128.5 q-0.5 -56.5 -4.5 -88.5 q-3 -22 -8.5 -37 q-5.5 -15 -20.5 -18 q-7 -2 -15 -3 q-8 -1 -15 -1 q-8 0 -8 -6 q0 -8 16 -8 q11 0 27 0.5 q16 0.5 31 1 q15 0.5 26.5 1 q11.5 0.5 13.5 0.5 q2 0 13.5 -0.5 q11.5 -0.5 29 -1 q17.5 -0.5 38.5 -1 q21 -0.5 42 -0.5 q16 0 16 8 q0 6 -8 6 q-7 0 -20.5 1 q-13.5 1 -24.5 3 q-23 3 -30 18 q-7 15 -9 37 q-4 32 -4.5 88.5 q-0.5 56.5 -0.5 128.5 l0 176 ZM271 830 q9 0 9 5 q0 3 -5.5 6 q-5.5 3 -13.5 8 q-15 10 -31.5 21.5 q-16.5 11.5 -30 22 q-13.5 10.5 -23.5 18.5 q-10 8 -13 11 q-7 7 -9 11.5 q-2 4.5 -6 4.5 q-3 0 -6.5 -1.5 q-3.5 -1.5 -9.5 -3.5 q-9 -4 -26.5 -9 q-17.5 -5 -33.5 -10 q-11 -3 -11 -8 q0 -6 29 -17 q4 -2 17.5 -6.5 q13.5 -4.5 32.5 -11.5 q19 -7 40 -14 q21 -7 39.5 -13 q18.5 -6 33 -10 q14.5 -4 18.5 -4 Z" /><glyph glyph-name="Ntilde" unicode="" d="M192 612 q12 -14 38 -42.5 q26 -28.5 61 -67.5 q35 -39 76.5 -84.5 q41.5 -45.5 85.5 -92.5 q40 -43 84 -89 q44 -46 82 -85.5 q38 -39.5 64.5 -66 q26.5 -26.5 30.5 -30.5 q20 -20 32.5 -32.5 q12.5 -12.5 20.5 -19.5 q8 -7 12.5 -9.5 q4.5 -2.5 7.5 -2.5 q3 0 4.5 2 q1.5 2 2.5 9 q1 7 1.5 21 q0.5 14 0.5 39 l2 586 q0 45 6 64.5 q6 19.5 31 24.5 q9 2 14.5 2.5 q5.5 0.5 9.5 0.5 q11 0 11 7 q0 7 -18 7 q-31 0 -54 -1.5 q-23 -1.5 -31 -1.5 q-4 0 -14.5 0.5 q-10.5 0.5 -25 1 q-14.5 0.5 -31 1 q-16.5 0.5 -33.5 0.5 q-20 0 -20 -7 q0 -7 8 -7 q6 0 20.5 -1 q14.5 -1 28.5 -4 q23 -6 30.5 -26 q7.5 -20 8.5 -69 l11 -508 q-12 12 -37 39.5 q-25 27.5 -58 63.5 q-33 36 -70.5 77 q-37.5 41 -74.5 81 q-58 62 -112.5 121 q-54.5 59 -98.5 106 q-44 47 -72.5 78.5 q-28.5 31.5 -34.5 37.5 q-8 8 -18.5 20 q-10.5 12 -16.5 12 q-6 0 -8.5 -10.5 q-2.5 -10.5 -2.5 -39.5 l-1 -573 q0 -68 -5.5 -95 q-5.5 -27 -24.5 -32 q-11 -4 -23 -5 q-12 -1 -18 -1 q-8 0 -8 -6 q0 -8 16 -8 q34 0 61.5 1.5 q27.5 1.5 34.5 1.5 q7 0 35 -1.5 q28 -1.5 71 -1.5 q18 0 18 8 q0 6 -8 6 q-7 0 -21.5 1 q-14.5 1 -28.5 5 q-10 3 -17 10 q-7 7 -11.5 20.5 q-4.5 13.5 -7 34 q-2.5 20.5 -3.5 51.5 l-13 479 ZM554 830 q12 0 25 8.5 q13 8.5 25 20 q12 11.5 21 23 q9 11.5 12 17.5 q4 8 4 13 q0 6 -7 6 q-5 0 -12 -11 q-1 -2 -5.5 -6.5 q-4.5 -4.5 -12 -9.5 q-7.5 -5 -18.5 -9 q-11 -4 -25 -4 q-12 0 -29.5 6 q-17.5 6 -28.5 11 q-23 11 -44.5 21 q-21.5 10 -39.5 10 q-12 0 -25 -8 q-13 -8 -25 -19.5 q-12 -11.5 -21.5 -23.5 q-9.5 -12 -14.5 -20 q-3 -5 -5 -8 q-2 -3 -2 -7 q0 -6 6 -6 q6 0 14 9 q3 3 7.5 9 q4.5 6 12 12 q7.5 6 18 10.5 q10.5 4.5 23.5 4.5 q23 0 38.5 -8.5 q15.5 -8.5 29.5 -14.5 q11 -5 32.5 -15.5 q21.5 -10.5 46.5 -10.5 Z" /><glyph glyph-name="Oacute" unicode="" d="M64 376 q0 -68 22 -137.5 q22 -69.5 69 -126.5 q47 -57 120.5 -93 q73.5 -36 176.5 -36 q90 0 164 32.5 q74 32.5 126 88 q52 55.5 80.5 130 q28.5 74.5 28.5 158.5 q0 87 -30 156.5 q-30 69.5 -82.5 118 q-52.5 48.5 -124.5 74.5 q-72 26 -156 26 q-69 0 -125 -17.5 q-56 -17.5 -100 -47.5 q-44 -30 -75.5 -69.5 q-31.5 -39.5 -52.5 -83 q-21 -43.5 -31 -88.5 q-10 -45 -10 -85 ZM159 404 q0 82 22 143.5 q22 61.5 61 103 q39 41.5 92.5 62 q53.5 20.5 116.5 20.5 q59 0 114 -24 q55 -24 97 -70.5 q42 -46.5 67.5 -115.5 q25.5 -69 25.5 -159 q0 -109 -30.5 -176.5 q-30.5 -67.5 -74 -104.5 q-43.5 -37 -90.5 -49.5 q-47 -12.5 -81 -12.5 q-68 0 -126 27 q-58 27 -101.5 77 q-43.5 50 -68 121 q-24.5 71 -24.5 158 ZM585 933 q-6 9 -10 9 q-4 0 -9.5 -2.5 q-5.5 -2.5 -18.5 -10.5 q-3 -2 -19.5 -11.5 q-16.5 -9.5 -38 -23 q-21.5 -13.5 -43.5 -27.5 q-22 -14 -35 -23 q-7 -4 -7 -8 q0 -6 5 -6 q3 0 15 5 q12 5 30.5 11.5 q18.5 6.5 39.5 12.5 q21 6 42.5 11 q21.5 5 39.5 7 q13 2 20.5 1 q7.5 -1 9.5 -1 q3 0 5.5 2.5 q2.5 2.5 -1.5 9.5 q-8 15 -14 25.5 q-6 10.5 -11 18.5 Z" /><glyph glyph-name="Ocircumflex" unicode="" d="M64 376 q0 -68 22 -137.5 q22 -69.5 69 -126.5 q47 -57 120.5 -93 q73.5 -36 176.5 -36 q90 0 164 32.5 q74 32.5 126 88 q52 55.5 80.5 130 q28.5 74.5 28.5 158.5 q0 87 -30 156.5 q-30 69.5 -82.5 118 q-52.5 48.5 -124.5 74.5 q-72 26 -156 26 q-69 0 -125 -17.5 q-56 -17.5 -100 -47.5 q-44 -30 -75.5 -69.5 q-31.5 -39.5 -52.5 -83 q-21 -43.5 -31 -88.5 q-10 -45 -10 -85 ZM159 404 q0 82 22 143.5 q22 61.5 61 103 q39 41.5 92.5 62 q53.5 20.5 116.5 20.5 q59 0 114 -24 q55 -24 97 -70.5 q42 -46.5 67.5 -115.5 q25.5 -69 25.5 -159 q0 -109 -30.5 -176.5 q-30.5 -67.5 -74 -104.5 q-43.5 -37 -90.5 -49.5 q-47 -12.5 -81 -12.5 q-68 0 -126 27 q-58 27 -101.5 77 q-43.5 50 -68 121 q-24.5 71 -24.5 158 ZM584 845 q2 2 3.5 4.5 q1.5 2.5 1.5 4.5 q0 2 -12 10 q-5 4 -20 15.5 q-15 11.5 -32 24 q-17 12.5 -31.5 23.5 q-14.5 11 -17.5 13 q-6 5 -9.5 7.5 q-3.5 2.5 -6.5 2.5 q-5 0 -16 -10 q-4 -4 -20.5 -19 q-16.5 -15 -35.5 -33 q-19 -18 -35.5 -33 q-16.5 -15 -20.5 -19 q-2 -3 -4 -5.5 q-2 -2.5 -2 -5.5 q0 -8 7 -8 q7 0 18 10 q9 7 20 16.5 q11 9.5 22.5 18 q11.5 8.5 22.5 16 q11 7.5 20 12.5 q10 5 16 5 q2 0 10 -4 q4 -3 15 -11 q11 -8 24 -18 q13 -10 25 -21 q12 -11 20 -19 q4 -5 8 -5 q3 0 9 6 l21 22 Z" /><glyph glyph-name="Odieresis" unicode="" d="M64 376 q0 -68 22 -137.5 q22 -69.5 69 -126.5 q47 -57 120.5 -93 q73.5 -36 176.5 -36 q90 0 164 32.5 q74 32.5 126 88 q52 55.5 80.5 130 q28.5 74.5 28.5 158.5 q0 87 -30 156.5 q-30 69.5 -82.5 118 q-52.5 48.5 -124.5 74.5 q-72 26 -156 26 q-69 0 -125 -17.5 q-56 -17.5 -100 -47.5 q-44 -30 -75.5 -69.5 q-31.5 -39.5 -52.5 -83 q-21 -43.5 -31 -88.5 q-10 -45 -10 -85 ZM159 404 q0 82 22 143.5 q22 61.5 61 103 q39 41.5 92.5 62 q53.5 20.5 116.5 20.5 q59 0 114 -24 q55 -24 97 -70.5 q42 -46.5 67.5 -115.5 q25.5 -69 25.5 -159 q0 -109 -30.5 -176.5 q-30.5 -67.5 -74 -104.5 q-43.5 -37 -90.5 -49.5 q-47 -12.5 -81 -12.5 q-68 0 -126 27 q-58 27 -101.5 77 q-43.5 50 -68 121 q-24.5 71 -24.5 158 ZM557 830 q20 0 32 13 q12 13 12 33 q0 19 -12.5 29.5 q-12.5 10.5 -30.5 10.5 q-23 0 -33 -14.5 q-10 -14.5 -10 -28.5 q0 -14 9.5 -28.5 q9.5 -14.5 32.5 -14.5 ZM356 830 q20 0 32 13 q12 13 12 33 q0 19 -12.5 29.5 q-12.5 10.5 -30.5 10.5 q-23 0 -33 -14.5 q-10 -14.5 -10 -28.5 q0 -14 9.5 -28.5 q9.5 -14.5 32.5 -14.5 Z" /><glyph glyph-name="Ograve" unicode="" d="M64 376 q0 -68 22 -137.5 q22 -69.5 69 -126.5 q47 -57 120.5 -93 q73.5 -36 176.5 -36 q90 0 164 32.5 q74 32.5 126 88 q52 55.5 80.5 130 q28.5 74.5 28.5 158.5 q0 87 -30 156.5 q-30 69.5 -82.5 118 q-52.5 48.5 -124.5 74.5 q-72 26 -156 26 q-69 0 -125 -17.5 q-56 -17.5 -100 -47.5 q-44 -30 -75.5 -69.5 q-31.5 -39.5 -52.5 -83 q-21 -43.5 -31 -88.5 q-10 -45 -10 -85 ZM159 404 q0 82 22 143.5 q22 61.5 61 103 q39 41.5 92.5 62 q53.5 20.5 116.5 20.5 q59 0 114 -24 q55 -24 97 -70.5 q42 -46.5 67.5 -115.5 q25.5 -69 25.5 -159 q0 -109 -30.5 -176.5 q-30.5 -67.5 -74 -104.5 q-43.5 -37 -90.5 -49.5 q-47 -12.5 -81 -12.5 q-68 0 -126 27 q-58 27 -101.5 77 q-43.5 50 -68 121 q-24.5 71 -24.5 158 ZM508 830 q9 0 9 5 q0 3 -5.5 6 q-5.5 3 -13.5 8 q-15 10 -31.5 21.5 q-16.5 11.5 -30 22 q-13.5 10.5 -23.5 18.5 q-10 8 -13 11 q-7 7 -9 11.5 q-2 4.5 -6 4.5 q-3 0 -6.5 -1.5 q-3.5 -1.5 -9.5 -3.5 q-9 -4 -26.5 -9 q-17.5 -5 -33.5 -10 q-11 -3 -11 -8 q0 -6 29 -17 q4 -2 17.5 -6.5 q13.5 -4.5 32.5 -11.5 q19 -7 40 -14 q21 -7 39.5 -13 q18.5 -6 32.5 -10 q14 -4 19 -4 Z" /><glyph glyph-name="Otilde" unicode="" d="M64 376 q0 -68 22 -137.5 q22 -69.5 69 -126.5 q47 -57 120.5 -93 q73.5 -36 176.5 -36 q90 0 164 32.5 q74 32.5 126 88 q52 55.5 80.5 130 q28.5 74.5 28.5 158.5 q0 87 -30 156.5 q-30 69.5 -82.5 118 q-52.5 48.5 -124.5 74.5 q-72 26 -156 26 q-69 0 -125 -17.5 q-56 -17.5 -100 -47.5 q-44 -30 -75.5 -69.5 q-31.5 -39.5 -52.5 -83 q-21 -43.5 -31 -88.5 q-10 -45 -10 -85 ZM159 404 q0 82 22 143.5 q22 61.5 61 103 q39 41.5 92.5 62 q53.5 20.5 116.5 20.5 q59 0 114 -24 q55 -24 97 -70.5 q42 -46.5 67.5 -115.5 q25.5 -69 25.5 -159 q0 -109 -30.5 -176.5 q-30.5 -67.5 -74 -104.5 q-43.5 -37 -90.5 -49.5 q-47 -12.5 -81 -12.5 q-68 0 -126 27 q-58 27 -101.5 77 q-43.5 50 -68 121 q-24.5 71 -24.5 158 ZM528 830 q12 0 25 8.5 q13 8.5 25 20 q12 11.5 21 23 q9 11.5 12 17.5 q4 8 4 13 q0 6 -7 6 q-5 0 -12 -11 q-1 -2 -5.5 -6.5 q-4.5 -4.5 -12 -9.5 q-7.5 -5 -18.5 -9 q-11 -4 -25 -4 q-12 0 -29.5 6 q-17.5 6 -28.5 11 q-23 11 -44.5 21 q-21.5 10 -39.5 10 q-12 0 -25 -8 q-13 -8 -25 -19.5 q-12 -11.5 -21.5 -23.5 q-9.5 -12 -14.5 -20 q-3 -5 -5 -8 q-2 -3 -2 -7 q0 -6 6 -6 q6 0 14 9 q3 3 7.5 9 q4.5 6 12 12 q7.5 6 18 10.5 q10.5 4.5 23.5 4.5 q23 0 38.5 -8.5 q15.5 -8.5 29.5 -14.5 q11 -5 32.5 -15.5 q21.5 -10.5 46.5 -10.5 Z" /><glyph glyph-name="Scaron" unicode="&#x160;" d="M248 -17 q41 0 80 9.5 q39 9.5 71 32.5 q26 18 42.5 40.5 q16.5 22.5 26 45.5 q9.5 23 13 44 q3.5 21 3.5 36 q0 30 -6 57.5 q-6 27.5 -22.5 55 q-16.5 27.5 -45 57.5 q-28.5 30 -72.5 65 l-28 22 q-36 28 -59.5 50 q-23.5 22 -37.5 41 q-14 19 -19.5 37.5 q-5.5 18.5 -5.5 39.5 q0 55 35.5 85.5 q35.5 30.5 87.5 30.5 q34 0 57 -6.5 q23 -6.5 37.5 -15.5 q14.5 -9 21.5 -18 q7 -9 9 -13 q5 -8 8.5 -24.5 q3.5 -16.5 4.5 -25.5 q1 -6 2 -9.5 q1 -3.5 6 -3.5 q7 0 7 23 q0 51 2 76.5 q2 25.5 2 29.5 q0 7 -10 7 q-6 0 -13.5 1 q-7.5 1 -21.5 4 q-19 5 -41.5 7.5 q-22.5 2.5 -51.5 2.5 q-48 0 -86 -13 q-38 -13 -65 -37 q-27 -24 -41.5 -57 q-14.5 -33 -14.5 -73 q0 -26 5.5 -50.5 q5.5 -24.5 20 -51 q14.5 -26.5 39.5 -54.5 q25 -28 65 -61 l45 -37 q32 -27 54 -48.5 q22 -21.5 35.5 -42 q13.5 -20.5 19.5 -42 q6 -21.5 6 -47.5 q0 -24 -9 -48 q-9 -24 -26.5 -42.5 q-17.5 -18.5 -44.5 -30.5 q-27 -12 -63 -12 q-25 0 -49 5.5 q-24 5.5 -44.5 17.5 q-20.5 12 -34.5 31.5 q-14 19.5 -20 47.5 q-2 11 -2.5 20.5 q-0.5 9.5 -0.5 16.5 q0 11 -7 11 q-7 0 -8 -16 q-1 -12 -3 -40 q-2 -28 -2 -66 q0 -20 2 -26.5 q2 -6.5 13 -11.5 q31 -15 65 -21 q34 -6 69 -6 ZM178 920 q-2 -2 -3.5 -4.5 q-1.5 -2.5 -1.5 -4.5 q0 -2 12 -10 q5 -4 20 -15.5 q15 -11.5 32 -24 q17 -12.5 31.5 -23.5 q14.5 -11 17.5 -13 q11 -10 15 -10 q6 0 17 10 q4 4 20.5 19 q16.5 15 35.5 33 q19 18 35.5 33 q16.5 15 20.5 19 q2 3 4 5.5 q2 2.5 2 5.5 q0 8 -7 8 q-7 0 -18 -10 q-9 -8 -20 -17 q-11 -9 -22.5 -17.5 q-11.5 -8.5 -22.5 -16.5 q-11 -8 -20 -12 q-10 -5 -16 -5 q-2 0 -10 4 q-5 2 -16 10 q-11 8 -23.5 18.5 q-12.5 10.5 -25 21.5 q-12.5 11 -19.5 19 q-4 5 -8 5 q-3 0 -9 -6 l-21 -22 Z" /><glyph glyph-name="Uacute" unicode="" d="M120 317 q0 -55 6.5 -96 q6.5 -41 18.5 -72.5 q12 -31.5 28 -54 q16 -22.5 34 -40.5 q27 -25 57.5 -39.5 q30.5 -14.5 59.5 -21.5 q29 -7 52.5 -8.5 q23.5 -1.5 36.5 -1.5 q22 0 47 2.5 q25 2.5 51 10.5 q26 8 53.5 22.5 q27.5 14.5 54.5 38.5 q30 27 48 61.5 q18 34.5 28 74 q10 39.5 13 81 q3 41.5 3 82.5 l0 107 q0 58 0 95 q0 37 0 59 q0 23 0.5 36.5 q0.5 13.5 1.5 25.5 q2 26 9.5 39 q7.5 13 27.5 18 q9 2 14.5 2.5 q5.5 0.5 10.5 0.5 q8 0 8 6 q0 8 -16 8 q-11 0 -24.5 -0.5 q-13.5 -0.5 -26 -1 q-12.5 -0.5 -21.5 -1 q-9 -0.5 -12 -0.5 q-2 0 -12.5 0.5 q-10.5 0.5 -25.5 1 q-15 0.5 -33 1 q-18 0.5 -35 0.5 q-16 0 -16 -8 q0 -6 8 -6 q7 0 17.5 -0.5 q10.5 -0.5 16.5 -2.5 q25 -5 33 -18 q8 -13 10 -39 q1 -12 1.5 -25.5 q0.5 -13.5 0.5 -36.5 q0 -22 0 -59 q0 -37 0 -95 l0 -125 q0 -78 -11.5 -140 q-11.5 -62 -46.5 -105 q-27 -32 -69 -52 q-42 -20 -88 -20 q-43 0 -78.5 10 q-35.5 10 -72.5 45 q-16 15 -30 35.5 q-14 20.5 -24 49.5 q-10 29 -15.5 68.5 q-5.5 39.5 -5.5 93.5 l0 140 q0 58 0 95 q0 37 0 59 q0 23 0.5 36.5 q0.5 13.5 1.5 25.5 q2 26 9.5 40 q7.5 14 27.5 17 q9 2 14.5 2.5 q5.5 0.5 10.5 0.5 q8 0 8 6 q0 8 -16 8 q-11 0 -26.5 -0.5 q-15.5 -0.5 -30.5 -1 q-15 -0.5 -27 -1 q-12 -0.5 -15 -0.5 q-3 0 -15.5 0.5 q-12.5 0.5 -29 1 q-16.5 0.5 -35 1 q-18.5 0.5 -35.5 0.5 q-16 0 -16 -8 q0 -6 8 -6 q7 0 17.5 -0.5 q10.5 -0.5 16.5 -2.5 q25 -5 33 -18 q8 -13 10 -39 q1 -12 1.5 -25.5 q0.5 -13.5 0.5 -36.5 q0 -22 0 -59 q0 -37 0 -95 l0 -146 ZM562 933 q-6 9 -10 9 q-4 0 -9.5 -2.5 q-5.5 -2.5 -18.5 -10.5 q-3 -2 -19.5 -11.5 q-16.5 -9.5 -38 -23 q-21.5 -13.5 -43.5 -27.5 q-22 -14 -35 -23 q-7 -4 -7 -8 q0 -6 5 -6 q3 0 15 5 q12 5 30.5 11.5 q18.5 6.5 39.5 12.5 q21 6 42.5 11 q21.5 5 39.5 7 q13 2 20.5 1 q7.5 -1 9.5 -1 q3 0 5.5 2.5 q2.5 2.5 -1.5 9.5 q-8 15 -14 25.5 q-6 10.5 -11 18.5 Z" /><glyph glyph-name="Ucircumflex" unicode="" d="M120 317 q0 -55 6.5 -96 q6.5 -41 18.5 -72.5 q12 -31.5 28 -54 q16 -22.5 34 -40.5 q27 -25 57.5 -39.5 q30.5 -14.5 59.5 -21.5 q29 -7 52.5 -8.5 q23.5 -1.5 36.5 -1.5 q22 0 47 2.5 q25 2.5 51 10.5 q26 8 53.5 22.5 q27.5 14.5 54.5 38.5 q30 27 48 61.5 q18 34.5 28 74 q10 39.5 13 81 q3 41.5 3 82.5 l0 107 q0 58 0 95 q0 37 0 59 q0 23 0.5 36.5 q0.5 13.5 1.5 25.5 q2 26 9.5 39 q7.5 13 27.5 18 q9 2 14.5 2.5 q5.5 0.5 10.5 0.5 q8 0 8 6 q0 8 -16 8 q-11 0 -24.5 -0.5 q-13.5 -0.5 -26 -1 q-12.5 -0.5 -21.5 -1 q-9 -0.5 -12 -0.5 q-2 0 -12.5 0.5 q-10.5 0.5 -25.5 1 q-15 0.5 -33 1 q-18 0.5 -35 0.5 q-16 0 -16 -8 q0 -6 8 -6 q7 0 17.5 -0.5 q10.5 -0.5 16.5 -2.5 q25 -5 33 -18 q8 -13 10 -39 q1 -12 1.5 -25.5 q0.5 -13.5 0.5 -36.5 q0 -22 0 -59 q0 -37 0 -95 l0 -125 q0 -78 -11.5 -140 q-11.5 -62 -46.5 -105 q-27 -32 -69 -52 q-42 -20 -88 -20 q-43 0 -78.5 10 q-35.5 10 -72.5 45 q-16 15 -30 35.5 q-14 20.5 -24 49.5 q-10 29 -15.5 68.5 q-5.5 39.5 -5.5 93.5 l0 140 q0 58 0 95 q0 37 0 59 q0 23 0.5 36.5 q0.5 13.5 1.5 25.5 q2 26 9.5 40 q7.5 14 27.5 17 q9 2 14.5 2.5 q5.5 0.5 10.5 0.5 q8 0 8 6 q0 8 -16 8 q-11 0 -26.5 -0.5 q-15.5 -0.5 -30.5 -1 q-15 -0.5 -27 -1 q-12 -0.5 -15 -0.5 q-3 0 -15.5 0.5 q-12.5 0.5 -29 1 q-16.5 0.5 -35 1 q-18.5 0.5 -35.5 0.5 q-16 0 -16 -8 q0 -6 8 -6 q7 0 17.5 -0.5 q10.5 -0.5 16.5 -2.5 q25 -5 33 -18 q8 -13 10 -39 q1 -12 1.5 -25.5 q0.5 -13.5 0.5 -36.5 q0 -22 0 -59 q0 -37 0 -95 l0 -146 ZM556 845 q2 2 3.5 4.5 q1.5 2.5 1.5 4.5 q0 2 -12 10 q-5 4 -20 15.5 q-15 11.5 -32 24 q-17 12.5 -31.5 23.5 q-14.5 11 -17.5 13 q-6 5 -9.5 7.5 q-3.5 2.5 -6.5 2.5 q-5 0 -16 -10 q-4 -4 -20.5 -19 q-16.5 -15 -35.5 -33 q-19 -18 -35.5 -33 q-16.5 -15 -20.5 -19 q-2 -3 -4 -5.5 q-2 -2.5 -2 -5.5 q0 -8 7 -8 q7 0 18 10 q9 7 20 16.5 q11 9.5 22.5 18 q11.5 8.5 22.5 16 q11 7.5 20 12.5 q10 5 16 5 q2 0 10 -4 q4 -3 15 -11 q11 -8 24 -18 q13 -10 25 -21 q12 -11 20 -19 q4 -5 8 -5 q3 0 9 6 l21 22 Z" /><glyph glyph-name="Udieresis" unicode="" d="M120 317 q0 -55 6.5 -96 q6.5 -41 18.5 -72.5 q12 -31.5 28 -54 q16 -22.5 34 -40.5 q27 -25 57.5 -39.5 q30.5 -14.5 59.5 -21.5 q29 -7 52.5 -8.5 q23.5 -1.5 36.5 -1.5 q22 0 47 2.5 q25 2.5 51 10.5 q26 8 53.5 22.5 q27.5 14.5 54.5 38.5 q30 27 48 61.5 q18 34.5 28 74 q10 39.5 13 81 q3 41.5 3 82.5 l0 107 q0 58 0 95 q0 37 0 59 q0 23 0.5 36.5 q0.5 13.5 1.5 25.5 q2 26 9.5 39 q7.5 13 27.5 18 q9 2 14.5 2.5 q5.5 0.5 10.5 0.5 q8 0 8 6 q0 8 -16 8 q-11 0 -24.5 -0.5 q-13.5 -0.5 -26 -1 q-12.5 -0.5 -21.5 -1 q-9 -0.5 -12 -0.5 q-2 0 -12.5 0.5 q-10.5 0.5 -25.5 1 q-15 0.5 -33 1 q-18 0.5 -35 0.5 q-16 0 -16 -8 q0 -6 8 -6 q7 0 17.5 -0.5 q10.5 -0.5 16.5 -2.5 q25 -5 33 -18 q8 -13 10 -39 q1 -12 1.5 -25.5 q0.5 -13.5 0.5 -36.5 q0 -22 0 -59 q0 -37 0 -95 l0 -125 q0 -78 -11.5 -140 q-11.5 -62 -46.5 -105 q-27 -32 -69 -52 q-42 -20 -88 -20 q-43 0 -78.5 10 q-35.5 10 -72.5 45 q-16 15 -30 35.5 q-14 20.5 -24 49.5 q-10 29 -15.5 68.5 q-5.5 39.5 -5.5 93.5 l0 140 q0 58 0 95 q0 37 0 59 q0 23 0.5 36.5 q0.5 13.5 1.5 25.5 q2 26 9.5 40 q7.5 14 27.5 17 q9 2 14.5 2.5 q5.5 0.5 10.5 0.5 q8 0 8 6 q0 8 -16 8 q-11 0 -26.5 -0.5 q-15.5 -0.5 -30.5 -1 q-15 -0.5 -27 -1 q-12 -0.5 -15 -0.5 q-3 0 -15.5 0.5 q-12.5 0.5 -29 1 q-16.5 0.5 -35 1 q-18.5 0.5 -35.5 0.5 q-16 0 -16 -8 q0 -6 8 -6 q7 0 17.5 -0.5 q10.5 -0.5 16.5 -2.5 q25 -5 33 -18 q8 -13 10 -39 q1 -12 1.5 -25.5 q0.5 -13.5 0.5 -36.5 q0 -22 0 -59 q0 -37 0 -95 l0 -146 ZM534 830 q20 0 32 13 q12 13 12 33 q0 19 -12.5 29.5 q-12.5 10.5 -30.5 10.5 q-23 0 -33 -14.5 q-10 -14.5 -10 -28.5 q0 -14 9.5 -28.5 q9.5 -14.5 32.5 -14.5 ZM333 830 q20 0 32 13 q12 13 12 33 q0 19 -12.5 29.5 q-12.5 10.5 -30.5 10.5 q-23 0 -33 -14.5 q-10 -14.5 -10 -28.5 q0 -14 9.5 -28.5 q9.5 -14.5 32.5 -14.5 Z" /><glyph glyph-name="Ugrave" unicode="" d="M120 317 q0 -55 6.5 -96 q6.5 -41 18.5 -72.5 q12 -31.5 28 -54 q16 -22.5 34 -40.5 q27 -25 57.5 -39.5 q30.5 -14.5 59.5 -21.5 q29 -7 52.5 -8.5 q23.5 -1.5 36.5 -1.5 q22 0 47 2.5 q25 2.5 51 10.5 q26 8 53.5 22.5 q27.5 14.5 54.5 38.5 q30 27 48 61.5 q18 34.5 28 74 q10 39.5 13 81 q3 41.5 3 82.5 l0 107 q0 58 0 95 q0 37 0 59 q0 23 0.5 36.5 q0.5 13.5 1.5 25.5 q2 26 9.5 39 q7.5 13 27.5 18 q9 2 14.5 2.5 q5.5 0.5 10.5 0.5 q8 0 8 6 q0 8 -16 8 q-11 0 -24.5 -0.5 q-13.5 -0.5 -26 -1 q-12.5 -0.5 -21.5 -1 q-9 -0.5 -12 -0.5 q-2 0 -12.5 0.5 q-10.5 0.5 -25.5 1 q-15 0.5 -33 1 q-18 0.5 -35 0.5 q-16 0 -16 -8 q0 -6 8 -6 q7 0 17.5 -0.5 q10.5 -0.5 16.5 -2.5 q25 -5 33 -18 q8 -13 10 -39 q1 -12 1.5 -25.5 q0.5 -13.5 0.5 -36.5 q0 -22 0 -59 q0 -37 0 -95 l0 -125 q0 -78 -11.5 -140 q-11.5 -62 -46.5 -105 q-27 -32 -69 -52 q-42 -20 -88 -20 q-43 0 -78.5 10 q-35.5 10 -72.5 45 q-16 15 -30 35.5 q-14 20.5 -24 49.5 q-10 29 -15.5 68.5 q-5.5 39.5 -5.5 93.5 l0 140 q0 58 0 95 q0 37 0 59 q0 23 0.5 36.5 q0.5 13.5 1.5 25.5 q2 26 9.5 40 q7.5 14 27.5 17 q9 2 14.5 2.5 q5.5 0.5 10.5 0.5 q8 0 8 6 q0 8 -16 8 q-11 0 -26.5 -0.5 q-15.5 -0.5 -30.5 -1 q-15 -0.5 -27 -1 q-12 -0.5 -15 -0.5 q-3 0 -15.5 0.5 q-12.5 0.5 -29 1 q-16.5 0.5 -35 1 q-18.5 0.5 -35.5 0.5 q-16 0 -16 -8 q0 -6 8 -6 q7 0 17.5 -0.5 q10.5 -0.5 16.5 -2.5 q25 -5 33 -18 q8 -13 10 -39 q1 -12 1.5 -25.5 q0.5 -13.5 0.5 -36.5 q0 -22 0 -59 q0 -37 0 -95 l0 -146 ZM470 830 q9 0 9 5 q0 3 -5.5 6 q-5.5 3 -13.5 8 q-15 10 -31.5 21.5 q-16.5 11.5 -30 22 q-13.5 10.5 -23.5 18.5 q-10 8 -13 11 q-7 7 -9 11.5 q-2 4.5 -6 4.5 q-3 0 -6.5 -1.5 q-3.5 -1.5 -9.5 -3.5 q-9 -4 -26.5 -9 q-17.5 -5 -33.5 -10 q-11 -3 -11 -8 q0 -6 29 -17 q4 -2 17.5 -6.5 q13.5 -4.5 32.5 -11.5 q19 -7 40 -14 q21 -7 39.5 -13 q18.5 -6 33 -10 q14.5 -4 18.5 -4 Z" /><glyph glyph-name="Yacute" unicode="" d="M289 170 q0 -12 -0.5 -40 q-0.5 -28 -2.5 -60 q-2 -22 -9 -37 q-7 -15 -22 -18 q-7 -2 -15 -3 q-8 -1 -15 -1 q-8 0 -8 -6 q0 -8 16 -8 q11 0 27 0.5 q16 0.5 31 1 q15 0.5 26.5 1 q11.5 0.5 13.5 0.5 q2 0 13.5 -0.5 q11.5 -0.5 29 -1 q17.5 -0.5 38.5 -1 q21 -0.5 42 -0.5 q16 0 16 8 q0 6 -8 6 q-7 0 -20.5 1 q-13.5 1 -24.5 3 q-23 3 -31 18 q-8 15 -10 37 q-2 32 -2.5 60 q-0.5 28 -0.5 40 l0 86 q0 25 2 49 q2 24 13 51 q4 11 18 36 q14 25 32.5 57 q18.5 32 39.5 67.5 q21 35.5 41 67 q20 31.5 36 56 q16 24.5 24 34.5 q17 20 27.5 31 q10.5 11 25.5 20 q12 8 25 11 q13 3 21 3 q13 0 13 8 q0 6 -13 6 q-7 0 -22.5 -0.5 q-15.5 -0.5 -31 -1 q-15.5 -0.5 -28.5 -1 q-13 -0.5 -15 -0.5 q-6 0 -26 1.5 q-20 1.5 -40 1.5 q-16 0 -16 -6 q0 -5 15 -10 q9 -2 12.5 -9.5 q3.5 -7.5 3.5 -18.5 q0 -10 -3.5 -22.5 q-3.5 -12.5 -13.5 -28.5 q-5 -8 -18 -30 q-13 -22 -30 -51.5 q-17 -29.5 -35.5 -62.5 q-18.5 -33 -35.5 -62.5 q-17 -29.5 -29.5 -53 q-12.5 -23.5 -17.5 -34.5 q-5 7 -19 31.5 q-14 24.5 -33 57 q-19 32.5 -40.5 69.5 q-21.5 37 -40.5 69.5 q-19 32.5 -33 57 q-14 24.5 -18 31.5 q-6 11 -9.5 20.5 q-3.5 9.5 -3.5 18.5 q0 11 13 18 q7 3 11 4.5 q4 1.5 4 4.5 q0 3 -2.5 5 q-2.5 2 -10.5 2 q-29 0 -54 -1.5 q-25 -1.5 -30 -1.5 q-2 0 -15 0.5 q-13 0.5 -29.5 1 q-16.5 0.5 -32 1 q-15.5 0.5 -22.5 0.5 q-13 0 -13 -7 q0 -7 10 -7 q7 0 19.5 -4 q12.5 -4 23.5 -12 q14 -9 31.5 -27.5 q17.5 -18.5 36.5 -46.5 q9 -13 25 -38.5 q16 -25.5 35 -56 q19 -30.5 38.5 -63 q19.5 -32.5 36.5 -60 q17 -27.5 28 -47 q11 -19.5 13 -23.5 q5 -11 9 -21 q4 -10 7 -22 q3 -12 5 -27 q2 -15 2 -35 l0 -86 ZM484 933 q-6 9 -10 9 q-4 0 -9.5 -2.5 q-5.5 -2.5 -18.5 -10.5 q-3 -2 -19.5 -11.5 q-16.5 -9.5 -38 -23 q-21.5 -13.5 -43.5 -27.5 q-22 -14 -35 -23 q-7 -4 -7 -8 q0 -6 5 -6 q3 0 15 5 q12 5 30.5 11.5 q18.5 6.5 39.5 12.5 q21 6 42.5 11 q21.5 5 39.5 7 q13 2 20.5 1 q7.5 -1 9.5 -1 q3 0 5.5 2.5 q2.5 2.5 -1.5 9.5 q-8 15 -14 25.5 q-6 10.5 -11 18.5 Z" /><glyph glyph-name="Ydieresis" unicode="&#x178;" d="M289 170 q0 -12 -0.5 -40 q-0.5 -28 -2.5 -60 q-2 -22 -9 -37 q-7 -15 -22 -18 q-7 -2 -15 -3 q-8 -1 -15 -1 q-8 0 -8 -6 q0 -8 16 -8 q11 0 27 0.5 q16 0.5 31 1 q15 0.5 26.5 1 q11.5 0.5 13.5 0.5 q2 0 13.5 -0.5 q11.5 -0.5 29 -1 q17.5 -0.5 38.5 -1 q21 -0.5 42 -0.5 q16 0 16 8 q0 6 -8 6 q-7 0 -20.5 1 q-13.5 1 -24.5 3 q-23 3 -31 18 q-8 15 -10 37 q-2 32 -2.5 60 q-0.5 28 -0.5 40 l0 86 q0 25 2 49 q2 24 13 51 q4 11 18 36 q14 25 32.5 57 q18.5 32 39.5 67.5 q21 35.5 41 67 q20 31.5 36 56 q16 24.5 24 34.5 q17 20 27.5 31 q10.5 11 25.5 20 q12 8 25 11 q13 3 21 3 q13 0 13 8 q0 6 -13 6 q-7 0 -22.5 -0.5 q-15.5 -0.5 -31 -1 q-15.5 -0.5 -28.5 -1 q-13 -0.5 -15 -0.5 q-6 0 -26 1.5 q-20 1.5 -40 1.5 q-16 0 -16 -6 q0 -5 15 -10 q9 -2 12.5 -9.5 q3.5 -7.5 3.5 -18.5 q0 -10 -3.5 -22.5 q-3.5 -12.5 -13.5 -28.5 q-5 -8 -18 -30 q-13 -22 -30 -51.5 q-17 -29.5 -35.5 -62.5 q-18.5 -33 -35.5 -62.5 q-17 -29.5 -29.5 -53 q-12.5 -23.5 -17.5 -34.5 q-5 7 -19 31.5 q-14 24.5 -33 57 q-19 32.5 -40.5 69.5 q-21.5 37 -40.5 69.5 q-19 32.5 -33 57 q-14 24.5 -18 31.5 q-6 11 -9.5 20.5 q-3.5 9.5 -3.5 18.5 q0 11 13 18 q7 3 11 4.5 q4 1.5 4 4.5 q0 3 -2.5 5 q-2.5 2 -10.5 2 q-29 0 -54 -1.5 q-25 -1.5 -30 -1.5 q-2 0 -15 0.5 q-13 0.5 -29.5 1 q-16.5 0.5 -32 1 q-15.5 0.5 -22.5 0.5 q-13 0 -13 -7 q0 -7 10 -7 q7 0 19.5 -4 q12.5 -4 23.5 -12 q14 -9 31.5 -27.5 q17.5 -18.5 36.5 -46.5 q9 -13 25 -38.5 q16 -25.5 35 -56 q19 -30.5 38.5 -63 q19.5 -32.5 36.5 -60 q17 -27.5 28 -47 q11 -19.5 13 -23.5 q5 -11 9 -21 q4 -10 7 -22 q3 -12 5 -27 q2 -15 2 -35 l0 -86 ZM451 830 q20 0 32 13 q12 13 12 33 q0 19 -12.5 29.5 q-12.5 10.5 -30.5 10.5 q-23 0 -33 -14.5 q-10 -14.5 -10 -28.5 q0 -14 9.5 -28.5 q9.5 -14.5 32.5 -14.5 ZM250 830 q20 0 32 13 q12 13 12 33 q0 19 -12.5 29.5 q-12.5 10.5 -30.5 10.5 q-23 0 -33 -14.5 q-10 -14.5 -10 -28.5 q0 -14 9.5 -28.5 q9.5 -14.5 32.5 -14.5 Z" /></font>
</defs>
</svg>
